<svg width="50" height="50" viewBox="0 0 50 50" fill="none" xmlns="http://www.w3.org/2000/svg">
<g clip-path="url(#clip0_201_2)">
<path d="M2.50502 49.8885C1.97733 49.7229 1.24586 49.245 0.878312 48.8258C0.714804 48.6393 0.450296 48.2105 0.290515 47.8728L0 47.2589V24.9842V2.70953L0.353205 1.99383C0.755144 1.17939 1.27376 0.662932 2.0954 0.258842L2.62172 0H25H47.3783L47.9046 0.258842C48.7262 0.662932 49.2448 1.17939 49.6468 1.99383L50 2.70953V24.9891V47.2686L49.6468 47.9843C49.2448 48.7988 48.7262 49.3152 47.9046 49.7193L47.3783 49.9781L25.1404 49.9957C6.85443 50.0101 2.83197 49.9913 2.50502 49.8885ZM14.8408 30.7089V18.7066H11.0955H7.35018V30.7089V42.7112H11.0955H14.8408V30.7089ZM26.9444 35.7489C26.9831 28.0094 26.9748 28.1187 27.6214 26.8027C28.0442 25.9421 28.7335 25.2928 29.5562 24.9802C30.0683 24.7856 30.3109 24.7547 31.3223 24.7547C32.4621 24.7547 32.5126 24.7635 33.1288 25.0673C34.1694 25.5804 34.7346 26.4794 35.0252 28.0834C35.125 28.6343 35.1534 30.2954 35.1559 35.7489L35.1592 42.7112H38.9101H42.661L42.6235 34.483C42.5873 26.5296 42.5792 26.2194 42.384 25.1909C41.9411 22.8582 41.3144 21.5022 40.1217 20.296C38.8025 18.9617 37.2972 18.3468 34.8349 18.1362C32.3027 17.9197 30.4869 18.3713 28.7453 19.6508C28.1446 20.0921 27.2947 20.9892 26.9265 21.5706L26.6386 22.0252V20.3659V18.7066H23.0337H19.4288V30.7089V42.7112H23.1692H26.9096L26.9444 35.7489ZM12.3978 15.2471C15.4844 14.2851 16.4343 10.3642 14.138 8.06462C13.2733 7.19874 12.3186 6.80273 11.0955 6.80273C8.65401 6.80273 6.78839 8.66531 6.78839 11.1028C6.78839 13.0335 7.96122 14.6661 9.76236 15.2427C10.492 15.4763 11.6564 15.4782 12.3978 15.2471Z" fill="black"/>
</g>
<defs>
<clipPath id="clip0_201_2">
<rect width="50" height="50" fill="white"/>
</clipPath>
</defs>
</svg>
