<svg xmlns="http://www.w3.org/2000/svg" width="706.611" height="265.607" viewBox="0 0 706.611 265.607">
  <g id="f-a" transform="translate(-1062.61 -437.028)">
    <g id="Group_115" data-name="Group 115" transform="translate(1062.61 437.028)">
      <path id="Path_5" data-name="Path 5" d="M466.02,26.19a492.029,492.029,0,0,0-64.457-10.038c-20.379-1.82-40.148-2.374-59.242-2.254-19.468.122-38.449.947-56.514,1.874-18.521.95-36.068,2.006-51.835,2.505-16.061.509-24.578,2.006-28.787,4.3-4.305,2.349-4.126,5.546-2.873,9.411C203.6,35.971,206.045,40.7,205.935,46c-.114,5.524-3,11.746-12.941,18.535-10.517,7.18-25,13.578-39.964,19.541-15.727,6.266-31.861,12-44.365,17.619-13.046,5.863-22.028,11.552-22.476,17.55-.463,6.21,8.226,12.7,30.8,20,23.186,7.5,56.369,15.452,95.586,22.477,39.818,7.132,85.171,13.186,131.046,16.671,45.556,3.461,90.4,4.3,129.056,1.209,37.222-2.972,67.457-9.486,86.048-20.314,17.3-10.079,19.039-20.167,12.471-29.7-6.216-9.027-19.951-17.678-35.34-25.451-14.766-7.458-31.223-14.194-44.246-19.732-12.642-5.376-22.178-9.68-23.818-12.443-3-5.06,2.16-9.114,9.639-12.729,7.228-3.493,16.631-6.581,22.947-9.778,6.119-3.1,9.354-6.305,4.906-10.093C500.956,35.673,489.362,31.432,466.02,26.19Z" transform="translate(-0.001)" fill="#0c3026"/>
      <g id="Path_6" data-name="Path 6" transform="translate(132.698 11.896)" fill="none">
        <path d="M256.487,1.582s-5.144.369-13.035,1.087c-8,.728-18.931,1.823-30.322,3.27-11.665,1.482-23.9,3.345-33.982,5.568-10.375,2.287-18.489,4.958-21.288,7.975-2.877,3.1,2.91,6.277,13.288,9.5,10.555,3.277,25.779,6.576,41.375,9.9,15.8,3.366,31.98,6.755,44.226,10.206,12.45,3.508,20.926,7.106,20.942,10.878.016,3.879-10.244,5.865-25.782,6.962-15.846,1.118-37.095,1.305-58.519,1.655-21.817.356-43.866.882-60.868,2.743-17.428,1.908-29.74,5.24-31.283,11.329-1.608,6.342,6.45,14.546,19.966,23.513,14.153,9.39,34.295,19.621,55.418,29.3,22.04,10.1,44.928,19.5,62.629,26.5,18.195,7.191,30.514,11.683,30.514,11.683" stroke="none"/>
        <path d="M 266.4815979003906 176.0291900634766 C 264.4144287109375 175.2703704833984 250.8584442138672 170.2679748535156 232.0107421875 162.7294464111328 C 213.6983642578125 155.4049530029297 190.7588348388672 145.8335266113281 168.9324798583984 135.6234283447266 C 148.0263519287109 125.8437957763672 128.3365936279297 115.5688323974609 114.6175384521484 106.1019439697266 C 101.5238189697266 97.06717681884766 93.8714599609375 88.76972961425781 95.64821624755859 82.23827362060547 C 96.03761291503906 80.80891418457031 96.91158294677734 79.51988983154297 98.21659088134766 78.35594940185547 C 99.5107421875 77.20179748535156 101.2294845581055 76.16960144042969 103.3200607299805 75.24549102783203 C 105.3957061767578 74.32816314697266 107.8399276733398 73.51644134521484 110.6006851196289 72.79685974121094 C 113.3441619873047 72.08209991455078 116.4025344848633 71.45791625976562 119.7276611328125 70.91132354736328 C 124.9204940795898 70.05747985839844 130.7696533203125 69.39215087890625 137.0861511230469 68.86719512939453 C 143.3522033691406 68.34642028808594 150.08642578125 67.96340179443359 157.1018524169922 67.67208862304688 C 164.0686187744141 67.38278198242188 171.3186492919922 67.18359375 178.6678161621094 67.03004455566406 C 185.9703063964844 66.87751770019531 193.3743133544922 66.76982879638672 200.69482421875 66.66326904296875 C 207.0617370605469 66.57048034667969 213.4320068359375 66.47776031494141 219.6079711914062 66.35332489013672 C 225.7513275146484 66.22953033447266 231.7011260986328 66.07443237304688 237.2618103027344 65.85674285888672 C 242.7909698486328 65.64038848876953 247.9335021972656 65.3623046875 252.4956359863281 64.99219512939453 C 257.0310974121094 64.62418365478516 260.9904479980469 64.16535186767578 264.1855163574219 63.5858039855957 C 265.5579528808594 63.33683013916016 266.7889709472656 63.06564712524414 267.8632507324219 62.76998138427734 C 268.9345092773438 62.47509765625 269.8498229980469 62.15592575073242 270.594970703125 61.81008529663086 C 271.3368530273438 61.46529769897461 271.9103088378906 61.09396743774414 272.2982177734375 60.69393157958984 C 272.6853637695312 60.29524612426758 272.8891906738281 59.86801910400391 272.8954772949219 59.41005325317383 C 272.9165344238281 57.85192108154297 270.9786376953125 56.27526473999023 267.6119995117188 54.69022369384766 C 264.2761535644531 53.11963272094727 259.5310363769531 51.53763961791992 253.8868408203125 49.95535278320312 C 248.2848205566406 48.384765625 241.7901000976562 46.81184005737305 234.9023895263672 45.248779296875 C 228.0583343505859 43.69562530517578 220.8220367431641 42.15105056762695 213.6890258789062 40.62871551513672 C 205.2363739013672 38.82465744018555 196.7720947265625 37.01811599731445 188.9441986083984 35.20041275024414 C 181.1767883300781 33.39665222167969 174.0459136962891 31.58441162109375 168.1971130371094 29.75849533081055 C 162.4039459228516 27.94981956481934 157.8818206787109 26.13216781616211 155.2586669921875 24.30358695983887 C 152.6681365966797 22.49758338928223 151.938720703125 20.68727874755859 153.660400390625 18.87391662597656 C 155.3573455810547 17.08659362792969 158.7763519287109 15.42326545715332 163.3521118164062 13.88973522186279 C 167.8513031005859 12.38172817230225 173.4684448242188 10.99956226348877 179.6727142333984 9.746584892272949 C 185.7763366699219 8.513840675354004 192.4536437988281 7.404982089996338 199.2089233398438 6.42165470123291 C 205.8647003173828 5.452898025512695 212.6077270507812 4.60432767868042 218.9738311767578 3.876780271530151 C 223.6351776123047 3.344104051589966 228.1021575927734 2.875415563583374 232.1955108642578 2.470898866653442 C 236.2577056884766 2.069441080093384 239.9581604003906 1.730655908584595 243.1219940185547 1.454840064048767 C 246.268310546875 1.180562973022461 248.8902587890625 0.9679673910140991 250.8135528564453 0.8177339434623718 C 252.7309417724609 0.6679901480674744 253.9580230712891 0.5798298716545105 254.3193511962891 0.5542108416557312 L 258.6702880859375 2.617024660110474 C 258.5818176269531 2.623495578765869 257.535400390625 2.700920820236206 255.7316284179688 2.846712350845337 C 253.9222717285156 2.992955446243286 251.3467712402344 3.208390712738037 248.2011871337891 3.49059271812439 C 245.0386657714844 3.774435043334961 241.2931823730469 4.126454830169678 237.1642456054688 4.544710636138916 C 233.0025939941406 4.966320991516113 228.4438629150391 5.455957889556885 223.6914520263672 6.011689186096191 C 217.5688629150391 6.727643489837646 211.111328125 7.554858207702637 204.7614898681641 8.489093780517578 C 198.3203887939453 9.436532020568848 191.9808197021484 10.49545097351074 186.2122955322266 11.660400390625 C 180.3547973632812 12.84320449829102 175.0830841064453 14.13601112365723 170.9006500244141 15.53132247924805 C 166.6533508300781 16.94850730895996 163.5299377441406 18.47088813781738 162.0628967285156 20.08854866027832 C 160.8320007324219 21.44639015197754 161.7355651855469 22.86236572265625 164.2517700195312 24.32098770141602 C 166.7918853759766 25.79374504089355 170.9708557128906 27.30668449401855 176.2430877685547 28.84494781494141 C 181.5572509765625 30.39536476135254 187.9737396240234 31.96923828125 194.9342956542969 33.55283355712891 C 201.9420318603516 35.14706420898438 209.4959259033203 36.74991607666016 217.0335388183594 38.34926605224609 C 224.8694610595703 40.01201248168945 232.8241729736328 41.6998405456543 240.3502197265625 43.4200553894043 C 247.9308166503906 45.15263748168945 255.0850067138672 46.92021560668945 261.2655334472656 48.73268508911133 C 267.5007629394531 50.56131362915039 272.7584228515625 52.43995666503906 276.4769592285156 54.38225555419922 C 280.2391357421875 56.34726715087891 282.4383239746094 58.38401031494141 282.4846801757812 60.51041030883789 C 282.5001831054688 61.22055816650391 282.2439270019531 61.87626647949219 281.7364807128906 62.48169708251953 C 281.2271423339844 63.09018325805664 280.464111328125 63.64779281616211 279.4681091308594 64.15914154052734 C 278.4674682617188 64.67269897460938 277.2328796386719 65.13946533203125 275.7848205566406 65.56419372558594 C 274.3302612304688 65.99068450927734 272.6614685058594 66.37467193603516 270.8004150390625 66.72071838378906 C 267.2526550292969 67.38053131103516 263.0062561035156 67.90272521972656 258.210693359375 68.32161712646484 C 253.3834991455078 68.74326324462891 248.0033264160156 69.06002044677734 242.2215118408203 69.30683898925781 C 236.40478515625 69.55508422851562 230.1835784912109 69.73268890380859 223.7116088867188 69.87564086914062 C 217.2021484375 70.01936340332031 210.4387969970703 70.12802124023438 203.5739898681641 70.23841094970703 C 196.4256591796875 70.35310363769531 189.1952056884766 70.46929931640625 182.0801391601562 70.62687683105469 C 174.9207458496094 70.78545379638672 167.8765869140625 70.98587799072266 161.1453552246094 71.26941680908203 C 154.3695983886719 71.55471038818359 147.9066314697266 71.92429351806641 141.9596710205078 72.42015075683594 C 135.9675598144531 72.91968536376953 130.4927062988281 73.54775238037109 125.7397689819336 74.34816741943359 C 123.0538787841797 74.80051422119141 120.5976715087891 75.30809020996094 118.4068145751953 75.8787841796875 C 116.2042770385742 76.45249176025391 114.2701873779297 77.09037017822266 112.641242980957 77.80060577392578 C 111.0029220581055 78.51494598388672 109.6731567382812 79.30294036865234 108.6909713745117 80.17311096191406 C 107.7014617919922 81.04861450195312 107.0639495849609 82.00785827636719 106.817024230957 83.05968475341797 C 105.4068298339844 89.06414794921875 113.3940734863281 96.92136383056641 126.6837463378906 105.552864074707 C 140.5765838623047 114.5752792358398 160.2740325927734 124.4506988525391 180.9402313232422 133.8283843994141 C 202.4768524169922 143.60107421875 224.8643646240234 152.7428894042969 242.2966766357422 159.5974426269531 C 260.2061157226562 166.6401214599609 272.5124206542969 171.1222076416016 272.9982299804688 171.2984771728516 L 266.4815979003906 176.0291900634766 Z" stroke="none" fill="#dcfce6"/>
      </g>
    </g>
    <g id="layer1" transform="translate(1480.455 498.044)">
      <path id="path803" d="M12.934,38.143a.678.678,0,0,1-.155-.115,2.456,2.456,0,0,1-.2-.223c-.078-.094-.166-.209-.267-.347s-.215-.3-.344-.488c-.1-.144-.243-.351-.418-.6s-.381-.545-.606-.864l-.713-1.01-.738-1.041c-.936-1.315-1.745-2.471-2.455-3.508s-1.32-1.957-1.858-2.8-1-1.612-1.424-2.348S2.959,23.361,2.6,22.65c-.416-.83-.778-1.62-1.089-2.378S.943,18.786.731,18.08a18.073,18.073,0,0,1-.493-2.066,15.87,15.87,0,0,1-.223-2,13.1,13.1,0,0,1,.3-3.451A13.407,13.407,0,0,1,1.477,7.333,13.576,13.576,0,0,1,6.081,2.2a13.034,13.034,0,0,1,2.006-1.08A13.788,13.788,0,0,1,12.521.035a12.741,12.741,0,0,1,2.261.033,13.633,13.633,0,0,1,4.246,1.157,13.467,13.467,0,0,1,6.194,5.744A13.64,13.64,0,0,1,26.7,11.116a10.091,10.091,0,0,1,.123,1.045c.028.393.044.819.047,1.244s-.007.848-.029,1.235a9.25,9.25,0,0,1-.108,1.017,21.41,21.41,0,0,1-.736,2.936,27.213,27.213,0,0,1-1.234,3.1c-.5,1.076-1.1,2.2-1.8,3.408s-1.514,2.487-2.442,3.871c-.186.278-.413.612-.664.979s-.526.766-.808,1.172-.571.821-.85,1.218-.547.778-.789,1.117-.492.693-.739,1.041l-.713,1.01c-.224.319-.431.613-.606.863s-.319.458-.418.6c-.138.2-.256.37-.359.51s-.189.253-.265.344a1.94,1.94,0,0,1-.2.211.725.725,0,0,1-.165.113,1.255,1.255,0,0,1-.252.09,1.077,1.077,0,0,1-.252.029,1.061,1.061,0,0,1-.251-.031,1.208,1.208,0,0,1-.248-.092Zm1.188-3.926.364-.517L15,32.966l.6-.852.62-.873c1.318-1.856,2.441-3.5,3.4-4.988s1.741-2.816,2.389-4.042a28.6,28.6,0,0,0,1.553-3.417,20.2,20.2,0,0,0,.887-3.115,8.861,8.861,0,0,0,.128-.982c.03-.366.046-.761.05-1.154s-.006-.782-.029-1.138a7.618,7.618,0,0,0-.11-.935c-.054-.277-.116-.547-.186-.81s-.149-.521-.236-.776-.185-.505-.291-.755-.224-.5-.351-.749A11.329,11.329,0,0,0,21.55,5.724a11.145,11.145,0,0,0-5.42-3.157,11.039,11.039,0,0,0-3.207-.3c-.428.022-.837.063-1.234.123a10.532,10.532,0,0,0-1.161.243A10.424,10.424,0,0,0,9.406,3a12.058,12.058,0,0,0-1.117.511A10.876,10.876,0,0,0,7.2,4.164a11.616,11.616,0,0,0-1.026.782,11.839,11.839,0,0,0-.94.9,11.51,11.51,0,0,0-.833.992,9.346,9.346,0,0,0-.65,1.007,12.156,12.156,0,0,0-.568,1.152,13.012,13.012,0,0,0-.458,1.232A11.545,11.545,0,0,0,2.4,11.47a7.711,7.711,0,0,0-.111.94c-.023.357-.033.747-.03,1.139s.02.786.05,1.152a8.723,8.723,0,0,0,.128.978,20.105,20.105,0,0,0,.772,2.778,27.211,27.211,0,0,0,1.278,2.987c.52,1.049,1.137,2.161,1.867,3.363s1.571,2.5,2.537,3.906c.309.45.745,1.077,1.226,1.763s1.007,1.432,1.5,2.121.941,1.323,1.273,1.784.545.749.556.749a.341.341,0,0,0,.065-.072c.037-.046.088-.113.149-.2s.133-.181.211-.29.163-.229.251-.354ZM12.288,20.071a6.9,6.9,0,0,1-1.97-.682,6.768,6.768,0,0,1-1.631-1.2A6.689,6.689,0,0,1,7.8,9.822,6.756,6.756,0,0,1,9.485,8.039a7.019,7.019,0,0,1,2.316-1.1,4.9,4.9,0,0,1,.725-.127c.272-.03.568-.046.863-.05s.589.006.86.028a4.68,4.68,0,0,1,.717.108,7,7,0,0,1,1.755.7A6.812,6.812,0,0,1,19.3,10.174a7.03,7.03,0,0,1,.7,1.757,4.537,4.537,0,0,1,.1.712c.022.274.031.576.027.879s-.02.6-.048.88a4.66,4.66,0,0,1-.121.716,6.946,6.946,0,0,1-.472,1.245,7.082,7.082,0,0,1-.693,1.127,6.922,6.922,0,0,1-.885.97,6.412,6.412,0,0,1-2.122,1.282,7.014,7.014,0,0,1-1.157.316,6.881,6.881,0,0,1-1.187.113,6.171,6.171,0,0,1-1.162-.1Zm2.236-2.281a5,5,0,0,0,.588-.187,3.79,3.79,0,0,0,.519-.249,3.96,3.96,0,0,0,.482-.33,6.13,6.13,0,0,0,.907-.907,3.961,3.961,0,0,0,.33-.482,3.789,3.789,0,0,0,.249-.519,5,5,0,0,0,.187-.588,4.316,4.316,0,0,0,.126-.8,4.471,4.471,0,0,0-.025-.816,4.6,4.6,0,0,0-.491-1.574,3.29,3.29,0,0,0-.335-.5,6.538,6.538,0,0,0-1-1,3.289,3.289,0,0,0-.5-.335,4.6,4.6,0,0,0-1.574-.491,4.47,4.47,0,0,0-.816-.025,4.316,4.316,0,0,0-.8.126,5,5,0,0,0-.588.187,3.79,3.79,0,0,0-.519.249,3.96,3.96,0,0,0-.482.33,6.129,6.129,0,0,0-.907.907,3.961,3.961,0,0,0-.33.482,3.791,3.791,0,0,0-.249.519,4.994,4.994,0,0,0-.187.588,4.317,4.317,0,0,0-.126.8A4.471,4.471,0,0,0,9.007,14,4.6,4.6,0,0,0,9.5,15.569a3.291,3.291,0,0,0,.335.5,6.532,6.532,0,0,0,1,1,3.3,3.3,0,0,0,.5.335,4.59,4.59,0,0,0,1.573.491,4.466,4.466,0,0,0,.816.025,4.322,4.322,0,0,0,.8-.126Z" fill="#fff"/>
    </g>
    <g id="layer1-2" data-name="layer1" transform="translate(1319.883 455.51)">
      <path id="path803-2" data-name="path803" d="M12.349,36.417a.648.648,0,0,1-.148-.11,2.342,2.342,0,0,1-.195-.213c-.074-.09-.158-.2-.255-.331s-.205-.286-.328-.466c-.094-.138-.232-.335-.4-.575l-.578-.824-.68-.964-.7-.994c-.893-1.256-1.666-2.359-2.344-3.349s-1.261-1.868-1.774-2.674-.958-1.539-1.36-2.241-.759-1.372-1.1-2.051c-.4-.793-.743-1.546-1.04-2.27S.9,17.936.7,17.262a17.255,17.255,0,0,1-.471-1.973,15.152,15.152,0,0,1-.213-1.911,12.511,12.511,0,0,1,.283-3.3A12.8,12.8,0,0,1,1.41,7a12.961,12.961,0,0,1,4.4-4.9A12.444,12.444,0,0,1,7.721,1.072,13.164,13.164,0,0,1,11.954.033a12.165,12.165,0,0,1,2.159.031,13.016,13.016,0,0,1,4.054,1.1A12.857,12.857,0,0,1,24.08,6.654a13.022,13.022,0,0,1,1.407,3.959,9.634,9.634,0,0,1,.117,1c.027.375.042.782.045,1.188s-.006.809-.028,1.179a8.83,8.83,0,0,1-.1.971,20.442,20.442,0,0,1-.7,2.8,25.982,25.982,0,0,1-1.178,2.956c-.479,1.027-1.049,2.1-1.721,3.253s-1.445,2.374-2.331,3.7c-.178.265-.395.584-.634.934s-.5.731-.771,1.119-.545.784-.811,1.163-.523.743-.753,1.067l-.705.994-.681.964c-.214.3-.411.585-.579.824s-.3.437-.4.574c-.132.193-.245.353-.342.487s-.181.242-.253.328a1.852,1.852,0,0,1-.192.2.692.692,0,0,1-.158.108,1.2,1.2,0,0,1-.241.086,1.028,1.028,0,0,1-.241.028,1.013,1.013,0,0,1-.239-.03,1.154,1.154,0,0,1-.237-.088Zm1.135-3.748.347-.494.495-.7.576-.814.592-.834c1.259-1.772,2.33-3.343,3.242-4.762s1.663-2.689,2.281-3.859A27.3,27.3,0,0,0,22.5,17.943a19.289,19.289,0,0,0,.847-2.974,8.459,8.459,0,0,0,.122-.937c.028-.35.044-.727.048-1.1s-.006-.747-.028-1.087a7.272,7.272,0,0,0-.105-.893c-.052-.265-.111-.522-.178-.774s-.142-.5-.226-.741-.176-.483-.278-.721-.213-.476-.335-.715a10.816,10.816,0,0,0-1.789-2.535A10.641,10.641,0,0,0,15.4,2.451a10.539,10.539,0,0,0-3.062-.291c-.408.021-.8.06-1.179.117a10.055,10.055,0,0,0-1.109.232,9.952,9.952,0,0,0-1.071.356,11.514,11.514,0,0,0-1.066.488,10.385,10.385,0,0,0-1.042.621,11.091,11.091,0,0,0-.98.747,11.305,11.305,0,0,0-.9.855,10.991,10.991,0,0,0-.8.947,8.923,8.923,0,0,0-.62.961,11.606,11.606,0,0,0-.542,1.1A12.422,12.422,0,0,0,2.6,9.762a11.023,11.023,0,0,0-.3,1.189,7.362,7.362,0,0,0-.106.9c-.022.341-.032.713-.028,1.088s.019.751.047,1.1a8.328,8.328,0,0,0,.122.934,19.2,19.2,0,0,0,.737,2.652,25.98,25.98,0,0,0,1.22,2.852c.5,1,1.086,2.063,1.782,3.211s1.5,2.382,2.423,3.729c.295.43.711,1.028,1.17,1.683s.962,1.367,1.429,2.025.9,1.263,1.216,1.7.521.715.531.716a.326.326,0,0,0,.062-.069c.035-.044.084-.108.142-.187s.127-.173.2-.277.156-.219.24-.338ZM11.731,19.163a6.59,6.59,0,0,1-1.881-.651,6.461,6.461,0,0,1-1.557-1.148,6.387,6.387,0,0,1-.85-7.986,6.45,6.45,0,0,1,1.612-1.7,6.7,6.7,0,0,1,2.211-1.054A4.681,4.681,0,0,1,11.96,6.5c.26-.028.542-.044.824-.048s.563.005.821.027a4.467,4.467,0,0,1,.685.1,6.684,6.684,0,0,1,1.676.666,6.5,6.5,0,0,1,2.466,2.466,6.712,6.712,0,0,1,.668,1.678,4.332,4.332,0,0,1,.1.68c.021.262.029.55.026.839s-.019.577-.046.84a4.45,4.45,0,0,1-.116.683,6.632,6.632,0,0,1-.45,1.188A6.762,6.762,0,0,1,17.95,16.7a6.609,6.609,0,0,1-.845.926,6.122,6.122,0,0,1-2.026,1.224,6.7,6.7,0,0,1-1.105.3,6.569,6.569,0,0,1-1.133.108,5.892,5.892,0,0,1-1.11-.1Zm2.135-2.178a4.77,4.77,0,0,0,.561-.178,3.618,3.618,0,0,0,.5-.238,3.781,3.781,0,0,0,.46-.315,5.852,5.852,0,0,0,.866-.866,3.781,3.781,0,0,0,.315-.46,3.618,3.618,0,0,0,.238-.5,4.769,4.769,0,0,0,.178-.561,4.121,4.121,0,0,0,.12-.768,4.269,4.269,0,0,0-.024-.779,4.387,4.387,0,0,0-.469-1.5,3.141,3.141,0,0,0-.32-.475,6.243,6.243,0,0,0-.954-.954,3.141,3.141,0,0,0-.475-.32,4.387,4.387,0,0,0-1.5-.469,4.268,4.268,0,0,0-.779-.024,4.121,4.121,0,0,0-.768.12,4.77,4.77,0,0,0-.561.178,3.619,3.619,0,0,0-.5.238,3.781,3.781,0,0,0-.46.315,5.853,5.853,0,0,0-.866.866,3.781,3.781,0,0,0-.315.46,3.619,3.619,0,0,0-.238.5,4.769,4.769,0,0,0-.178.561,4.121,4.121,0,0,0-.12.768,4.269,4.269,0,0,0,.024.779,4.388,4.388,0,0,0,.469,1.5,3.141,3.141,0,0,0,.32.475,6.237,6.237,0,0,0,.954.954,3.148,3.148,0,0,0,.476.32,4.382,4.382,0,0,0,1.5.469,4.264,4.264,0,0,0,.779.024,4.127,4.127,0,0,0,.768-.12Z" fill="#fff"/>
    </g>
    <g id="User_Icon" data-name="User Icon" transform="translate(1500.709 523.784)">
      <g id="Rectangle_7" data-name="Rectangle 7" transform="translate(0 16.032)" fill="#0c3026">
        <path d="M12.526,0A12.515,12.515,0,0,1,25.051,12.526v8.426H0V12.526A12.515,12.515,0,0,1,12.526,0Z" stroke="none"/>
        <path d="M 23.0165901184082 18.91740226745605 L 23.0165901184082 12.52569389343262 C 23.0165901184082 11.07950687408447 22.72245216369629 9.700728416442871 22.19085693359375 8.446039199829102 C 21.65926170349121 7.191351413726807 20.89021110534668 6.060752868652344 19.94038391113281 5.110928058624268 C 18.99055862426758 4.161102771759033 17.85996246337891 3.392051219940186 16.60527610778809 2.860455751419067 C 15.35058784484863 2.328860282897949 13.97181129455566 2.03472113609314 12.52562713623047 2.03472113609314 C 11.07944202423096 2.03472113609314 9.700665473937988 2.328860282897949 8.445978164672852 2.860455751419067 C 7.191291332244873 3.392051219940186 6.060694217681885 4.161102771759033 5.110869884490967 5.110928058624268 C 4.161045551300049 6.060752868652344 3.39199423789978 7.191351413726807 2.860398769378662 8.446039199829102 C 2.328803539276123 9.700728416442871 2.034664392471313 11.07950687408447 2.034664392471313 12.52569389343262 L 2.034664392471313 18.91740226745605 L 23.0165901184082 18.91740226745605 M 25.05112457275391 20.95193862915039 L 0.000128583749756217 20.95193862915039 L 0.000128583749756217 12.52569389343262 C 0.000128583749756217 10.7962818145752 0.3506193459033966 9.14873218536377 0.9844436645507812 7.650200843811035 C 1.618267893791199 6.151669979095459 2.535425901412964 4.802157878875732 3.668760299682617 3.668822288513184 C 4.80209493637085 2.535486459732056 6.151605606079102 1.618327379226685 7.650135517120361 0.9845020174980164 C 9.148665428161621 0.3506766557693481 10.79621505737305 0.0001852226705523208 12.52562713623047 0.0001852226705523208 C 14.25503826141357 0.0001852226705523208 15.90258693695068 0.3506766557693481 17.40111923217773 0.9845020174980164 C 18.89964866638184 1.618327379226685 20.24915885925293 2.535486459732056 21.38249397277832 3.668822288513184 C 22.51582717895508 4.802157878875732 23.43298530578613 6.151669979095459 24.06680870056152 7.650200843811035 C 24.70063400268555 9.14873218536377 25.05112457275391 10.7962818145752 25.05112457275391 12.52569389343262 L 25.05112457275391 20.95193862915039 Z" stroke="none" fill="#fff"/>
      </g>
      <g id="Ellipse_2" data-name="Ellipse 2" transform="translate(5.466)" fill="#0c3026">
        <path d="M7.06,0A7.241,7.241,0,0,1,9.808.537,7.089,7.089,0,0,1,12.052,2a6.835,6.835,0,0,1,1.513,2.172,6.651,6.651,0,0,1,0,5.319,6.835,6.835,0,0,1-1.513,2.172,7.089,7.089,0,0,1-2.244,1.464,7.3,7.3,0,0,1-5.5,0,7.089,7.089,0,0,1-2.244-1.464A6.835,6.835,0,0,1,.555,9.491a6.651,6.651,0,0,1,0-5.319A6.835,6.835,0,0,1,2.068,2,7.089,7.089,0,0,1,4.312.537,7.241,7.241,0,0,1,7.06,0Z" stroke="none"/>
        <path d="M 7.059953212738037 11.62965106964111 C 7.752692222595215 11.62965106964111 8.413143157958984 11.49514102935791 9.014152526855469 11.25203990936279 C 9.61516284942627 11.00893974304199 10.1567325592041 10.65725040435791 10.61170864105225 10.22289085388184 C 11.06668472290039 9.788532257080078 11.43506908416748 9.271506309509277 11.68970966339111 8.697732925415039 C 11.94434928894043 8.123959541320801 12.08524608612061 7.493439197540283 12.08524608612061 6.832092761993408 C 12.08524608612061 6.170746326446533 11.94434928894043 5.540225982666016 11.68970966339111 4.966452598571777 C 11.43506908416748 4.392679214477539 11.06668472290039 3.87565279006958 10.61170864105225 3.44129467010498 C 10.1567325592041 3.006936550140381 9.61516284942627 2.655246496200562 9.014152526855469 2.412146329879761 C 8.413143157958984 2.16904616355896 7.752692222595215 2.03453516960144 7.059953212738037 2.03453516960144 C 6.367213726043701 2.03453516960144 5.70676326751709 2.16904616355896 5.105753421783447 2.412146329879761 C 4.504743576049805 2.655246496200562 3.963174343109131 3.006936550140381 3.508197546005249 3.44129467010498 C 3.053220748901367 3.87565279006958 2.684836387634277 4.392679214477539 2.430196046829224 4.966452598571777 C 2.17555570602417 5.540225982666016 2.034659624099731 6.170746326446533 2.034659624099731 6.832092761993408 C 2.034659624099731 7.493439197540283 2.17555570602417 8.123959541320801 2.430196046829224 8.697732925415039 C 2.684836387634277 9.271506309509277 3.053220748901367 9.788532257080078 3.508197546005249 10.22289085388184 C 3.963174343109131 10.65725040435791 4.504743576049805 11.00893974304199 5.105753421783447 11.25203990936279 C 5.70676326751709 11.49514102935791 6.367213726043701 11.62965106964111 7.059953212738037 11.62965106964111 M 7.059953212738037 13.66418647766113 C 6.08519458770752 13.66418647766113 5.156575679779053 13.47300910949707 4.311949253082275 13.12728691101074 C 3.467323064804077 12.7815637588501 2.706689119338989 12.28129577636719 2.067899942398071 11.66311168670654 C 1.429111003875732 11.04492855072021 0.9121670126914978 10.30883121490479 0.5549201965332031 9.491451263427734 C 0.1976733505725861 8.674071311950684 0.0001237375399796292 7.775408267974854 0.0001237375399796292 6.832092761993408 C 0.0001237375399796292 5.888777256011963 0.1976733654737473 4.990114212036133 0.5549201965332031 4.172733783721924 C 0.912166953086853 3.355353593826294 1.429111003875732 2.619256258010864 2.067899942398071 2.001073360443115 C 2.706689119338989 1.382890462875366 3.467323064804077 0.8826219439506531 4.311949253082275 0.536899209022522 C 5.156575679779053 0.1911763548851013 6.08519458770752 -7.228724143715226e-07 7.059953212738037 -7.228724143715226e-07 C 8.034711837768555 -7.228724143715226e-07 8.96333122253418 0.1911763548851013 9.807957649230957 0.5368991494178772 C 10.65258407592773 0.8826218843460083 11.41321659088135 1.382890343666077 12.05200576782227 2.001073360443115 C 12.69079399108887 2.619256258010864 13.20773887634277 3.355353593826294 13.56498527526855 4.172733783721924 C 13.92223262786865 4.990114212036133 14.11978244781494 5.888777256011963 14.11978244781494 6.832092761993408 C 14.11978244781494 7.775408267974854 13.92223262786865 8.674071311950684 13.56498527526855 9.491451263427734 C 13.20773887634277 10.30883121490479 12.69079399108887 11.04492855072021 12.05200576782227 11.66311168670654 C 11.41321659088135 12.28129577636719 10.65258407592773 12.7815637588501 9.807957649230957 13.12728691101074 C 8.96333122253418 13.47300910949707 8.034711837768555 13.66418647766113 7.059953212738037 13.66418647766113 Z" stroke="none" fill="#fff"/>
      </g>
    </g>
    <g id="User_Icon-2" data-name="User Icon" transform="translate(1298.277 469.858)">
      <g id="Rectangle_7-2" data-name="Rectangle 7" transform="translate(0 18.26)" fill="#0c3026">
        <path d="M13.242,0A13.231,13.231,0,0,1,26.484,13.242V22.15H0V13.242A13.231,13.231,0,0,1,13.242,0Z" stroke="none"/>
        <path d="M 24.44901657104492 20.11529731750488 L 24.44901657104492 13.24176979064941 C 24.44901657104492 12.49338436126709 24.37615585327148 11.75619602203369 24.23379325866699 11.03830814361572 C 24.0914306640625 10.32042026519775 23.87956428527832 9.621831893920898 23.60154724121094 8.950642585754395 C 23.32352828979492 8.279453277587891 22.9793643951416 7.635664463043213 22.57240676879883 7.027376174926758 C 22.16544914245605 6.419087409973145 21.6956958770752 5.846298217773438 21.16650581359863 5.317110538482666 C 20.63731956481934 4.787919998168945 20.06452941894531 4.318168163299561 19.45623970031738 3.911209344863892 C 18.84794807434082 3.504250764846802 18.20415687561035 3.160085678100586 17.53296852111816 2.88206958770752 C 16.86178016662598 2.604053497314453 16.16318893432617 2.392186164855957 15.44530010223389 2.249822854995728 C 14.72741031646729 2.107459545135498 13.99022197723389 2.034600496292114 13.24183654785156 2.034600496292114 C 12.49345016479492 2.034600496292114 11.75626182556152 2.107459545135498 11.03837299346924 2.249822854995728 C 10.32048416137695 2.392186164855957 9.621893882751465 2.604053497314453 8.950703620910645 2.88206958770752 C 8.279513359069824 3.160085678100586 7.635723114013672 3.504250764846802 7.027433395385742 3.911209344863892 C 6.419143676757812 4.318168163299561 5.846354007720947 4.787919998168945 5.317166328430176 5.317110538482666 C 4.787975788116455 5.846298217773438 4.31822395324707 6.419087409973145 3.91126537322998 7.027376174926758 C 3.504306793212891 7.635664463043213 3.160141944885254 8.279453277587891 2.882125854492188 8.950642585754395 C 2.604109764099121 9.621831893920898 2.392242431640625 10.32042026519775 2.249878883361816 11.03830814361572 C 2.107515573501587 11.75619602203369 2.034656286239624 12.49338436126709 2.034656286239624 13.24176979064941 L 2.034656286239624 20.11529731750488 L 24.44901657104492 20.11529731750488 M 26.48355293273926 22.14983367919922 L 0.000120416545541957 22.14983367919922 L 0.000120416545541957 13.24176979064941 C 0.000120416545541957 11.41347217559814 0.3706526458263397 9.671717643737793 1.040719628334045 8.087501525878906 C 1.710786819458008 6.503285884857178 2.680388689041138 5.07660961151123 3.878528118133545 3.878470897674561 C 5.076667308807373 2.680331945419312 6.503344058990479 1.71073043346405 8.08756160736084 1.040663480758667 C 9.671778678894043 0.3705966770648956 11.41353607177734 6.444787140935659e-05 13.24183654785156 6.444787140935659e-05 C 15.07013607025146 6.444787140935659e-05 16.81189346313477 0.3705966770648956 18.39611053466797 1.040663599967957 C 19.98032569885254 1.71073055267334 21.40700340270996 2.680331945419312 22.60514259338379 3.878470897674561 C 23.80328369140625 5.07660961151123 24.77288627624512 6.503285884857178 25.44295310974121 8.087501525878906 C 26.1130199432373 9.671717643737793 26.48355293273926 11.41347217559814 26.48355293273926 13.24176979064941 L 26.48355293273926 22.14983367919922 Z" stroke="none" fill="#fff"/>
      </g>
      <g id="Ellipse_2-2" data-name="Ellipse 2" transform="translate(5.778 0)" fill="#0c3026">
        <path d="M7.464,0a7.655,7.655,0,0,1,2.905.568,7.494,7.494,0,0,1,2.372,1.548,7.226,7.226,0,0,1,1.6,2.3,7.031,7.031,0,0,1,0,5.623,7.226,7.226,0,0,1-1.6,2.3,7.494,7.494,0,0,1-2.372,1.548,7.718,7.718,0,0,1-5.81,0A7.494,7.494,0,0,1,2.186,12.33a7.226,7.226,0,0,1-1.6-2.3,7.031,7.031,0,0,1,0-5.623,7.226,7.226,0,0,1,1.6-2.3A7.494,7.494,0,0,1,4.558.568,7.655,7.655,0,0,1,7.464,0Z" stroke="none"/>
        <path d="M 7.463634490966797 12.41112613677979 C 8.212020874023438 12.41112613677979 8.925524711608887 12.26566219329834 9.574813842773438 12.00276565551758 C 10.22410297393799 11.73987007141113 10.80917644500732 11.35954189300537 11.30070114135742 10.88981342315674 C 11.79222583770752 10.42008495330811 12.1902027130127 9.860957145690918 12.46529960632324 9.240462303161621 C 12.74039554595947 8.619967460632324 12.89261054992676 7.93810510635376 12.89261054992676 7.222907543182373 C 12.89261054992676 6.507709980010986 12.74039554595947 5.825847148895264 12.46529960632324 5.205351829528809 C 12.1902027130127 4.584856510162354 11.79222583770752 4.025729179382324 11.30070114135742 3.55600118637085 C 10.80917644500732 3.086272954940796 10.22410297393799 2.705944776535034 9.574813842773438 2.443048715591431 C 8.925524711608887 2.180152654647827 8.212020874023438 2.034688234329224 7.463634490966797 2.034688234329224 C 6.715248584747314 2.034688234329224 6.001744270324707 2.180152654647827 5.352455615997314 2.443048715591431 C 4.703166484832764 2.705944776535034 4.11809253692627 3.086272954940796 3.626567363739014 3.55600118637085 C 3.135041952133179 4.025729179382324 2.737064838409424 4.584856510162354 2.461968898773193 5.205351829528809 C 2.186873197555542 5.825847148895264 2.034658670425415 6.507709980010986 2.034658670425415 7.222907543182373 C 2.034658670425415 7.93810510635376 2.186873197555542 8.619967460632324 2.461968898773193 9.240462303161621 C 2.737064838409424 9.860957145690918 3.135041952133179 10.42008495330811 3.626567602157593 10.88981342315674 C 4.118093013763428 11.35954189300537 4.703166484832764 11.73987007141113 5.352455615997314 12.00276565551758 C 6.001744747161865 12.26566219329834 6.715248584747314 12.41112613677979 7.463634490966797 12.41112613677979 M 7.463634490966797 14.44566249847412 C 6.433139801025391 14.44566249847412 5.451422691345215 14.24355411529541 4.55850076675415 13.87806224822998 C 3.665578603744507 13.51257038116455 2.861451625823975 12.98369598388672 2.186136484146118 12.33016395568848 C 1.510821104049683 11.67663288116455 0.9643176794052124 10.89844512939453 0.5866430997848511 10.03432750701904 C 0.2089685946702957 9.170208930969238 0.0001228507608175278 8.220160484313965 0.0001228507608175278 7.222907543182373 C 0.0001228507608175278 6.225654602050781 0.2089685797691345 5.27560567855835 0.5866430997848511 4.411487579345703 C 0.9643176794052124 3.547368764877319 1.510821104049683 2.7691810131073 2.186136484146118 2.115649938583374 C 2.861451625823975 1.462118983268738 3.665578603744507 0.9332445859909058 4.55850076675415 0.5677530169487 C 5.451422691345215 0.2022613137960434 6.433139801025391 0.0001524225517641753 7.463634490966797 0.0001524225517641753 C 8.494129180908203 0.0001524225517641753 9.475846290588379 0.2022613137960434 10.3687686920166 0.5677530169487 C 11.26169013977051 0.9332447052001953 12.06581687927246 1.462119221687317 12.74113273620605 2.115650415420532 C 13.41644859313965 2.769181489944458 13.96295166015625 3.547369241714478 14.34062576293945 4.411487579345703 C 14.71830081939697 5.27560567855835 14.92714595794678 6.225654602050781 14.92714595794678 7.222907543182373 C 14.92714595794678 8.220160484313965 14.71830081939697 9.170208930969238 14.34062576293945 10.03432750701904 C 13.96295166015625 10.89844512939453 13.41644859313965 11.67663288116455 12.74113273620605 12.33016395568848 C 12.06581687927246 12.98369598388672 11.26169013977051 13.51257038116455 10.3687686920166 13.87806224822998 C 9.475846290588379 14.24355411529541 8.494129180908203 14.44566249847412 7.463634490966797 14.44566249847412 Z" stroke="none" fill="#fff"/>
      </g>
    </g>
  </g>
</svg>
