<svg xmlns="http://www.w3.org/2000/svg" xmlns:xlink="http://www.w3.org/1999/xlink" width="613.83" height="331" viewBox="0 0 613.83 331">
  <defs>
    <filter id="Rectangle_110" x="1" y="0" width="202" height="331" filterUnits="userSpaceOnUse">
      <feOffset dx="3" input="SourceAlpha"/>
      <feGaussianBlur stdDeviation="3" result="blur"/>
      <feFlood flood-color="#0c3026" flood-opacity="0.11"/>
      <feComposite operator="in" in2="blur"/>
      <feComposite in="SourceGraphic"/>
    </filter>
  </defs>
  <g id="Group_151" data-name="Group 151" transform="translate(-1257 -49)">
    <g id="Group_140" data-name="Group 140">
      <g transform="matrix(1, 0, 0, 1, 1257, 49)" filter="url(#Rectangle_110)">
        <rect id="Rectangle_110-2" data-name="Rectangle 110" width="184" height="313" transform="translate(7 9)" fill="#dcfce6"/>
      </g>
      <g id="Rectangle_106" data-name="Rectangle 106" transform="translate(1257 50.859)" fill="none" stroke="#0c3026" stroke-width="10">
        <rect width="613.83" height="328.529" rx="23" stroke="none"/>
        <rect x="5" y="5" width="603.83" height="318.529" rx="18" fill="none"/>
      </g>
      <g id="Group_142" data-name="Group 142">
        <g id="Rectangle_111" data-name="Rectangle 111" transform="translate(1306 102)" fill="none" stroke="#0c3026" stroke-width="1">
          <rect width="100" height="31" rx="10" stroke="none"/>
          <rect x="0.5" y="0.5" width="99" height="30" rx="9.5" fill="none"/>
        </g>
        <text id="Text" transform="translate(1356 124)" fill="#0c3026" font-size="16" font-family="SegoeUI, Segoe UI"><tspan x="-13.977" y="0">Text</tspan></text>
      </g>
      <g id="Group_143" data-name="Group 143" transform="translate(0 47)">
        <g id="Rectangle_111-2" data-name="Rectangle 111" transform="translate(1306 102)" fill="none" stroke="#0c3026" stroke-width="1">
          <rect width="100" height="31" rx="10" stroke="none"/>
          <rect x="0.5" y="0.5" width="99" height="30" rx="9.5" fill="none"/>
        </g>
        <text id="Num" transform="translate(1356 124)" fill="#0c3026" font-size="16" font-family="SegoeUI, Segoe UI"><tspan x="-17.402" y="0">Num</tspan></text>
      </g>
      <g id="Group_144" data-name="Group 144" transform="translate(0 94)">
        <g id="Rectangle_111-3" data-name="Rectangle 111" transform="translate(1306 102)" fill="none" stroke="#0c3026" stroke-width="1">
          <rect width="100" height="31" rx="10" stroke="none"/>
          <rect x="0.5" y="0.5" width="99" height="30" rx="9.5" fill="none"/>
        </g>
        <text id="Date" transform="translate(1356 124)" fill="#0c3026" font-size="16" font-family="SegoeUI, Segoe UI"><tspan x="-16.574" y="0">Date</tspan></text>
      </g>
      <g id="Group_145" data-name="Group 145" transform="translate(0 141)">
        <g id="Rectangle_111-4" data-name="Rectangle 111" transform="translate(1306 102)" fill="none" stroke="#0c3026" stroke-width="1">
          <rect width="100" height="31" rx="10" stroke="none"/>
          <rect x="0.5" y="0.5" width="99" height="30" rx="9.5" fill="none"/>
        </g>
        <text id="Year" transform="translate(1356 124)" fill="#0c3026" font-size="16" font-family="SegoeUI, Segoe UI"><tspan x="-14.754" y="0">Year</tspan></text>
      </g>
      <g id="Group_146" data-name="Group 146" transform="translate(0 188)">
        <g id="Rectangle_111-5" data-name="Rectangle 111" transform="translate(1306 102)" fill="none" stroke="#0c3026" stroke-width="1">
          <rect width="100" height="31" rx="10" stroke="none"/>
          <rect x="0.5" y="0.5" width="99" height="30" rx="9.5" fill="none"/>
        </g>
        <text id="Choice" transform="translate(1356 124)" fill="#0c3026" font-size="16" font-family="SegoeUI, Segoe UI"><tspan x="-23.984" y="0">Choice</tspan></text>
      </g>
      <g id="Group_150" data-name="Group 150">
        <g id="Ellipse_15" data-name="Ellipse 15" transform="translate(1796 70)" fill="none" stroke="#0c3026" stroke-width="1">
          <circle cx="6" cy="6" r="6" stroke="none"/>
          <circle cx="6" cy="6" r="5.5" fill="none"/>
        </g>
        <g id="Ellipse_15-2" data-name="Ellipse 15" transform="translate(1816 70)" fill="none" stroke="#0c3026" stroke-width="1">
          <circle cx="6" cy="6" r="6" stroke="none"/>
          <circle cx="6" cy="6" r="5.5" fill="none"/>
        </g>
        <g id="Ellipse_15-3" data-name="Ellipse 15" transform="translate(1836 70)" fill="#0c3026" stroke="#0c3026" stroke-width="1">
          <circle cx="6" cy="6" r="6" stroke="none"/>
          <circle cx="6" cy="6" r="5.5" fill="none"/>
        </g>
      </g>
    </g>
    <g id="Group_147" data-name="Group 147" transform="translate(229 1.876)">
      <g id="Rectangle_108" data-name="Rectangle 108" transform="translate(1330 154.478)" fill="none" stroke="#0c3026" stroke-width="1">
        <rect width="178" height="30" rx="10" stroke="none"/>
        <rect x="0.5" y="0.5" width="177" height="29" rx="9.5" fill="none"/>
      </g>
      <text id="Q1" transform="translate(1419 137)" fill="#0c3026" font-size="20" font-family="SegoeUI-Semibold, Segoe UI" font-weight="600"><tspan x="-11.582" y="0">Q1</tspan></text>
    </g>
    <g id="Group_148" data-name="Group 148" transform="translate(229 113.14)">
      <g id="No">
        <g id="Rectangle_109" data-name="Rectangle 109" transform="translate(1427 163.737)" fill="none" stroke="#0c3026" stroke-width="1">
          <rect width="71" height="30" rx="10" stroke="none"/>
          <rect x="0.5" y="0.5" width="70" height="29" rx="9.5" fill="none"/>
        </g>
        <text id="No-2" data-name="No" transform="translate(1463 185.737)" fill="#0c3026" font-size="16" font-family="SegoeUI, Segoe UI"><tspan x="-10.672" y="0">No</tspan></text>
      </g>
      <g id="Yes">
        <g id="Rectangle_108-2" data-name="Rectangle 108" transform="translate(1340 163.737)" fill="none" stroke="#0c3026" stroke-width="1">
          <rect width="71" height="30" rx="10" stroke="none"/>
          <rect x="0.5" y="0.5" width="70" height="29" rx="9.5" fill="none"/>
        </g>
        <text id="Yes-2" data-name="Yes" transform="translate(1376 185.737)" fill="#0c3026" font-size="16" font-family="SegoeUI, Segoe UI"><tspan x="-11.297" y="0">Yes</tspan></text>
      </g>
      <text id="Q2" transform="translate(1419 137)" fill="#0c3026" font-size="20" font-family="SegoeUI-Semibold, Segoe UI" font-weight="600"><tspan x="-13.11" y="0">Q2</tspan></text>
    </g>
  </g>
</svg>
