<svg width="3000" height="3000" viewBox="0 0 3000 3000" fill="none" xmlns="http://www.w3.org/2000/svg">
<g clip-path="url(#clip0_611_18)">
<path d="M2509.99 609.6C2459.79 606.895 2408.42 617.664 2361.72 639.937L2463.9 871.672L2593.97 627.874C2567.09 617.117 2538.74 611.15 2509.99 609.6Z" fill="#83D2B0"/>
<path d="M2463.96 872.633C2464.13 872.622 2464.28 872.57 2464.42 872.481C2464.56 872.393 2464.67 872.27 2464.75 872.126L2594.81 628.33C2594.88 628.21 2594.92 628.078 2594.93 627.943C2594.94 627.808 2594.92 627.673 2594.87 627.545C2594.82 627.418 2594.75 627.302 2594.66 627.205C2594.56 627.107 2594.45 627.031 2594.32 626.981C2567.89 616.401 2539.53 610.23 2510.04 608.64C2460.12 605.948 2408.69 616.471 2361.31 639.07C2361.08 639.177 2360.91 639.369 2360.82 639.604C2360.74 639.839 2360.74 640.099 2360.84 640.328L2463.02 872.062C2463.1 872.242 2463.23 872.394 2463.4 872.496C2463.57 872.598 2463.77 872.646 2463.96 872.633ZM2592.61 628.372L2463.98 869.477L2362.98 640.407C2409.83 618.223 2460.63 607.906 2509.94 610.562C2538.85 612.121 2566.66 618.112 2592.61 628.372Z" fill="#111111"/>
<path d="M2463.9 871.673L2482.79 901.923L2612.86 658.125L2593.97 627.875L2463.9 871.673Z" fill="#111111"/>
<path d="M2482.86 902.885C2483.02 902.874 2483.18 902.822 2483.31 902.733C2483.45 902.644 2483.56 902.522 2483.64 902.378L2613.71 658.58C2613.79 658.431 2613.83 658.263 2613.82 658.094C2613.82 657.924 2613.76 657.76 2613.68 657.616L2594.78 627.366C2594.6 627.075 2594.28 626.903 2593.93 626.914C2593.76 626.916 2593.6 626.965 2593.46 627.054C2593.31 627.144 2593.2 627.271 2593.12 627.422L2463.05 871.219C2462.97 871.369 2462.93 871.537 2462.94 871.706C2462.94 871.875 2462.99 872.04 2463.08 872.184L2481.98 902.434C2482.07 902.577 2482.19 902.694 2482.34 902.773C2482.49 902.853 2482.66 902.891 2482.83 902.886L2482.86 902.885ZM2611.75 658.164L2482.73 900.005L2465.01 871.637L2594.03 629.796L2611.75 658.164Z" fill="#111111"/>
<path d="M2361.72 639.938C2312.55 663.407 2268.56 699.638 2236.65 746.439C2171.16 842.557 2173.58 958.28 2233.01 1038.56L2463.9 871.672L2361.72 639.938Z" fill="#18644B"/>
<path d="M2233.07 1039.52C2233.25 1039.51 2233.43 1039.45 2233.57 1039.34L2464.46 872.454C2464.64 872.325 2464.77 872.138 2464.83 871.925C2464.88 871.713 2464.87 871.487 2464.78 871.285L2362.6 639.551C2362.55 639.433 2362.47 639.326 2362.38 639.238C2362.29 639.15 2362.18 639.081 2362.06 639.036C2361.94 638.991 2361.81 638.971 2361.68 638.977C2361.55 638.983 2361.43 639.015 2361.31 639.071C2310.28 663.429 2266.9 700.369 2235.86 745.897C2204.07 792.551 2187.18 845.298 2187.02 898.437C2186.87 950.316 2202.5 998.969 2232.24 1039.14C2232.33 1039.26 2232.46 1039.37 2232.61 1039.43C2232.75 1039.5 2232.91 1039.53 2233.07 1039.52ZM2462.71 871.349L2233.22 1037.22C2204.1 997.542 2188.79 949.575 2188.94 898.443C2189.1 845.692 2205.87 793.317 2237.44 746.983C2268.11 702 2310.9 665.452 2361.24 641.235L2462.71 871.349Z" fill="#111111"/>
<path d="M2223.06 1023.94L2241.95 1054.19C2245.07 1059.19 2248.4 1064.07 2251.9 1068.81L2233.01 1038.56C2229.5 1033.82 2226.18 1028.94 2223.06 1023.94Z" fill="white"/>
<path d="M2251.97 1069.77C2252.14 1069.76 2252.3 1069.71 2252.43 1069.61C2252.57 1069.52 2252.68 1069.4 2252.76 1069.25C2252.84 1069.1 2252.87 1068.94 2252.86 1068.77C2252.86 1068.6 2252.81 1068.44 2252.72 1068.3L2233.82 1038.05C2230.32 1033.31 2227 1028.44 2223.88 1023.44L2223.87 1023.43C2223.81 1023.32 2223.72 1023.22 2223.62 1023.15C2223.51 1023.07 2223.4 1023.02 2223.27 1022.99C2223.15 1022.96 2223.02 1022.95 2222.89 1022.97C2222.76 1022.99 2222.64 1023.04 2222.53 1023.1C2222.43 1023.17 2222.33 1023.26 2222.26 1023.37C2222.18 1023.47 2222.13 1023.59 2222.1 1023.72C2222.08 1023.84 2222.08 1023.97 2222.1 1024.1C2222.12 1024.22 2222.17 1024.34 2222.24 1024.45L2222.26 1024.49L2241.14 1054.7C2244.28 1059.72 2247.61 1064.62 2251.13 1069.38C2251.23 1069.51 2251.36 1069.62 2251.5 1069.68C2251.65 1069.75 2251.81 1069.78 2251.97 1069.77Z" fill="#111111"/>
<path d="M2463.9 871.672L2233.01 1038.56C2251.9 1064.03 2276.51 1086 2306.54 1102.59C2340.73 1121.41 2378.9 1131.65 2418.11 1133.76C2449.38 1135.45 2481.3 1131.97 2512.41 1123.56L2463.9 871.672Z" fill="#83D2B0"/>
<path d="M2453.15 1134.49C2473.02 1133.16 2492.93 1129.82 2512.66 1124.49C2512.89 1124.42 2513.1 1124.27 2513.22 1124.07C2513.35 1123.86 2513.4 1123.61 2513.35 1123.38L2464.84 871.492C2464.81 871.333 2464.74 871.184 2464.64 871.059C2464.54 870.934 2464.4 870.837 2464.25 870.778C2464.1 870.718 2463.94 870.697 2463.78 870.718C2463.62 870.738 2463.47 870.799 2463.34 870.894L2232.45 1037.78C2232.34 1037.86 2232.26 1037.95 2232.19 1038.06C2232.12 1038.17 2232.08 1038.29 2232.06 1038.42C2232.04 1038.54 2232.05 1038.67 2232.08 1038.79C2232.11 1038.92 2232.16 1039.03 2232.24 1039.14C2251.85 1065.57 2276.69 1087.21 2306.08 1103.43C2339.83 1122.01 2377.5 1132.54 2418.06 1134.73C2429.75 1135.35 2441.47 1135.27 2453.15 1134.49ZM2511.3 1122.86C2480.39 1131.12 2449.06 1134.47 2418.16 1132.8C2377.9 1130.63 2340.5 1120.18 2307 1101.74C2278.15 1085.81 2253.72 1064.63 2234.36 1038.77L2463.24 873.336L2511.3 1122.86Z" fill="#111111"/>
<path d="M2463.9 871.672L2512.41 1123.56C2560.99 1110.44 2607.56 1085.29 2646.46 1048.96L2463.9 871.672Z" fill="#18644B"/>
<path d="M2512.47 1124.52C2512.54 1124.51 2512.6 1124.5 2512.66 1124.49C2562.67 1110.99 2609.16 1085.12 2647.12 1049.66C2647.21 1049.58 2647.29 1049.47 2647.34 1049.35C2647.39 1049.23 2647.42 1049.1 2647.42 1048.97C2647.42 1048.84 2647.4 1048.71 2647.35 1048.59C2647.3 1048.47 2647.22 1048.36 2647.13 1048.27L2464.57 870.982C2464.42 870.84 2464.23 870.748 2464.03 870.72C2463.83 870.692 2463.62 870.73 2463.44 870.827C2463.26 870.925 2463.12 871.077 2463.03 871.262C2462.94 871.447 2462.92 871.655 2462.96 871.856L2511.47 1123.74C2511.51 1123.97 2511.64 1124.17 2511.82 1124.32C2512.01 1124.46 2512.24 1124.53 2512.47 1124.52ZM2645.07 1048.94C2607.73 1083.59 2562.16 1108.95 2513.16 1122.36L2465.42 874.49L2645.07 1048.94Z" fill="#111111"/>
<path d="M2306.54 1102.59C2340.73 1121.41 2378.9 1131.65 2418.11 1133.76C2449.38 1135.45 2481.3 1131.97 2512.41 1123.56C2560.99 1110.44 2607.56 1085.29 2646.46 1048.96L2665.36 1079.21C2626.46 1115.54 2579.89 1140.69 2531.3 1153.81C2500.2 1162.22 2468.27 1165.7 2437.01 1164.01C2397.79 1161.9 2359.63 1151.66 2325.44 1132.84C2295.41 1116.25 2270.8 1094.28 2251.9 1068.81L2233.01 1038.56C2251.9 1064.03 2276.51 1086 2306.54 1102.59Z" fill="url(#paint0_linear_611_18)"/>
<path d="M2472.05 1164.74C2491.91 1163.41 2511.82 1160.07 2531.55 1154.74C2581.56 1141.24 2628.06 1115.36 2666.01 1079.91C2666.18 1079.76 2666.28 1079.56 2666.31 1079.34C2666.34 1079.11 2666.29 1078.89 2666.17 1078.7L2647.28 1048.45C2647.2 1048.33 2647.1 1048.23 2646.98 1048.15C2646.86 1048.07 2646.73 1048.03 2646.59 1048.01C2646.45 1047.99 2646.3 1048 2646.17 1048.04C2646.04 1048.09 2645.91 1048.16 2645.81 1048.26C2608.08 1083.49 2561.86 1109.21 2512.16 1122.63C2480.97 1131.06 2449.35 1134.48 2418.16 1132.8C2377.9 1130.63 2340.5 1120.18 2307 1101.74C2277.86 1085.65 2253.23 1064.2 2233.78 1037.99C2233.63 1037.79 2233.42 1037.65 2233.17 1037.61C2232.93 1037.57 2232.68 1037.62 2232.47 1037.76C2232.27 1037.9 2232.12 1038.12 2232.07 1038.36C2232.02 1038.6 2232.07 1038.86 2232.2 1039.07L2251.09 1069.32C2270.74 1095.82 2295.59 1117.45 2324.97 1133.68C2358.72 1152.26 2396.4 1162.79 2436.95 1164.97C2448.65 1165.6 2460.36 1165.52 2472.05 1164.74ZM2664.12 1079.05C2626.5 1114.01 2580.51 1139.53 2531.05 1152.88C2499.87 1161.31 2468.24 1164.73 2437.06 1163.05C2396.79 1160.88 2359.39 1150.43 2325.9 1131.99C2296.76 1115.9 2272.12 1094.45 2252.68 1068.24L2242.58 1052.07C2260.34 1072.7 2281.64 1089.93 2306.08 1103.43L2306.08 1103.43C2339.83 1122.01 2377.5 1132.54 2418.06 1134.72C2449.45 1136.41 2481.28 1132.97 2512.66 1124.48C2562.29 1111.09 2608.47 1085.5 2646.27 1050.46L2664.12 1079.05Z" fill="#111111"/>
</g>
<g clip-path="url(#clip1_611_18)">
<path d="M2235.69 1974.58L1960.75 2314.08L2302.19 2538.02L2577.14 2198.52L2235.69 1974.58Z" fill="#111111"/>
<path d="M2301.67 2539.1C2301.91 2539.22 2302.19 2539.26 2302.45 2539.2C2302.72 2539.14 2302.95 2538.99 2303.13 2538.78L2578.07 2199.28C2578.17 2199.15 2578.25 2199 2578.29 2198.84C2578.34 2198.67 2578.35 2198.5 2578.32 2198.34C2578.29 2198.17 2578.23 2198.01 2578.14 2197.87C2578.05 2197.73 2577.93 2197.61 2577.79 2197.52L2236.35 1973.58C2236.1 1973.41 2235.8 1973.35 2235.5 1973.4C2235.21 1973.44 2234.94 1973.59 2234.76 1973.83L1959.82 2313.33C1959.71 2313.46 1959.63 2313.61 1959.59 2313.77C1959.55 2313.93 1959.54 2314.1 1959.56 2314.27C1959.59 2314.43 1959.65 2314.59 1959.74 2314.73C1959.83 2314.87 1959.95 2314.99 1960.09 2315.09L2301.54 2539.03C2301.58 2539.06 2301.62 2539.08 2301.67 2539.1ZM2575.37 2198.8L2301.95 2536.42L1962.51 2313.8L2235.94 1976.18L2575.37 2198.8Z" fill="#111111"/>
<path d="M1960.75 2314.08L1974.53 2343.39L2315.98 2567.34L2302.19 2538.02L1960.75 2314.08Z" fill="#83D2B0"/>
<path d="M2315.45 2568.42C2315.67 2568.52 2315.92 2568.56 2316.17 2568.52C2316.41 2568.48 2316.64 2568.37 2316.82 2568.19C2316.99 2568.02 2317.11 2567.79 2317.16 2567.55C2317.2 2567.3 2317.17 2567.05 2317.06 2566.82L2303.28 2537.51C2303.19 2537.31 2303.04 2537.14 2302.85 2537.02L1961.4 2313.08C1961.19 2312.93 1960.93 2312.86 1960.67 2312.88C1960.41 2312.9 1960.16 2313 1959.96 2313.18C1959.76 2313.35 1959.63 2313.58 1959.57 2313.84C1959.52 2314.09 1959.55 2314.36 1959.66 2314.6L1973.44 2343.91C1973.54 2344.11 1973.68 2344.28 1973.87 2344.4L2315.32 2568.34C2315.36 2568.37 2315.4 2568.39 2315.45 2568.42ZM2301.25 2538.84L2313.08 2564L1975.47 2342.58L1963.64 2317.42L2301.25 2538.84Z" fill="#111111"/>
<path d="M2302.19 2538.02L2315.98 2567.34L2590.92 2227.84L2577.14 2198.52L2302.19 2538.02Z" fill="#18644B"/>
<path d="M2315.45 2568.42C2315.69 2568.54 2315.97 2568.57 2316.23 2568.51C2316.5 2568.45 2316.74 2568.3 2316.91 2568.09L2591.85 2228.59C2591.99 2228.42 2592.08 2228.21 2592.11 2227.98C2592.14 2227.76 2592.1 2227.53 2592 2227.32L2578.22 2198.01C2578.13 2197.83 2578 2197.67 2577.84 2197.55C2577.67 2197.43 2577.48 2197.35 2577.28 2197.33C2577.08 2197.31 2576.87 2197.33 2576.69 2197.41C2576.5 2197.49 2576.33 2197.61 2576.2 2197.77L2301.26 2537.27C2301.12 2537.44 2301.03 2537.66 2301 2537.88C2300.98 2538.11 2301.01 2538.33 2301.11 2538.54L2314.89 2567.85C2315.01 2568.1 2315.21 2568.3 2315.45 2568.42ZM2589.51 2227.67L2316.25 2565.1L2303.6 2538.19L2576.86 2200.77L2589.51 2227.67Z" fill="#111111"/>
<path d="M2577.14 2198.52L2235.69 1974.58C2095.66 2144.04 2031.79 2221.34 1956.11 2293.03L2297.56 2516.97C2373.23 2445.29 2437.11 2367.99 2577.14 2198.52Z" fill="white"/>
<path d="M2297.03 2518.05C2297.25 2518.16 2297.49 2518.19 2297.74 2518.16C2297.98 2518.12 2298.2 2518.01 2298.38 2517.84C2374.12 2446.1 2438.03 2368.76 2578.06 2199.29C2578.17 2199.16 2578.25 2199.01 2578.29 2198.84C2578.34 2198.68 2578.35 2198.51 2578.32 2198.34C2578.3 2198.18 2578.24 2198.02 2578.15 2197.87C2578.06 2197.73 2577.94 2197.61 2577.79 2197.52L2236.35 1973.58C2236.1 1973.42 2235.8 1973.35 2235.51 1973.4C2235.22 1973.44 2234.95 1973.59 2234.76 1973.82C2094.79 2143.21 2030.91 2220.52 1955.28 2292.16C1955.15 2292.28 1955.05 2292.43 1954.99 2292.6C1954.92 2292.77 1954.9 2292.96 1954.91 2293.14C1954.93 2293.32 1954.99 2293.49 1955.08 2293.65C1955.17 2293.8 1955.3 2293.93 1955.45 2294.03L2296.9 2517.98C2296.94 2518 2296.98 2518.03 2297.03 2518.05ZM2575.36 2198.79C2436.4 2366.96 2372.6 2444.13 2297.42 2515.45L1958.03 2292.85C2033.16 2221.53 2097.06 2144.24 2235.93 1976.18L2575.36 2198.79Z" fill="#111111"/>
</g>
<g clip-path="url(#clip2_611_18)">
<path d="M2373.69 968.686C2415.41 988.454 2436.45 1046.1 2420.66 1097.45L2154.24 1963.82C2138.44 2015.18 2091.81 2040.75 2050.1 2020.98L918.327 1484.64C876.613 1464.87 855.568 1407.23 871.362 1355.87L1137.78 489.499C1153.57 438.143 1200.21 412.573 1241.92 432.342L2373.69 968.686Z" fill="#18644B"/>
<path d="M2083.95 2028.67C2072.35 2029.5 2060.62 2027.3 2049.58 2022.07L917.813 1485.72C875.636 1465.73 854.283 1407.33 870.214 1355.52L1136.63 489.147C1145.08 461.682 1162.83 440.25 1185.33 430.346C1203.78 422.225 1224.06 422.55 1242.44 431.258L2374.21 967.602C2416.38 987.59 2437.74 1046 2421.81 1097.8L2155.39 1964.18C2146.94 1991.64 2129.19 2013.07 2106.69 2022.98C2099.32 2026.22 2091.66 2028.12 2083.95 2028.67ZM1208.24 427.05C1200.79 427.584 1193.41 429.412 1186.3 432.541C1164.44 442.163 1147.17 463.052 1138.93 489.851L872.51 1356.22C856.915 1406.94 877.7 1464.06 918.843 1483.55L2050.61 2019.9C2068.35 2028.3 2087.92 2028.62 2105.72 2020.78C2127.58 2011.16 2144.85 1990.27 2153.09 1963.47L2419.51 1097.1C2435.11 1046.39 2414.32 989.266 2373.18 969.769L1241.41 433.426C1230.75 428.377 1219.43 426.247 1208.24 427.05Z" fill="#111111"/>
<path d="M2354.4 1001.13L1238.91 472.496C1208.4 458.039 1174.34 476.754 1162.81 514.261L903.314 1358.12C891.781 1395.63 907.134 1437.72 937.64 1452.18L2053.13 1980.81C2083.62 1995.26 2117.66 1976.57 2129.2 1939.06L2388.69 1095.21C2400.23 1057.7 2384.88 1015.57 2354.4 1001.13Z" fill="white"/>
<path d="M2077.89 1986.75C2069.36 1987.36 2060.74 1985.74 2052.62 1981.89L937.127 1453.26C906.169 1438.59 890.486 1395.75 902.168 1357.77L1161.66 513.908C1167.86 493.746 1180.9 478.012 1197.43 470.737C1210.99 464.766 1225.9 465.006 1239.42 471.412L2354.92 1000.04C2385.86 1014.71 2401.53 1057.55 2389.84 1095.56L2130.35 1939.41C2124.15 1959.57 2111.12 1975.3 2094.6 1982.57C2089.19 1984.95 2083.56 1986.34 2077.89 1986.75ZM1214.31 468.95C1208.91 469.337 1203.55 470.663 1198.39 472.933C1182.51 479.926 1169.95 495.118 1163.96 514.614L904.462 1358.47C893.117 1395.37 908.232 1436.92 938.156 1451.1L2053.65 1979.73C2066.52 1985.83 2080.72 1986.06 2093.63 1980.37C2109.51 1973.38 2122.06 1958.2 2128.05 1938.71L2387.55 1094.85C2398.9 1057.95 2383.8 1016.39 2353.89 1002.21L1238.39 473.58C1230.66 469.913 1222.44 468.367 1214.31 468.95Z" fill="#111111"/>
<path d="M1788.56 763.068C1781.52 759.73 1773.65 764.052 1770.98 772.719C1768.32 781.386 1771.86 791.147 1778.9 794.486C1785.95 797.824 1793.85 793.486 1796.52 784.819C1799.18 776.152 1795.61 766.406 1788.56 763.068Z" fill="#111111"/>
<path d="M1784.68 796.776C1782.56 796.928 1780.41 796.526 1778.39 795.568C1770.84 791.99 1767 781.581 1769.84 772.364C1771.35 767.451 1774.55 763.606 1778.61 761.817C1781.99 760.327 1785.71 760.387 1789.08 761.982C1796.64 765.567 1800.49 775.968 1797.66 785.168C1796.15 790.083 1792.95 793.931 1788.87 795.725C1787.54 796.315 1786.13 796.67 1784.68 796.776ZM1782.95 763.17C1781.8 763.252 1780.67 763.533 1779.58 764.013C1776.15 765.521 1773.44 768.822 1772.13 773.069C1769.63 781.192 1772.9 790.312 1779.42 793.4C1782.14 794.693 1785.16 794.74 1787.9 793.531C1791.34 792.019 1794.06 788.714 1795.37 784.464C1797.86 776.357 1794.58 767.244 1788.05 764.15C1786.46 763.388 1784.7 763.05 1782.95 763.17Z" fill="#111111"/>
<path d="M2373.69 968.685C2415.41 988.454 2436.45 1046.1 2420.66 1097.45L2154.24 1963.82C2142.18 2003.02 2112.16 2027.2 2080.08 2027.66L2100.53 2027.37C2132.62 2026.91 2162.64 2002.73 2174.69 1963.53L2441.11 1097.16C2456.91 1045.8 2435.86 988.162 2394.15 968.393L1262.38 432.048C1252.5 427.368 1242.35 425.23 1232.4 425.371L1211.94 425.664C1221.9 425.521 1232.05 427.661 1241.92 432.341L2373.69 968.685Z" fill="url(#paint1_linear_611_18)"/>
<path d="M2104.47 2028.4C2103.17 2028.49 2101.86 2028.55 2100.55 2028.56L2080.09 2028.86C2079.94 2028.86 2079.78 2028.83 2079.63 2028.77C2079.49 2028.71 2079.35 2028.63 2079.24 2028.52C2079.13 2028.41 2079.04 2028.28 2078.97 2028.13C2078.91 2027.99 2078.88 2027.83 2078.88 2027.67C2078.87 2027.36 2079 2027.05 2079.22 2026.83C2079.44 2026.6 2079.74 2026.47 2080.06 2026.46C2112.8 2026 2141.47 2001.26 2153.09 1963.47L2419.51 1097.1C2435.11 1046.39 2414.32 989.266 2373.18 969.769L1241.41 433.426C1231.92 428.929 1222.01 426.721 1211.96 426.865C1211.8 426.867 1211.65 426.838 1211.5 426.78C1211.35 426.722 1211.22 426.635 1211.11 426.525C1210.99 426.416 1210.9 426.285 1210.84 426.14C1210.78 425.995 1210.75 425.84 1210.74 425.682C1210.74 425.525 1210.77 425.368 1210.83 425.222C1210.89 425.076 1210.97 424.942 1211.08 424.829C1211.19 424.716 1211.32 424.626 1211.47 424.564C1211.61 424.501 1211.77 424.468 1211.93 424.466L1232.38 424.173C1242.8 424.023 1253.07 426.309 1262.89 430.965L2394.66 967.309C2436.84 987.296 2458.19 1045.7 2442.26 1097.51L2175.84 1963.88C2164.37 2001.18 2136.62 2026.09 2104.47 2028.4ZM2098 2026.2L2100.52 2026.17C2133.28 2025.71 2161.92 2000.97 2173.55 1963.18L2439.97 1096.81C2455.56 1046.09 2434.78 988.974 2393.63 969.476L1261.86 433.133C1252.37 428.636 1242.47 426.428 1232.42 426.572L1229.69 426.611C1234.08 427.755 1238.34 429.311 1242.44 431.258L2374.21 967.602C2416.38 987.59 2437.74 1046 2421.81 1097.8L2155.38 1964.18C2145.62 1995.94 2124.04 2018.72 2098 2026.2Z" fill="#111111"/>
<path d="M2065.33 2019.76C2107.07 2039.54 2112.3 2066.7 2077.02 2080.44L1481.85 2312.21C1446.57 2325.95 1384.17 2321.05 1342.43 2301.27L210.689 1764.94C168.95 1745.16 163.719 1718 198.998 1704.27L794.174 1472.5C829.454 1458.76 891.851 1463.65 933.59 1483.43L2065.33 2019.76Z" fill="#18644B"/>
<path d="M1446.16 2320.67C1412.45 2323.09 1371.83 2316.53 1341.92 2302.35L210.175 1766.02C186.986 1755.03 173.956 1741.2 174.426 1728.08C174.789 1717.92 183.361 1709.07 198.563 1703.15L793.739 1471.38C829.219 1457.56 892.187 1462.48 934.104 1482.35L2065.85 2018.68C2089.04 2029.67 2102.07 2043.5 2101.6 2056.62C2101.24 2066.78 2092.66 2075.63 2077.46 2081.55L1482.29 2313.32C1472.12 2317.28 1459.69 2319.7 1446.16 2320.67ZM830.122 1466.39C816.808 1467.35 804.6 1469.72 794.61 1473.61L199.434 1705.38C185.181 1710.93 177.151 1719.02 176.825 1728.16C176.391 1740.29 188.922 1753.3 211.203 1763.86L1342.95 2300.19C1384.35 2319.81 1446.47 2324.7 1481.41 2311.09L2076.59 2079.32C2090.84 2073.77 2098.87 2065.68 2099.2 2056.54C2099.63 2044.42 2087.1 2031.41 2064.82 2020.85L933.074 1484.52C903.509 1470.5 863.377 1464 830.122 1466.39Z" fill="#111111"/>
<path d="M1923.99 2004.17L955.887 1545.39C943.037 1539.3 923.805 1537.79 912.943 1542.02L600.511 1663.69C589.65 1667.92 591.282 1676.28 604.132 1682.37L1572.23 2141.15C1585.08 2147.24 1604.27 2148.75 1615.13 2144.52L1927.56 2022.85C1938.42 2018.62 1936.83 2010.26 1923.99 2004.17Z" fill="white"/>
<path d="M1604.23 2147.94C1593.7 2148.7 1581.04 2146.65 1571.72 2142.24L603.616 1683.46C596.155 1679.92 591.966 1675.38 592.124 1670.99C592.249 1667.51 595.072 1664.52 600.074 1662.57L912.506 1540.91C923.618 1536.58 943.309 1538.11 956.4 1544.31L1924.5 2003.09C1931.94 2006.62 1936.12 2011.16 1935.97 2015.54C1935.84 2019.03 1933.01 2022.02 1928 2023.97L1615.57 2145.64C1612.38 2146.88 1608.48 2147.64 1604.23 2147.94ZM924.103 1540.96C920.081 1541.25 916.393 1541.97 913.377 1543.14L600.945 1664.81C596.891 1666.39 594.611 1668.61 594.522 1671.07C594.403 1674.41 598.187 1678.23 604.644 1681.29L1572.74 2140.07C1585.31 2146.02 1604.12 2147.52 1614.69 2143.4L1927.13 2021.73C1931.19 2020.15 1933.48 2017.92 1933.57 2015.46C1933.69 2012.12 1929.91 2008.31 1923.47 2005.26L955.371 1546.48C946.382 1542.22 934.19 1540.24 924.103 1540.96Z" fill="#111111"/>
<path d="M1234.68 2003.5L889.965 1840.14C875.116 1833.11 852.898 1831.36 840.326 1836.26L659.581 1906.64C647.03 1911.53 648.894 1921.2 663.741 1928.24L1008.45 2091.6C1023.3 2098.63 1045.52 2100.38 1058.07 2095.49L1238.82 2025.1C1251.39 2020.21 1249.53 2010.54 1234.68 2003.5Z" fill="white"/>
<path d="M1045.45 2099.26C1033.31 2100.13 1018.69 2097.77 1007.94 2092.68L663.227 1929.32C654.685 1925.27 649.888 1920.08 650.067 1915.09C650.208 1911.15 653.431 1907.75 659.145 1905.52L839.891 1835.14C852.701 1830.15 875.395 1831.91 890.48 1839.06L1235.19 2002.42C1243.73 2006.46 1248.53 2011.65 1248.35 2016.64C1248.21 2020.59 1244.98 2023.99 1239.25 2026.22L1058.51 2096.6C1054.83 2098.04 1050.34 2098.91 1045.45 2099.26ZM853.224 1834.84C848.551 1835.18 844.268 1836.01 840.763 1837.38L660.017 1907.76C655.253 1909.62 652.571 1912.25 652.467 1915.18C652.326 1919.11 656.733 1923.59 664.257 1927.15L1008.97 2090.51C1023.54 2097.42 1045.37 2099.15 1057.64 2094.37L1238.38 2023.99C1243.16 2022.13 1245.85 2019.49 1245.95 2016.56C1246.09 2012.63 1241.69 2008.15 1234.16 2004.58L889.452 1841.23C879.042 1836.29 864.917 1834 853.224 1834.84Z" fill="#111111"/>
<path d="M2077.03 2080.44L1481.85 2312.21C1446.57 2325.95 1384.17 2321.05 1342.43 2301.27L210.689 1764.94C185.943 1753.21 174.029 1738.89 175.782 1726.31L171.414 1757.66C169.661 1770.24 181.574 1784.56 206.321 1796.29L1338.07 2332.62C1379.8 2352.4 1442.2 2357.29 1477.48 2343.56L2072.66 2111.79C2087.02 2106.19 2094.67 2098.38 2095.87 2089.74L2100.24 2058.39C2099.04 2067.03 2091.39 2074.84 2077.03 2080.44Z" fill="url(#paint2_linear_611_18)"/>
<path d="M1441.79 2352.02C1408.08 2354.44 1367.46 2347.87 1337.55 2333.7L205.806 1797.37C181.282 1785.75 168.313 1771.22 170.225 1757.5L174.593 1726.15C174.639 1725.83 174.807 1725.55 175.061 1725.36C175.314 1725.17 175.633 1725.09 175.947 1725.13C176.261 1725.18 176.545 1725.34 176.737 1725.6C176.928 1725.85 177.013 1726.17 176.971 1726.48C175.24 1738.9 188.037 1752.88 211.203 1763.85L1342.95 2300.19C1384.35 2319.81 1446.47 2324.7 1481.41 2311.09L2076.59 2079.32C2090.09 2074.06 2097.86 2066.77 2099.05 2058.22C2099.07 2058.07 2099.12 2057.92 2099.2 2057.78C2099.28 2057.64 2099.39 2057.53 2099.52 2057.43C2099.64 2057.34 2099.79 2057.27 2099.94 2057.23C2100.09 2057.19 2100.25 2057.18 2100.41 2057.2C2100.56 2057.22 2100.71 2057.27 2100.85 2057.35C2100.98 2057.43 2101.1 2057.54 2101.2 2057.66C2101.29 2057.79 2101.36 2057.93 2101.4 2058.08C2101.44 2058.24 2101.45 2058.4 2101.43 2058.55C2101.43 2058.58 2101.42 2058.6 2101.42 2058.63L2097.06 2089.9C2095.74 2099.35 2087.46 2107.31 2073.09 2112.9L1477.92 2344.67C1467.75 2348.63 1455.33 2351.05 1441.79 2352.02ZM175.66 1735.89L172.603 1757.83C170.871 1770.25 183.668 1784.22 206.835 1795.2L1338.58 2331.53C1379.98 2351.15 1442.1 2356.04 1477.05 2342.44L2072.22 2110.67C2085.73 2105.41 2093.49 2098.11 2094.68 2089.57L2097.75 2067.58C2093.83 2073.11 2086.98 2077.85 2077.46 2081.55L1482.29 2313.32C1446.81 2327.14 1383.84 2322.22 1341.92 2302.35L210.174 1766.02C191.401 1757.13 179.399 1746.52 175.66 1735.89Z" fill="#111111"/>
</g>
<g clip-path="url(#clip3_611_18)">
<path d="M1114.62 1072.81L1063.91 1048.58L1044.52 1111.07L1095.23 1135.3L1114.62 1072.81Z" fill="#83D2B0"/>
<path d="M1095.23 1136.5C1095.06 1136.5 1094.88 1136.46 1094.72 1136.38L1044.01 1112.15C1043.75 1112.03 1043.54 1111.81 1043.43 1111.55C1043.31 1111.29 1043.29 1110.99 1043.38 1110.71L1062.76 1048.23C1062.81 1048.06 1062.9 1047.91 1063.01 1047.78C1063.13 1047.66 1063.27 1047.55 1063.43 1047.48C1063.59 1047.42 1063.76 1047.38 1063.93 1047.38C1064.1 1047.39 1064.27 1047.43 1064.43 1047.5L1115.13 1071.73C1115.39 1071.86 1115.6 1072.07 1115.72 1072.33C1115.83 1072.6 1115.85 1072.9 1115.76 1073.17L1096.38 1135.66C1096.3 1135.9 1096.15 1136.11 1095.95 1136.27C1095.74 1136.42 1095.49 1136.5 1095.23 1136.5ZM1045.98 1110.43L1094.5 1133.62L1113.16 1073.45L1064.64 1050.27L1045.98 1110.43Z" fill="#111111"/>
<path d="M1073.56 1205.19L1022.85 1180.96L1003.46 1243.44L1054.17 1267.67L1073.56 1205.19Z" fill="#18644B"/>
<path d="M1054.17 1268.87C1053.99 1268.87 1053.82 1268.83 1053.66 1268.76L1002.95 1244.52C1002.69 1244.4 1002.48 1244.19 1002.36 1243.92C1002.25 1243.66 1002.23 1243.36 1002.32 1243.09L1021.7 1180.6C1021.75 1180.44 1021.84 1180.28 1021.95 1180.16C1022.07 1180.03 1022.21 1179.93 1022.37 1179.86C1022.52 1179.79 1022.69 1179.75 1022.87 1179.76C1023.04 1179.76 1023.21 1179.8 1023.36 1179.87L1074.07 1204.1C1074.33 1204.23 1074.54 1204.44 1074.65 1204.71C1074.77 1204.97 1074.79 1205.27 1074.7 1205.54L1055.32 1268.03C1055.24 1268.27 1055.09 1268.49 1054.88 1268.64C1054.68 1268.79 1054.43 1268.87 1054.17 1268.87ZM1004.92 1242.8L1053.44 1265.99L1072.1 1205.82L1023.58 1182.64L1004.92 1242.8Z" fill="#111111"/>
<path d="M1032.49 1337.56L981.783 1313.33L962.4 1375.81L1013.11 1400.04L1032.49 1337.56Z" fill="white"/>
<path d="M1013.11 1401.24C1012.93 1401.24 1012.75 1401.2 1012.59 1401.12L961.883 1376.89C961.623 1376.77 961.417 1376.56 961.301 1376.29C961.186 1376.03 961.169 1375.73 961.254 1375.46L980.637 1312.97C980.688 1312.81 980.774 1312.65 980.889 1312.53C981.004 1312.4 981.145 1312.3 981.303 1312.23C981.461 1312.16 981.631 1312.12 981.804 1312.13C981.976 1312.13 982.145 1312.17 982.301 1312.24L1033.01 1336.48C1033.27 1336.6 1033.48 1336.81 1033.59 1337.08C1033.71 1337.34 1033.73 1337.64 1033.64 1337.91L1014.26 1400.4C1014.18 1400.64 1014.03 1400.86 1013.82 1401.01C1013.62 1401.16 1013.37 1401.24 1013.11 1401.24ZM963.854 1375.18L1012.38 1398.36L1031.04 1338.19L982.518 1315.01L963.854 1375.18Z" fill="#111111"/>
<path d="M1434.78 688.403C1394.59 669.199 1352.16 670.427 1314.95 687.934L1332.56 744.404C1358.87 732.039 1388.87 731.183 1417.3 744.769C1445.7 758.343 1467.49 783.942 1480.32 815.011L1523.9 787.778C1505.76 743.826 1474.95 707.595 1434.78 688.403Z" fill="white"/>
<path d="M1480.32 816.213C1480.09 816.213 1479.85 816.142 1479.66 816.01C1479.46 815.878 1479.31 815.691 1479.22 815.472C1466.01 783.507 1443.84 758.783 1416.78 745.853C1389.77 732.946 1360.04 732.818 1333.08 745.492C1332.92 745.565 1332.75 745.603 1332.58 745.605C1332.41 745.608 1332.24 745.573 1332.08 745.504C1331.93 745.435 1331.78 745.333 1331.67 745.205C1331.56 745.078 1331.47 744.927 1331.42 744.763L1313.81 688.293C1313.72 688.017 1313.74 687.718 1313.86 687.452C1313.97 687.187 1314.18 686.973 1314.44 686.849C1353.39 668.522 1396.31 668.69 1435.3 687.321C1474.21 705.915 1506.07 741.43 1525.01 787.323C1525.12 787.585 1525.13 787.877 1525.04 788.147C1524.96 788.417 1524.78 788.648 1524.54 788.798L1480.96 816.031C1480.77 816.151 1480.55 816.213 1480.32 816.213ZM1374.5 733.674C1389.17 733.674 1403.84 737.012 1417.81 743.687C1445.04 756.696 1467.39 781.365 1480.89 813.246L1522.4 787.301C1503.64 742.412 1472.37 707.698 1434.26 689.486C1396.25 671.323 1354.44 671.01 1316.41 688.579L1333.3 742.742C1346.61 736.696 1360.55 733.674 1374.5 733.674Z" fill="#111111"/>
<path d="M1314.95 687.934C1272.32 707.99 1236.58 749.449 1218.99 806.166C1193.39 888.668 1213.71 979.13 1264.42 1034.75L1296.85 989.656C1260.99 950.342 1246.62 886.343 1264.71 828.015C1277.15 787.92 1302.42 758.595 1332.56 744.405L1314.95 687.934Z" fill="#18644B"/>
<path d="M1264.43 1035.95C1264.09 1035.95 1263.77 1035.81 1263.54 1035.56C1238.16 1007.72 1220.31 971.491 1211.92 930.782C1203.34 889.167 1205.39 845.953 1217.84 805.811C1234.81 751.108 1270.02 707.748 1314.44 686.849C1314.6 686.776 1314.77 686.737 1314.94 686.735C1315.11 686.733 1315.28 686.768 1315.44 686.837C1315.59 686.906 1315.73 687.008 1315.85 687.136C1315.96 687.263 1316.05 687.414 1316.1 687.578L1333.71 744.048C1333.8 744.324 1333.78 744.623 1333.66 744.889C1333.55 745.154 1333.34 745.368 1333.08 745.492C1302.19 760.031 1277.68 790.241 1265.86 828.371C1248.48 884.397 1261.29 948.886 1297.74 988.847C1297.92 989.051 1298.03 989.312 1298.05 989.587C1298.06 989.862 1297.98 990.134 1297.82 990.357L1265.4 1035.45C1265.29 1035.61 1265.14 1035.73 1264.97 1035.82C1264.8 1035.91 1264.62 1035.95 1264.43 1035.95ZM1314.22 689.613C1270.99 710.447 1236.75 752.973 1220.13 806.522C1207.8 846.278 1205.77 889.079 1214.27 930.298C1222.46 970.05 1239.76 1005.47 1264.32 1032.84L1295.31 989.744C1258.81 949.124 1246.05 884.135 1263.56 827.662C1275.47 789.275 1300.06 758.762 1331.11 743.77L1314.22 689.613Z" fill="#111111"/>
<path d="M1523.9 787.781L1480.33 815.014C1495.02 850.633 1497.92 893.42 1485.48 933.515C1462.18 1008.64 1393.86 1045.93 1332.91 1016.8C1319.28 1010.29 1307.17 1000.97 1296.85 989.658L1264.42 1034.75C1279.04 1050.77 1296.15 1063.92 1315.44 1073.14C1401.65 1114.34 1498.25 1061.6 1531.21 955.365C1548.8 898.645 1544.69 838.141 1523.9 787.781Z" fill="#83D2B0"/>
<path d="M1375.94 1088.3C1355.25 1088.3 1334.55 1083.6 1314.92 1074.22C1295.96 1065.16 1278.67 1052.16 1263.54 1035.56C1263.35 1035.36 1263.24 1035.1 1263.23 1034.82C1263.21 1034.55 1263.29 1034.27 1263.45 1034.05L1295.88 988.956C1295.98 988.812 1296.12 988.692 1296.27 988.607C1296.43 988.521 1296.6 988.471 1296.78 988.461C1296.96 988.451 1297.14 988.48 1297.3 988.547C1297.47 988.614 1297.62 988.717 1297.74 988.848C1308.26 1000.39 1320.27 1009.43 1333.43 1015.72C1359.48 1028.17 1388.27 1028.71 1414.49 1017.25C1446.66 1003.18 1472.12 972.53 1484.34 933.159C1496.18 894.968 1494.32 852.072 1479.22 815.471C1479.11 815.209 1479.1 814.917 1479.18 814.647C1479.27 814.377 1479.45 814.146 1479.69 813.996L1523.26 786.763C1523.41 786.671 1523.58 786.612 1523.75 786.591C1523.92 786.57 1524.1 786.586 1524.27 786.639C1524.43 786.693 1524.58 786.781 1524.71 786.899C1524.84 787.017 1524.94 787.162 1525.01 787.323C1546.63 839.697 1549.3 901.075 1532.35 955.719C1514.83 1012.21 1478.24 1056.2 1431.97 1076.43C1413.86 1084.35 1394.9 1088.3 1375.94 1088.3ZM1265.97 1034.66C1280.74 1050.68 1297.55 1063.26 1315.95 1072.06C1352.94 1089.73 1393.79 1090.5 1431.01 1074.23C1476.64 1054.28 1512.74 1010.83 1530.06 955.007C1546.71 901.344 1544.24 841.128 1523.33 789.552L1481.82 815.493C1496.78 852.397 1498.54 895.478 1486.63 933.867C1474.21 973.904 1448.27 1005.1 1415.45 1019.45C1388.58 1031.19 1359.09 1030.64 1332.4 1017.88C1319.37 1011.66 1307.46 1002.8 1296.97 991.549L1265.97 1034.66Z" fill="#111111"/>
<path d="M2086.82 1022.93L1833.98 902.114C1830.44 900.423 1826.48 902.562 1825.12 906.922L1816.7 934.082C1815.35 938.441 1817.12 943.358 1820.66 945.048L2073.5 1065.87C2077.03 1067.56 2081.01 1065.39 2082.36 1061.03L2090.79 1033.87C2092.14 1029.51 2090.35 1024.63 2086.82 1022.93Z" fill="#83D2B0"/>
<path d="M2075.98 1067.64C2074.94 1067.64 2073.91 1067.4 2072.98 1066.95L1820.14 946.13C1816.09 944.195 1814.03 938.629 1815.55 933.725L1823.98 906.566C1824.79 903.939 1826.52 901.88 1828.72 900.92C1830.58 900.103 1832.64 900.144 1834.49 901.031L2087.33 1021.85C2091.38 1023.79 2093.45 1029.34 2091.93 1034.23L2083.51 1061.39C2082.69 1064.02 2080.95 1066.09 2078.74 1067.06C2077.87 1067.44 2076.93 1067.64 2075.98 1067.64ZM1831.48 902.733C1830.87 902.733 1830.27 902.861 1829.68 903.119C1828.12 903.8 1826.88 905.316 1826.27 907.277L1817.84 934.435C1816.66 938.248 1818.16 942.522 1821.17 943.963L2074.01 1064.78C2075.24 1065.37 2076.54 1065.4 2077.78 1064.86C2079.35 1064.17 2080.6 1062.65 2081.21 1060.68L2089.64 1033.52C2090.81 1029.72 2089.32 1025.46 2086.3 1024.02L1833.46 903.197C1832.84 902.895 1832.17 902.736 1831.48 902.733Z" fill="#111111"/>
<path d="M2246.78 1099.38L2128.69 1042.94C2125.15 1041.25 2121.21 1043.4 2119.86 1047.76L2111.43 1074.92C2110.08 1079.28 2111.83 1084.19 2115.37 1085.88L2233.46 1142.31C2237 1144 2240.98 1141.83 2242.33 1137.47L2250.75 1110.31C2252.11 1105.95 2250.32 1101.07 2246.78 1099.38Z" fill="#83D2B0"/>
<path d="M2235.95 1144.08C2234.91 1144.08 2233.88 1143.85 2232.95 1143.39L2114.85 1086.96C2110.81 1085.03 2108.77 1079.47 2110.29 1074.57L2118.71 1047.41C2119.53 1044.77 2121.26 1042.71 2123.45 1041.75C2125.31 1040.94 2127.35 1040.98 2129.21 1041.86L2247.3 1098.29C2251.35 1100.23 2253.42 1105.78 2251.9 1110.67L2243.48 1137.83C2242.66 1140.47 2240.92 1142.53 2238.71 1143.5C2237.84 1143.88 2236.9 1144.08 2235.95 1144.08ZM2126.2 1043.56C2125.6 1043.56 2125 1043.69 2124.41 1043.95C2122.86 1044.63 2121.61 1046.15 2121 1048.12L2112.58 1075.28C2111.4 1079.09 2112.88 1083.36 2115.89 1084.8L2233.98 1141.23C2235.21 1141.81 2236.51 1141.84 2237.75 1141.3C2239.32 1140.61 2240.57 1139.09 2241.18 1137.12L2249.61 1109.96C2250.79 1106.16 2249.28 1101.9 2246.27 1100.46L2128.17 1044.03C2127.56 1043.73 2126.89 1043.57 2126.2 1043.56ZM2280 1232.02C2279.82 1232.02 2279.64 1231.98 2279.48 1231.9L1737.8 973.049C1737.51 972.912 1737.29 972.666 1737.18 972.366C1737.08 972.066 1737.1 971.736 1737.23 971.449C1737.37 971.161 1737.62 970.94 1737.92 970.834C1738.22 970.728 1738.55 970.746 1738.83 970.883L2280.52 1229.73C2280.76 1229.85 2280.96 1230.05 2281.08 1230.29C2281.2 1230.54 2281.23 1230.81 2281.17 1231.08C2281.11 1231.35 2280.96 1231.58 2280.75 1231.75C2280.54 1231.92 2280.27 1232.02 2280 1232.02ZM2254.72 1313.52C2254.54 1313.52 2254.36 1313.48 2254.2 1313.4L1712.52 1054.56C1712.23 1054.42 1712.01 1054.18 1711.9 1053.87C1711.8 1053.57 1711.81 1053.24 1711.95 1052.96C1712.09 1052.67 1712.33 1052.45 1712.63 1052.34C1712.93 1052.24 1713.26 1052.25 1713.55 1052.39L2255.23 1311.24C2255.48 1311.36 2255.68 1311.55 2255.8 1311.8C2255.92 1312.04 2255.95 1312.32 2255.89 1312.59C2255.83 1312.85 2255.68 1313.09 2255.47 1313.26C2255.25 1313.43 2254.99 1313.52 2254.72 1313.52ZM1808.5 1193.88C1808.32 1193.89 1808.15 1193.84 1807.99 1193.77L1687.23 1136.06C1686.94 1135.93 1686.72 1135.68 1686.62 1135.38C1686.51 1135.08 1686.53 1134.75 1686.67 1134.46C1686.8 1134.18 1687.05 1133.96 1687.35 1133.85C1687.65 1133.74 1687.98 1133.76 1688.27 1133.9L1809.02 1191.6C1809.27 1191.72 1809.47 1191.92 1809.58 1192.16C1809.7 1192.41 1809.74 1192.68 1809.68 1192.95C1809.61 1193.22 1809.47 1193.45 1809.25 1193.62C1809.04 1193.79 1808.77 1193.89 1808.5 1193.88ZM2229.43 1395.03C2229.25 1395.03 2229.08 1394.99 2228.92 1394.91L1860.76 1218.99C1860.62 1218.92 1860.49 1218.82 1860.39 1218.71C1860.28 1218.59 1860.2 1218.45 1860.15 1218.3C1860.09 1218.16 1860.07 1218 1860.08 1217.84C1860.09 1217.68 1860.13 1217.53 1860.2 1217.39C1860.26 1217.24 1860.36 1217.12 1860.48 1217.01C1860.59 1216.91 1860.73 1216.82 1860.88 1216.77C1861.03 1216.72 1861.18 1216.7 1861.34 1216.7C1861.5 1216.71 1861.65 1216.75 1861.8 1216.82L2229.95 1392.74C2230.2 1392.86 2230.4 1393.06 2230.51 1393.3C2230.63 1393.55 2230.67 1393.83 2230.61 1394.09C2230.55 1394.36 2230.4 1394.6 2230.18 1394.77C2229.97 1394.94 2229.7 1395.03 2229.43 1395.03ZM2204.16 1476.51C2203.98 1476.51 2203.8 1476.47 2203.64 1476.39L1661.96 1217.54C1661.67 1217.4 1661.45 1217.16 1661.34 1216.86C1661.24 1216.56 1661.25 1216.23 1661.39 1215.94C1661.53 1215.65 1661.77 1215.43 1662.08 1215.33C1662.38 1215.22 1662.71 1215.24 1662.99 1215.37L2204.68 1474.22C2204.92 1474.34 2205.12 1474.54 2205.24 1474.78C2205.36 1475.03 2205.39 1475.31 2205.33 1475.57C2205.27 1475.84 2205.12 1476.07 2204.91 1476.24C2204.69 1476.41 2204.43 1476.51 2204.16 1476.51ZM2020.38 1482.27C2020.2 1482.28 2020.02 1482.24 2019.86 1482.16L1636.67 1299.05C1636.53 1298.98 1636.4 1298.88 1636.3 1298.77C1636.19 1298.65 1636.11 1298.51 1636.06 1298.36C1636.01 1298.22 1635.98 1298.06 1635.99 1297.9C1636 1297.74 1636.04 1297.59 1636.11 1297.45C1636.18 1297.31 1636.27 1297.18 1636.39 1297.07C1636.51 1296.97 1636.64 1296.89 1636.79 1296.83C1636.94 1296.78 1637.1 1296.76 1637.25 1296.77C1637.41 1296.77 1637.57 1296.81 1637.71 1296.88L2020.9 1479.99C2021.14 1480.11 2021.34 1480.31 2021.46 1480.55C2021.58 1480.8 2021.61 1481.08 2021.55 1481.34C2021.49 1481.61 2021.34 1481.84 2021.13 1482.01C2020.91 1482.18 2020.65 1482.28 2020.38 1482.27ZM2178.87 1558.01C2178.69 1558.01 2178.52 1557.97 2178.36 1557.9L2062.16 1502.37C2062.02 1502.3 2061.89 1502.21 2061.79 1502.09C2061.68 1501.97 2061.6 1501.84 2061.55 1501.69C2061.5 1501.54 2061.47 1501.38 2061.48 1501.23C2061.49 1501.07 2061.53 1500.91 2061.6 1500.77C2061.67 1500.63 2061.76 1500.5 2061.88 1500.4C2062 1500.29 2062.13 1500.21 2062.28 1500.16C2062.43 1500.1 2062.59 1500.08 2062.74 1500.09C2062.9 1500.1 2063.06 1500.14 2063.2 1500.21L2179.39 1555.73C2179.64 1555.85 2179.84 1556.04 2179.96 1556.29C2180.08 1556.53 2180.11 1556.81 2180.05 1557.08C2179.99 1557.34 2179.84 1557.58 2179.62 1557.75C2179.41 1557.92 2179.15 1558.01 2178.87 1558.01ZM2155.66 1632.85C2155.48 1632.85 2155.3 1632.81 2155.14 1632.73L1613.46 1373.88C1613.17 1373.75 1612.95 1373.5 1612.85 1373.2C1612.74 1372.9 1612.76 1372.57 1612.89 1372.28C1613.03 1371.99 1613.28 1371.77 1613.58 1371.67C1613.88 1371.56 1614.21 1371.58 1614.49 1371.72L2156.18 1630.56C2156.42 1630.68 2156.62 1630.88 2156.74 1631.12C2156.86 1631.37 2156.89 1631.65 2156.83 1631.91C2156.77 1632.18 2156.62 1632.42 2156.41 1632.59C2156.2 1632.76 2155.93 1632.85 2155.66 1632.85ZM1780.87 1547.34C1780.69 1547.34 1780.51 1547.3 1780.35 1547.22L1588.18 1455.39C1588.03 1455.32 1587.91 1455.23 1587.8 1455.11C1587.7 1454.99 1587.61 1454.85 1587.56 1454.71C1587.51 1454.56 1587.49 1454.4 1587.49 1454.24C1587.5 1454.08 1587.54 1453.93 1587.61 1453.79C1587.68 1453.65 1587.77 1453.52 1587.89 1453.41C1588.01 1453.31 1588.14 1453.23 1588.29 1453.17C1588.44 1453.12 1588.6 1453.1 1588.76 1453.11C1588.91 1453.12 1589.07 1453.15 1589.21 1453.22L1781.39 1545.06C1781.63 1545.17 1781.83 1545.37 1781.95 1545.62C1782.07 1545.86 1782.1 1546.14 1782.04 1546.4C1781.98 1546.67 1781.83 1546.91 1781.62 1547.08C1781.4 1547.25 1781.14 1547.34 1780.87 1547.34ZM2130.38 1714.35C2130.2 1714.36 2130.02 1714.31 2129.86 1714.24L1824.43 1568.29C1824.15 1568.15 1823.93 1567.9 1823.82 1567.6C1823.71 1567.3 1823.73 1566.97 1823.87 1566.69C1824.01 1566.4 1824.25 1566.18 1824.55 1566.07C1824.85 1565.97 1825.18 1565.98 1825.47 1566.12L2130.89 1712.07C2131.14 1712.19 2131.34 1712.39 2131.46 1712.63C2131.58 1712.88 2131.61 1713.15 2131.55 1713.42C2131.49 1713.69 2131.34 1713.92 2131.13 1714.09C2130.91 1714.26 2130.65 1714.36 2130.38 1714.35ZM2008.28 1749.6C2008.1 1749.6 2007.92 1749.56 2007.76 1749.48L1562.89 1536.9C1562.75 1536.83 1562.62 1536.73 1562.52 1536.62C1562.41 1536.5 1562.33 1536.36 1562.28 1536.21C1562.22 1536.06 1562.2 1535.91 1562.21 1535.75C1562.22 1535.59 1562.26 1535.44 1562.32 1535.3C1562.39 1535.15 1562.49 1535.03 1562.61 1534.92C1562.72 1534.82 1562.86 1534.73 1563.01 1534.68C1563.16 1534.63 1563.31 1534.61 1563.47 1534.61C1563.63 1534.62 1563.78 1534.66 1563.93 1534.73L2008.8 1747.32C2009.04 1747.43 2009.24 1747.63 2009.36 1747.88C2009.48 1748.12 2009.51 1748.4 2009.45 1748.66C2009.39 1748.93 2009.24 1749.17 2009.03 1749.34C2008.82 1749.51 2008.55 1749.6 2008.28 1749.6ZM1277.1 1187.55C1276.92 1187.55 1276.74 1187.51 1276.58 1187.43L1165.16 1134.19C1165.02 1134.12 1164.89 1134.02 1164.79 1133.91C1164.68 1133.79 1164.6 1133.65 1164.55 1133.51C1164.49 1133.36 1164.47 1133.2 1164.48 1133.04C1164.49 1132.88 1164.53 1132.73 1164.6 1132.59C1164.66 1132.45 1164.76 1132.32 1164.88 1132.21C1164.99 1132.11 1165.13 1132.03 1165.28 1131.97C1165.43 1131.92 1165.58 1131.9 1165.74 1131.91C1165.9 1131.91 1166.05 1131.95 1166.2 1132.02L1277.62 1185.26C1277.86 1185.38 1278.06 1185.58 1278.18 1185.82C1278.3 1186.07 1278.33 1186.35 1278.27 1186.61C1278.21 1186.88 1278.06 1187.12 1277.85 1187.29C1277.63 1187.46 1277.37 1187.55 1277.1 1187.55ZM1506.89 1297.36C1506.72 1297.36 1506.54 1297.32 1506.38 1297.24L1322.09 1209.18C1321.8 1209.04 1321.58 1208.8 1321.48 1208.49C1321.37 1208.19 1321.39 1207.86 1321.52 1207.58C1321.66 1207.29 1321.91 1207.07 1322.21 1206.96C1322.51 1206.86 1322.84 1206.87 1323.12 1207.01L1507.41 1295.07C1507.66 1295.19 1507.86 1295.39 1507.98 1295.63C1508.1 1295.88 1508.13 1296.16 1508.07 1296.42C1508.01 1296.69 1507.86 1296.93 1507.65 1297.1C1507.43 1297.27 1507.17 1297.36 1506.89 1297.36ZM1355.32 1376.92C1355.14 1376.92 1354.96 1376.88 1354.8 1376.8L1124.1 1266.56C1123.81 1266.42 1123.59 1266.18 1123.48 1265.88C1123.38 1265.58 1123.4 1265.25 1123.53 1264.96C1123.67 1264.67 1123.92 1264.45 1124.22 1264.35C1124.52 1264.24 1124.85 1264.26 1125.13 1264.39L1355.83 1374.64C1356.08 1374.75 1356.28 1374.95 1356.4 1375.2C1356.52 1375.44 1356.55 1375.72 1356.49 1375.99C1356.43 1376.25 1356.28 1376.49 1356.07 1376.66C1355.85 1376.83 1355.59 1376.92 1355.32 1376.92ZM1280.31 1493.07C1280.13 1493.07 1279.96 1493.03 1279.8 1492.96L1083.04 1398.93C1082.75 1398.8 1082.53 1398.55 1082.42 1398.25C1082.32 1397.95 1082.33 1397.62 1082.47 1397.33C1082.61 1397.04 1082.85 1396.82 1083.15 1396.72C1083.45 1396.61 1083.78 1396.63 1084.07 1396.77L1280.83 1490.79C1281.08 1490.91 1281.28 1491.1 1281.4 1491.35C1281.51 1491.59 1281.55 1491.87 1281.49 1492.14C1281.43 1492.4 1281.28 1492.64 1281.06 1492.81C1280.85 1492.98 1280.59 1493.07 1280.31 1493.07ZM1416.01 1557.92C1415.83 1557.92 1415.65 1557.88 1415.49 1557.8L1325.31 1514.7C1325.16 1514.63 1325.04 1514.54 1324.93 1514.42C1324.82 1514.31 1324.74 1514.17 1324.69 1514.02C1324.64 1513.87 1324.62 1513.71 1324.62 1513.56C1324.63 1513.4 1324.67 1513.24 1324.74 1513.1C1324.81 1512.96 1324.9 1512.83 1325.02 1512.73C1325.14 1512.62 1325.27 1512.54 1325.42 1512.49C1325.57 1512.44 1325.73 1512.41 1325.89 1512.42C1326.04 1512.43 1326.2 1512.47 1326.34 1512.54L1416.53 1555.63C1416.77 1555.75 1416.97 1555.95 1417.09 1556.19C1417.21 1556.44 1417.24 1556.72 1417.18 1556.98C1417.12 1557.25 1416.97 1557.49 1416.76 1557.66C1416.54 1557.82 1416.28 1557.92 1416.01 1557.92Z" fill="#111111"/>
</g>
<g clip-path="url(#clip4_611_18)">
<path d="M2462.09 1949.8L2061.8 1871.54C1990.13 2074.55 1957.41 2167.24 1892.71 2232.2L2293 2310.46C2357.7 2245.5 2390.43 2152.81 2462.09 1949.8Z" fill="white"/>
<path d="M2293.1 2311.66C2293.38 2311.63 2293.65 2311.51 2293.85 2311.31C2358.75 2246.15 2391.49 2153.41 2463.23 1950.2C2463.29 1950.04 2463.31 1949.86 2463.29 1949.69C2463.28 1949.52 2463.22 1949.35 2463.14 1949.2C2463.05 1949.05 2462.94 1948.92 2462.79 1948.82C2462.65 1948.72 2462.49 1948.65 2462.32 1948.62L2062.03 1870.36C2061.45 1870.25 2060.87 1870.58 2060.67 1871.14C1989.05 2074.01 1956.36 2166.59 1891.85 2231.35C1891.7 2231.51 1891.59 2231.7 1891.54 2231.91C1891.48 2232.12 1891.49 2232.35 1891.55 2232.55C1891.62 2232.76 1891.74 2232.95 1891.9 2233.1C1892.06 2233.24 1892.26 2233.34 1892.47 2233.38L2292.76 2311.64C2292.87 2311.66 2292.99 2311.67 2293.1 2311.66ZM2460.5 1950.71C2389.37 2152.19 2356.68 2244.54 2292.59 2309.16L1895.14 2231.45C1958.89 2166.48 1991.67 2073.79 2062.59 1872.92L2460.5 1950.71Z" fill="#111111"/>
<path d="M2299.44 2108.66C2299.75 2108.63 2300.04 2108.48 2300.24 2108.25C2300.45 2108.02 2300.56 2107.71 2300.54 2107.4C2300.53 2107.09 2300.39 2106.8 2300.17 2106.59C2299.94 2106.37 2299.64 2106.25 2299.33 2106.26C2290.87 2106.32 2273.58 2102.88 2262.47 2089.6C2260.18 2086.86 2258.25 2083.85 2256.71 2080.64C2261.92 2077.31 2266.9 2073.64 2271.63 2069.65C2286.23 2057.29 2304.02 2036.89 2305.82 2009.91C2307.2 1989.1 2302.03 1975.91 2291.98 1974.64C2277.89 1972.86 2258.72 1995.44 2251.08 2036.3C2247.85 2053.6 2248.72 2068.15 2253.66 2079.73C2249.1 2082.56 2244.43 2085.09 2239.84 2087.2C2230.78 2091.38 2222.71 2093.6 2218.27 2093.16C2198.95 2091.24 2195.27 2081.03 2187.21 2058.65C2186.63 2057.05 2186.04 2055.39 2185.41 2053.68C2183.53 2048.52 2180.86 2045.46 2177.23 2044.35C2169.5 2041.96 2159.38 2049.22 2148.68 2056.91C2140.03 2063.12 2131.09 2069.55 2123.63 2070.55C2111.6 2072.17 2107.2 2068.2 2100.52 2062.21C2099.68 2061.46 2098.81 2060.68 2097.88 2059.87C2097.64 2059.67 2097.33 2059.56 2097.01 2059.59C2096.7 2059.61 2096.4 2059.76 2096.19 2060C2095.99 2060.24 2095.88 2060.55 2095.9 2060.87C2095.92 2061.18 2096.07 2061.48 2096.31 2061.69C2097.22 2062.48 2098.08 2063.26 2098.91 2064C2105.83 2070.21 2110.82 2074.67 2123.95 2072.93C2132 2071.85 2141.19 2065.25 2150.08 2058.86C2159.84 2051.86 2169.93 2044.61 2176.52 2046.64C2179.38 2047.53 2181.55 2050.1 2183.15 2054.51C2183.76 2056.16 2184.35 2057.81 2184.95 2059.46C2192.85 2081.4 2197.2 2093.48 2218.03 2095.55C2225.22 2096.27 2239.72 2091.14 2254.66 2081.93C2256.27 2085.23 2258.27 2088.33 2260.62 2091.14C2272.31 2105.11 2290.46 2108.72 2299.34 2108.66L2299.44 2108.66ZM2289.42 1976.99C2290.19 1976.92 2290.94 1976.94 2291.68 1977.03C2294.92 1977.44 2305.33 1981 2303.42 2009.75C2301.68 2035.89 2284.33 2055.76 2270.08 2067.82C2265.52 2071.66 2260.73 2075.2 2255.72 2078.42C2251.11 2067.34 2250.34 2053.38 2253.45 2036.74C2260.3 2000.06 2276.88 1978.07 2289.42 1976.99ZM2273 2199.7C2274.62 2199.56 2276.32 2199.17 2278.15 2198.51C2278.3 2198.46 2278.43 2198.38 2278.55 2198.27C2278.67 2198.17 2278.76 2198.04 2278.83 2197.9C2278.9 2197.75 2278.94 2197.6 2278.94 2197.44C2278.95 2197.28 2278.93 2197.13 2278.87 2196.98C2278.76 2196.68 2278.54 2196.44 2278.25 2196.3C2277.97 2196.16 2277.64 2196.15 2277.34 2196.25C2266.18 2200.24 2260.21 2192.87 2247.13 2176.68L2246.27 2175.62C2234.31 2160.84 2222.26 2168.43 2211.62 2175.13C2204.9 2179.37 2198.56 2183.37 2192.24 2182.65C2184.52 2181.79 2176.29 2176.81 2168.32 2172.01C2158.38 2166 2148.99 2160.33 2141.27 2163.11C2136.1 2164.97 2130.87 2169.25 2126.92 2174.33C2112.55 2159.25 2091.14 2142.5 2081.46 2142.74C2071.57 2143 2065.89 2146.84 2060.87 2150.24C2054.64 2154.44 2050.14 2157.48 2039.95 2151.75C2039.81 2151.67 2039.66 2151.62 2039.5 2151.6C2039.34 2151.58 2039.19 2151.59 2039.03 2151.64C2038.88 2151.68 2038.74 2151.75 2038.62 2151.85C2038.49 2151.95 2038.39 2152.07 2038.31 2152.21C2038.23 2152.34 2038.18 2152.49 2038.16 2152.65C2038.15 2152.81 2038.16 2152.97 2038.2 2153.12C2038.24 2153.27 2038.31 2153.41 2038.41 2153.54C2038.51 2153.66 2038.63 2153.77 2038.77 2153.84C2050.26 2160.3 2055.8 2156.56 2062.21 2152.23C2066.96 2149.02 2072.35 2145.37 2081.52 2145.15C2089.03 2144.96 2110.78 2160.48 2125.59 2176.13C2122.79 2180.17 2120.84 2184.56 2120.36 2188.57C2119.7 2194.06 2121.67 2198.49 2126.04 2201.38C2130.4 2204.26 2135.19 2204.27 2138.25 2201.39C2141.27 2198.56 2141.62 2193.94 2139.15 2189.63C2136.99 2185.88 2133.23 2181.13 2128.59 2176.11C2132.3 2171.26 2137.27 2167.1 2142.09 2165.37C2148.72 2162.98 2157.64 2168.37 2167.08 2174.07C2175.27 2179.01 2183.73 2184.12 2191.97 2185.05C2199.12 2185.85 2206.13 2181.44 2212.91 2177.17C2223.65 2170.4 2233.79 2164.01 2244.4 2177.13L2245.26 2178.2C2256.74 2192.4 2263.32 2200.54 2273 2199.7ZM2127.28 2177.94C2131.33 2182.4 2134.76 2186.81 2137.07 2190.83C2138.96 2194.13 2138.78 2197.59 2136.6 2199.64C2134.84 2201.3 2131.49 2202.09 2127.37 2199.37C2123.75 2196.98 2122.2 2193.44 2122.75 2188.86C2123.16 2185.39 2124.85 2181.54 2127.28 2177.94Z" fill="#111111"/>
</g>
<g clip-path="url(#clip5_611_18)">
<path d="M2691.57 643.516L2541.23 874.848L2707.4 1067.14C2725.56 1052.92 2742 1036.83 2756.34 1019.27C2853.09 900.7 2835.58 737.957 2717.57 658.751C2709.27 653.18 2700.57 648.112 2691.57 643.516Z" fill="white"/>
<path d="M2707.46 1068.1C2707.66 1068.09 2707.84 1068.02 2707.99 1067.9C2726.16 1053.68 2742.68 1037.52 2757.09 1019.88C2781.95 989.403 2799.76 955.629 2810.04 919.493C2819.95 884.604 2822.37 849.326 2817.22 814.64C2807.64 750.068 2772.44 694.423 2718.1 657.952C2709.97 652.494 2701.19 647.349 2692 642.659C2691.79 642.552 2691.54 642.526 2691.32 642.587C2691.09 642.649 2690.89 642.792 2690.76 642.991L2540.43 874.323C2540.32 874.498 2540.26 874.705 2540.28 874.914C2540.29 875.122 2540.37 875.32 2540.51 875.478L2706.68 1067.77C2706.78 1067.88 2706.9 1067.97 2707.03 1068.03C2707.17 1068.09 2707.32 1068.11 2707.46 1068.1ZM2691.9 644.766C2700.74 649.316 2709.2 654.287 2717.04 659.55C2770.92 695.715 2805.82 750.893 2815.33 814.921C2820.44 849.335 2818.04 884.341 2808.19 918.965C2797.99 954.848 2780.3 988.389 2755.6 1018.66C2741.47 1035.96 2725.31 1051.82 2707.53 1065.82L2542.43 874.766L2691.9 644.766Z" fill="#111111"/>
<path d="M2541.23 874.848L2557.41 906.594L2723.57 1098.89L2707.4 1067.14L2541.23 874.848Z" fill="#111111"/>
<path d="M2723.63 1099.85C2723.79 1099.84 2723.95 1099.79 2724.08 1099.71C2724.22 1099.62 2724.33 1099.5 2724.41 1099.37C2724.49 1099.23 2724.53 1099.07 2724.53 1098.91C2724.54 1098.75 2724.5 1098.59 2724.43 1098.45L2708.26 1066.71C2708.22 1066.64 2708.18 1066.57 2708.13 1066.51L2541.96 874.219C2541.81 874.042 2541.59 873.926 2541.36 873.896C2541.13 873.865 2540.89 873.92 2540.7 874.051C2540.5 874.183 2540.37 874.381 2540.31 874.608C2540.25 874.835 2540.27 875.077 2540.38 875.286L2556.55 907.031C2556.59 907.101 2556.63 907.166 2556.68 907.224L2722.85 1099.52C2722.95 1099.63 2723.07 1099.72 2723.2 1099.77C2723.34 1099.83 2723.49 1099.86 2723.63 1099.85ZM2706.6 1067.68L2719.13 1092.28L2558.21 906.053L2545.68 881.458L2706.6 1067.68Z" fill="#111111"/>
<path d="M2707.4 1067.14L2723.57 1098.89C2741.73 1084.67 2758.17 1068.57 2772.51 1051.01C2841.57 966.371 2852.41 859.219 2810.03 776.015L2793.86 744.268C2836.24 827.473 2825.4 934.626 2756.34 1019.27C2742 1036.83 2725.56 1052.92 2707.4 1067.14Z" fill="#83D2B0"/>
<path d="M2723.63 1099.85C2723.82 1099.84 2724.01 1099.77 2724.16 1099.65C2742.33 1085.42 2758.85 1069.27 2773.26 1051.62C2806.73 1010.6 2827.74 962.698 2834.02 913.097C2840.12 864.828 2832.12 817.275 2810.89 775.578L2794.72 743.832C2794.66 743.72 2794.58 743.62 2794.48 743.538C2794.39 743.456 2794.28 743.394 2794.16 743.355C2794.04 743.316 2793.91 743.301 2793.79 743.311C2793.66 743.321 2793.54 743.355 2793.43 743.413C2793.31 743.47 2793.21 743.549 2793.13 743.645C2793.05 743.741 2792.99 743.853 2792.95 743.973C2792.91 744.093 2792.9 744.22 2792.91 744.346C2792.92 744.471 2792.95 744.594 2793.01 744.707C2814.07 786.058 2822 833.225 2815.94 881.109C2809.71 930.35 2788.85 977.913 2755.6 1018.66C2741.28 1036.19 2724.87 1052.25 2706.81 1066.38C2706.64 1066.52 2706.51 1066.72 2706.47 1066.93C2706.42 1067.15 2706.45 1067.38 2706.55 1067.58L2722.72 1099.33C2722.8 1099.49 2722.94 1099.63 2723.1 1099.72C2723.26 1099.82 2723.45 1099.86 2723.63 1099.85ZM2806.39 770.979L2809.18 776.452C2830.24 817.804 2838.17 864.972 2832.11 912.855C2825.88 962.097 2805.02 1009.66 2771.77 1050.41C2757.7 1067.64 2741.59 1083.45 2723.9 1097.41L2708.62 1067.41C2726.54 1053.31 2742.84 1037.32 2757.09 1019.88C2790.56 978.852 2811.57 930.951 2817.84 881.351C2822.66 843.273 2818.7 805.642 2806.39 770.979Z" fill="#111111"/>
</g>
<g clip-path="url(#clip6_611_18)">
<path d="M674.143 831.625L836.385 908.542L747.194 936.675C731.964 941.479 714.782 933.353 708.842 918.487L674.143 831.625Z" fill="#18644B"/>
<path d="M738.203 939.273C725.232 939.273 712.666 931.357 707.704 918.94L673.006 832.079C672.914 831.85 672.894 831.6 672.947 831.359C673 831.119 673.125 830.9 673.304 830.732C673.484 830.563 673.71 830.452 673.953 830.414C674.196 830.376 674.446 830.412 674.668 830.518L836.91 907.436C837.133 907.542 837.319 907.712 837.443 907.924C837.568 908.137 837.626 908.382 837.609 908.627C837.592 908.873 837.501 909.108 837.348 909.302C837.196 909.495 836.989 909.638 836.754 909.712L747.563 937.844C744.534 938.795 741.378 939.277 738.203 939.273ZM676.438 834.068L709.98 918.032C715.672 932.281 732.201 940.127 746.825 935.507L833.042 908.314L676.438 834.068Z" fill="#111111"/>
<path d="M942.276 1295.96L615.347 1399.08C591.374 1406.64 564.375 1393.84 555.045 1370.48L394.089 967.576C389.393 955.823 390.067 943.636 394.951 933.465L383.271 957.788C378.388 967.959 377.713 980.145 382.409 991.898L543.365 1394.8C552.695 1418.16 579.694 1430.96 603.667 1423.4L930.596 1320.28C942.505 1316.53 951.428 1308.45 956.249 1298.41L967.929 1274.09C963.107 1284.13 954.185 1292.21 942.276 1295.96Z" fill="url(#paint3_linear_611_18)"/>
<path d="M589.523 1426.79C569.408 1426.79 549.919 1414.51 542.227 1395.26L381.271 992.354C376.598 980.655 376.917 968.192 382.166 957.259L393.846 932.937C393.914 932.789 394.011 932.657 394.13 932.547C394.25 932.437 394.39 932.352 394.543 932.297C394.696 932.242 394.858 932.218 395.021 932.226C395.183 932.234 395.342 932.275 395.489 932.345C395.635 932.415 395.766 932.514 395.874 932.635C395.982 932.757 396.065 932.898 396.117 933.052C396.17 933.206 396.192 933.368 396.181 933.53C396.17 933.692 396.127 933.851 396.055 933.996C391.104 944.306 390.81 956.069 395.225 967.121L556.181 1370.03C565.264 1392.76 591.638 1405.27 614.977 1397.91L941.906 1294.8C953.068 1291.27 961.904 1283.76 966.792 1273.63L966.823 1273.56C966.891 1273.41 966.988 1273.28 967.108 1273.17C967.228 1273.06 967.368 1272.98 967.521 1272.92C967.674 1272.87 967.836 1272.84 967.998 1272.85C968.16 1272.86 968.319 1272.9 968.466 1272.97C968.612 1273.04 968.743 1273.14 968.851 1273.26C968.959 1273.38 969.042 1273.52 969.095 1273.68C969.148 1273.83 969.169 1273.99 969.158 1274.16C969.148 1274.32 969.105 1274.48 969.032 1274.62L957.352 1298.94C952.175 1309.72 942.804 1317.72 930.963 1321.45L604.034 1424.57C599.338 1426.05 594.445 1426.79 589.523 1426.79ZM389.899 946.817L384.376 958.318C379.427 968.628 379.132 980.391 383.547 991.445L544.503 1394.35C553.585 1417.09 579.961 1429.6 603.299 1422.23L930.227 1319.12C941.414 1315.59 950.264 1308.05 955.144 1297.88L960.672 1286.37C955.759 1291.24 949.631 1294.93 942.643 1297.13L615.715 1400.25C591.181 1407.98 563.455 1394.83 553.906 1370.93L392.95 968.03C390.17 961.069 389.156 953.837 389.899 946.817Z" fill="#111111"/>
<path d="M674.142 831.625L708.842 918.487C714.781 933.355 731.963 941.479 747.194 936.675L836.385 908.542L968.791 1239.98C978.121 1263.33 966.247 1288.4 942.275 1295.96L615.346 1399.08C591.372 1406.64 564.373 1393.83 555.043 1370.48L394.088 967.576C384.758 944.221 396.629 919.157 420.602 911.596L674.142 831.625Z" fill="white"/>
<path d="M601.201 1402.47C581.087 1402.47 561.597 1390.19 553.906 1370.93L392.95 968.03C388.307 956.409 388.594 944.013 393.757 933.123C398.914 922.246 408.316 914.186 420.234 910.427L673.775 830.456C674.07 830.364 674.389 830.386 674.668 830.519C674.947 830.651 675.166 830.884 675.281 831.17L709.981 918.032C715.672 932.281 732.202 940.127 746.825 935.507L836.016 907.375C836.629 907.183 837.285 907.495 837.523 908.089L969.929 1239.53C974.571 1251.15 974.285 1263.54 969.123 1274.43C963.965 1285.31 954.562 1293.37 942.644 1297.13L615.714 1400.25C611.018 1401.72 606.124 1402.47 601.201 1402.47ZM673.427 833.135L420.971 912.764C409.712 916.314 400.834 923.917 395.971 934.172C391.104 944.438 390.84 956.139 395.227 967.12L556.183 1370.02C565.265 1392.76 591.641 1405.27 614.978 1397.91L941.908 1294.79C953.168 1291.24 962.047 1283.64 966.909 1273.38C971.776 1263.12 972.041 1251.42 967.654 1240.44L835.669 910.053L747.563 937.843C731.743 942.83 713.863 934.352 707.706 918.94L673.427 833.135Z" fill="#111111"/>
<path d="M752.097 1299.02C750.097 1299.02 747.948 1298.58 745.665 1297.69C717.585 1286.78 672.733 1210.36 647.28 1145.82C617.185 1069.51 603.749 996.878 615.334 973.129C617.441 968.809 620.347 966.073 623.969 965.001C654.805 955.891 706.466 1051.06 733.673 1117.26C743.142 1140.3 756.738 1181.05 764.213 1216.07C774.273 1263.2 771.955 1290.71 757.322 1297.85C755.72 1298.63 753.974 1299.02 752.097 1299.02ZM624.665 967.351C621.728 968.22 619.331 970.526 617.536 974.203C606.225 997.392 619.692 1069.19 649.559 1144.92C678.525 1218.37 722.035 1285.88 746.554 1295.41C750.315 1296.87 753.578 1296.95 756.25 1295.65C769.551 1289.16 771.475 1261.83 761.818 1216.58C754.373 1181.71 740.835 1141.14 731.407 1118.19C699.003 1039.35 650.576 959.657 624.665 967.351Z" fill="#111111"/>
<path d="M587.5 1265.05C583.025 1265.05 579.068 1263.98 575.847 1261.55C572.335 1258.9 570.256 1254.79 569.671 1249.32C566.843 1222.93 598.809 1165.9 649.211 1107.39C701.775 1046.38 763.564 999.372 792.939 998.05C798.374 997.807 802.628 999.129 805.576 1001.99C816.008 1012.09 812.007 1034.91 794.005 1067.96C779.133 1095.26 754.848 1129.11 727.378 1160.82C709.732 1181.19 678.658 1211.84 649.018 1234.4C629.358 1249.36 604.646 1265.05 587.5 1265.05ZM794.189 1000.47C793.816 1000.47 793.437 1000.48 793.05 1000.5C764.277 1001.79 703.238 1048.43 651.069 1108.99C601.86 1166.11 569.39 1223.7 572.106 1249.06C572.617 1253.83 574.372 1257.37 577.323 1259.6C580.047 1261.65 583.517 1262.67 587.694 1262.67C600.919 1262.67 621.249 1252.45 647.535 1232.45C677.036 1210 707.963 1179.49 725.527 1159.22C779.68 1096.7 823.981 1023.23 803.87 1003.74C801.627 1001.57 798.372 1000.47 794.189 1000.47Z" fill="#111111"/>
<path d="M803.361 1188.01L802.256 1188.01C766.897 1187.91 720.538 1182.65 678.248 1173.95C603.992 1158.67 503.985 1122.69 509.352 1094.88C510.093 1091.04 512.589 1087.67 516.77 1084.87C539.318 1069.78 613.79 1071.14 697.871 1088.17C784.29 1105.69 854.738 1133.99 869.185 1156.99C871.678 1160.95 872.488 1164.75 871.593 1168.26C867.448 1184.54 832.462 1188.01 803.361 1188.01ZM577.135 1076.78C549.276 1076.78 528.26 1080.13 518.133 1086.91C514.516 1089.33 512.37 1092.17 511.758 1095.34C509.573 1106.67 528.776 1121.54 565.829 1137.22C597.291 1150.54 640.558 1163.69 678.743 1171.55C765.695 1189.44 862.982 1192.14 869.22 1167.65C869.943 1164.82 869.233 1161.66 867.111 1158.29C853.217 1136.17 781.837 1107.69 697.385 1090.57C652.235 1081.42 609.941 1076.78 577.135 1076.78Z" fill="#111111"/>
<path d="M541.353 1119.69C539.463 1120.29 537.906 1121.37 536.765 1122.74C536.044 1123.61 535.486 1124.61 535.121 1125.68C534.41 1127.77 534.429 1130.13 535.347 1132.43C537.462 1137.73 543.599 1140.64 549.036 1138.92C551.078 1138.28 552.733 1137.08 553.895 1135.56C554.583 1134.65 555.099 1133.64 555.421 1132.55C556.009 1130.56 555.943 1128.35 555.085 1126.21C552.955 1120.88 546.82 1117.97 541.353 1119.69Z" fill="#83D2B0"/>
<path d="M545.834 1140.64C540.89 1140.64 536.099 1137.62 534.207 1132.88C533.22 1130.41 533.132 1127.71 533.96 1125.28C534.372 1124.07 535.003 1122.95 535.821 1121.96C537.15 1120.36 538.935 1119.17 540.983 1118.53V1118.52C547.03 1116.62 553.865 1119.86 556.219 1125.75C557.155 1128.09 557.284 1130.56 556.592 1132.9C556.23 1134.13 555.645 1135.28 554.868 1136.29C553.507 1138.08 551.617 1139.39 549.402 1140.09C548.248 1140.45 547.044 1140.64 545.834 1140.64ZM541.722 1120.86C540.123 1121.37 538.735 1122.29 537.707 1123.53C537.08 1124.28 536.596 1125.14 536.28 1126.07C535.631 1127.98 535.702 1130.02 536.484 1131.98C538.365 1136.69 543.83 1139.28 548.666 1137.75C550.397 1137.21 551.868 1136.19 552.919 1134.81C553.519 1134.02 553.965 1133.15 554.242 1132.2C554.776 1130.4 554.673 1128.49 553.943 1126.66C552.056 1121.93 546.572 1119.33 541.722 1120.86Z" fill="#111111"/>
<path d="M763.906 1235.65C758.47 1237.37 755.773 1243.06 757.889 1248.36C759.397 1252.13 762.917 1254.69 766.774 1255.25C768.386 1255.49 770.031 1255.36 771.588 1254.88C777.026 1253.17 779.723 1247.47 777.595 1242.14C776.041 1238.25 772.318 1235.65 768.297 1235.23C766.82 1235.06 765.325 1235.21 763.906 1235.65Z" fill="#83D2B0"/>
<path d="M768.368 1256.6C767.78 1256.6 767.19 1256.55 766.599 1256.47C762.151 1255.82 758.379 1252.89 756.752 1248.82C755.601 1245.93 755.674 1242.85 756.962 1240.13C758.247 1237.42 760.583 1235.42 763.539 1234.49C765.119 1233.99 766.783 1233.83 768.428 1234.01C773.021 1234.5 777.066 1237.51 778.735 1241.69C779.894 1244.59 779.822 1247.69 778.532 1250.4C777.248 1253.11 774.913 1255.12 771.958 1256.05C771.508 1256.19 771.05 1256.3 770.587 1256.39C769.856 1256.53 769.113 1256.6 768.368 1256.6ZM764.276 1236.82C761.976 1237.55 760.165 1239.1 759.174 1241.18C758.183 1243.27 758.131 1245.66 759.027 1247.91C760.331 1251.17 763.368 1253.52 766.952 1254.04C768.382 1254.25 769.839 1254.14 771.219 1253.71C773.517 1252.99 775.328 1251.44 776.317 1249.35C777.311 1247.26 777.362 1244.86 776.458 1242.6C775.122 1239.25 771.867 1236.84 768.166 1236.44C767.081 1236.32 765.984 1236.39 764.921 1236.64C764.71 1236.7 764.492 1236.75 764.276 1236.82Z" fill="#111111"/>
<path d="M757.956 1000.69C752.52 1002.41 749.823 1008.1 751.951 1013.43C751.998 1013.55 752.049 1013.66 752.098 1013.77C752.586 1014.88 753.25 1015.87 754.049 1016.74C756.913 1019.84 761.479 1021.23 765.638 1019.92C771.105 1018.2 773.803 1012.5 771.687 1007.21L771.658 1007.14C771.209 1006.04 770.584 1005.02 769.806 1004.13C766.953 1000.84 762.249 999.339 757.956 1000.69Z" fill="#83D2B0"/>
<path d="M762.396 1021.64C760.657 1021.63 758.938 1021.27 757.347 1020.57C755.756 1019.87 754.326 1018.84 753.148 1017.57C752.247 1016.59 751.513 1015.48 750.977 1014.27L750.813 1013.88C749.654 1010.98 749.727 1007.89 751.017 1005.17C752.3 1002.46 754.634 1000.46 757.589 999.526C762.21 998.071 767.494 999.597 770.733 1003.33C771.598 1004.32 772.295 1005.45 772.793 1006.67C773.977 1009.63 773.902 1012.71 772.617 1015.42C771.328 1018.14 768.981 1020.15 766.008 1021.09C764.839 1021.45 763.621 1021.64 762.396 1021.64ZM758.325 1001.86C756.028 1002.59 754.219 1004.13 753.23 1006.22C752.236 1008.32 752.185 1010.71 753.089 1012.98L753.179 1013.19C753.611 1014.19 754.209 1015.11 754.948 1015.9C757.561 1018.73 761.709 1019.88 765.269 1018.75C767.586 1018.02 769.408 1016.47 770.402 1014.37C771.392 1012.28 771.444 1009.9 770.549 1007.66C770.147 1006.67 769.583 1005.74 768.88 1004.93C766.274 1001.93 762.032 1000.69 758.325 1001.86Z" fill="#111111"/>
<path d="M680.463 1106.53C666.284 1111 659.274 1125.8 664.793 1139.62C670.299 1153.4 686.252 1160.99 700.431 1156.52C714.579 1152.05 721.606 1137.22 716.1 1123.43C710.582 1109.62 694.611 1102.07 680.463 1106.53Z" fill="#83D2B0"/>
<path d="M692.078 1159.02C679.99 1159.02 668.277 1151.64 663.655 1140.07C660.857 1133.06 661.028 1125.6 664.139 1119.04C667.246 1112.48 672.911 1107.63 680.095 1105.36C694.838 1100.71 711.501 1108.61 717.239 1122.98C720.031 1129.97 719.855 1137.44 716.74 1144C713.629 1150.56 707.969 1155.42 700.801 1157.68C697.978 1158.57 695.036 1159.02 692.078 1159.02ZM688.845 1106.47C686.164 1106.47 683.465 1106.87 680.831 1107.7C674.306 1109.76 669.164 1114.15 666.352 1120.08C663.538 1126.02 663.388 1132.8 665.931 1139.16C671.204 1152.36 686.515 1159.62 700.064 1155.35C706.574 1153.29 711.71 1148.89 714.526 1142.95C717.344 1137.01 717.5 1130.24 714.963 1123.89C710.714 1113.25 699.951 1106.47 688.845 1106.47Z" fill="#111111"/>
</g>
<defs>
<linearGradient id="paint0_linear_611_18" x1="2661.53" y1="1111.77" x2="2233.25" y2="1093.08" gradientUnits="userSpaceOnUse">
<stop stop-color="#18644B"/>
<stop offset="0.111" stop-color="#15503D"/>
<stop offset="0.291" stop-color="#15503D"/>
<stop offset="0.517" stop-color="#124233"/>
<stop offset="0.778" stop-color="#0C3026"/>
<stop offset="1" stop-color="#111111"/>
</linearGradient>
<linearGradient id="paint1_linear_611_18" x1="1828.83" y1="720.077" x2="1845.3" y2="1904.93" gradientUnits="userSpaceOnUse">
<stop stop-color="#0C3026"/>
<stop offset="0.148958" stop-color="#0C3026"/>
<stop offset="0.489" stop-color="#0C2C24"/>
<stop offset="0.618" stop-color="#0C3026"/>
<stop offset="1" stop-color="#111111"/>
</linearGradient>
<linearGradient id="paint2_linear_611_18" x1="194.336" y1="2082.66" x2="2092.22" y2="1946.52" gradientUnits="userSpaceOnUse">
<stop offset="0.5" stop-color="#0C3026"/>
<stop offset="0.795" stop-color="#0C3026"/>
<stop offset="0.931" stop-color="#0C3026"/>
<stop offset="1" stop-color="#111111"/>
</linearGradient>
<linearGradient id="paint3_linear_611_18" x1="572.126" y1="865.308" x2="765.696" y2="1368.49" gradientUnits="userSpaceOnUse">
<stop stop-color="#15503D"/>
<stop offset="0.15" stop-color="#15503D"/>
<stop offset="0.301" stop-color="#15503D"/>
<stop offset="0.453" stop-color="#15503D"/>
<stop offset="0.605" stop-color="#15503D"/>
<stop offset="0.757" stop-color="#15503D"/>
<stop offset="0.908" stop-color="#0C3026"/>
<stop offset="1" stop-color="#111111"/>
</linearGradient>
<clipPath id="clip0_611_18">
<rect width="466.8" height="554.4" fill="white" transform="matrix(-0.99778 0.0665897 0.0665897 0.99778 2634.22 598.273)"/>
</clipPath>
<clipPath id="clip1_611_18">
<rect width="543.6" height="499.2" fill="white" transform="matrix(-0.897774 -0.440457 -0.440457 0.897774 2623.75 2163.63)"/>
</clipPath>
<clipPath id="clip2_611_18">
<rect width="2322" height="1939.2" fill="white" transform="translate(80.002 505.554) rotate(-4.10296)"/>
</clipPath>
<clipPath id="clip3_611_18">
<rect width="1320" height="1076.4" fill="white" transform="translate(961.2 673.2)"/>
</clipPath>
<clipPath id="clip4_611_18">
<rect width="594" height="459.6" fill="white" transform="matrix(-0.996284 0.0861254 0.0861254 0.996284 2453.5 1836.47)"/>
</clipPath>
<clipPath id="clip5_611_18">
<rect width="295.2" height="458.4" fill="white" transform="matrix(-0.998132 0.061092 0.061092 0.998132 2821.32 634.611)"/>
</clipPath>
<clipPath id="clip6_611_18">
<rect width="595.2" height="596.4" fill="white" transform="translate(378 830.4)"/>
</clipPath>
</defs>
</svg>
