<svg xmlns="http://www.w3.org/2000/svg" width="230.649" height="463.126" viewBox="0 0 230.649 463.126">
  <g id="phone-inspection" transform="translate(-636.154 -605.818)">
    <g id="layer1" transform="translate(516.308 484.637)">
      <path id="path302" d="M142.661,582.418a39.26,39.26,0,0,1-9.336-4.743c-4.773-3.754-10.907-12.714-11.654-17.023-.546-3.145-1.591-174.174-1.747-285.682-.029-20.6-.057-39.69-.071-42.426-.043-16.906.111-26.572.921-56.47.97-36.167.964-36.128,8.2-44.167a43.3,43.3,0,0,1,9.172-7.022l5.76-3.233,87.647-.329c99.5-.373,95.554-.693,105.849,8.564a28.061,28.061,0,0,1,8.326,11.754c2.292,6.127,2.406,8.836,2.406,57.229,0,32.6.419,51.057,1.171,51.521,1.574.973,1.594,50.911.014,50.911-.745,0-1.261,45.892-1.463,130.2l-.312,130.2L344.432,567c-4.153,7.064-8.272,11.021-14.843,14.258l-5.452,2.686-87.777.269c-81.28.249-88.217.11-93.71-1.8ZM326.288,572.4c4.871-2.035,9.718-7.783,11.267-13.362,1.68-6.048,1.68-406.432,0-412.48-1.55-5.579-6.4-11.327-11.267-13.362-2.308-.964-8.179-1.6-14.824-1.6h-11l-.667,4.107a21.676,21.676,0,0,1-3.171,7.625c-5.033,7.068-4.392,6.993-59.923,6.993H186l-4.2-2.854c-4.343-2.951-8.046-9.125-8.046-13.415,0-2.353-.568-2.456-13.5-2.456-8.688,0-14.845.564-17.281,1.581-5.713,2.387-11.074,9.159-11.912,15.047-.393,2.763-.56,96.663-.372,208.666l.343,203.643,2.662,4.281a21.2,21.2,0,0,0,7.607,6.729c4.885,2.418,6.016,2.448,93.053,2.449,71.768,0,88.816-.294,91.928-1.6Z" transform="translate(0 0)" fill="#0c3026"/>
    </g>
    <g id="Component_2_4" data-name="Component 2 – 4" transform="translate(687 772)">
      <g id="Ellipse_1" data-name="Ellipse 1" fill="rgba(255,255,255,0)" stroke="#0c3026" stroke-width="5">
        <ellipse cx="64.5" cy="64" rx="64.5" ry="64" stroke="none"/>
        <ellipse cx="64.5" cy="64" rx="62" ry="61.5" fill="none"/>
      </g>
      <path id="check_FILL0_wght400_GRAD0_opsz48" d="M37.022,73.4a3.99,3.99,0,0,1-1.495-.272,4.141,4.141,0,0,1-1.359-.951l-24.6-24.6a4.265,4.265,0,0,1,0-5.979,3.941,3.941,0,0,1,5.707,0L37.022,63.349,86.347,14.023a4.145,4.145,0,0,1,7.066,2.922,3.987,3.987,0,0,1-1.223,2.922L39.875,72.181a4.141,4.141,0,0,1-1.359.951,3.99,3.99,0,0,1-1.495.272Z" transform="translate(13.618 20.898)" fill="#0c3026"/>
    </g>
  </g>
</svg>
