<svg width="3700" height="3700" viewBox="0 0 3700 3700" fill="none" xmlns="http://www.w3.org/2000/svg">
<g clip-path="url(#clip0_609_467)">
<g clip-path="url(#clip1_609_467)">
<path d="M1976.88 713.8H1793.9C1789.9 713.8 1786.66 710.561 1786.66 706.567C1786.66 702.572 1789.9 699.334 1793.9 699.334H1976.88C1977.83 699.334 1978.77 699.521 1979.65 699.885C1980.53 700.248 1981.32 700.781 1981.99 701.453C1982.67 702.124 1983.2 702.922 1983.56 703.799C1983.93 704.677 1984.11 705.618 1984.11 706.567C1984.11 707.517 1983.93 708.458 1983.56 709.335C1983.2 710.213 1982.67 711.01 1981.99 711.682C1981.32 712.353 1980.52 712.886 1979.65 713.249C1978.77 713.613 1977.83 713.8 1976.88 713.8Z" fill="#15503D"/>
<path d="M2164.97 525.764C2163.05 525.764 2161.21 525.002 2159.85 523.645C2158.49 522.289 2157.73 520.449 2157.73 518.531V445.744C2157.73 443.825 2158.49 441.986 2159.85 440.629C2161.21 439.273 2163.05 438.511 2164.97 438.511H2940.42C2942.34 438.511 2944.18 439.273 2945.54 440.629C2946.9 441.986 2947.66 443.825 2947.66 445.744C2947.66 447.662 2946.9 449.502 2945.54 450.858C2944.18 452.215 2942.34 452.977 2940.42 452.977H2172.2V518.531C2172.2 520.449 2171.44 522.289 2170.08 523.645C2168.73 525.002 2166.89 525.764 2164.97 525.764ZM3124.3 961.754H2928.29C2924.29 961.754 2921.05 958.515 2921.05 954.521C2921.05 950.526 2924.29 947.288 2928.29 947.288H3117.06V629.863C3117.06 625.868 3120.3 622.63 3124.3 622.63C3128.29 622.63 3131.53 625.868 3131.53 629.863V954.521C3131.53 956.439 3130.77 958.279 3129.41 959.635C3128.06 960.992 3126.22 961.754 3124.3 961.754Z" fill="#18644B"/>
<path d="M743.091 1300C686.974 1300 634.215 1278.15 594.534 1238.48C554.852 1198.81 533 1146.07 533 1089.97C533 1033.87 554.853 981.122 594.535 941.452C634.216 901.782 686.974 879.935 743.092 879.935C799.21 879.935 851.968 901.782 891.649 941.452C931.33 981.122 953.184 1033.87 953.184 1089.97C953.184 1146.07 931.33 1198.81 891.649 1238.48C851.968 1278.15 799.209 1300 743.091 1300ZM743.091 894.401C635.225 894.401 547.47 982.132 547.47 1089.97C547.47 1197.8 635.225 1285.53 743.091 1285.53C850.957 1285.53 938.713 1197.8 938.713 1089.97C938.713 982.132 850.957 894.401 743.091 894.401Z" fill="#18644B"/>
<path d="M806.155 997.407C818.875 1007.86 825.235 1023.17 825.235 1043.33C825.235 1059.91 819.627 1073.28 808.416 1083.45C797.202 1093.63 782.552 1098.9 764.463 1099.28L762.767 1119.34H707.364L705.668 1059.43H729.413C740.529 1059.43 749.058 1058.21 754.993 1055.76C760.929 1053.31 763.897 1049.36 763.897 1043.89C763.897 1040.32 763.001 1037.53 761.212 1035.56C759.418 1033.58 757.015 1032.59 754.004 1032.59C750.232 1032.59 747.454 1033.77 745.665 1036.12C743.872 1038.48 742.98 1041.54 742.98 1045.3H683.903C683.338 1033.63 685.643 1022.98 690.828 1013.37C696.009 1003.77 704.065 996.091 714.996 990.342C725.922 984.597 739.49 981.723 755.7 981.723C776.617 981.723 793.435 986.951 806.155 997.407ZM709.625 1193.66C703.027 1187.82 699.733 1180.48 699.733 1171.62C699.733 1162.58 703.028 1155.09 709.625 1149.16C716.22 1143.22 724.982 1140.25 735.913 1140.25C746.655 1140.25 755.32 1143.22 761.919 1149.16C768.512 1155.09 771.811 1162.58 771.811 1171.62C771.811 1180.48 768.512 1187.83 761.919 1193.66C755.32 1199.5 746.655 1202.42 735.913 1202.42C724.982 1202.42 716.22 1199.5 709.625 1193.66ZM743.091 894.402C741.173 894.402 739.332 893.64 737.976 892.284C736.619 890.927 735.857 889.087 735.857 887.169V778.61C735.857 776.692 736.619 774.852 737.976 773.495C739.332 772.139 741.173 771.377 743.091 771.377H1042.27C1044.19 771.377 1046.03 772.139 1047.39 773.495C1048.74 774.852 1049.51 776.692 1049.51 778.61C1049.51 780.528 1048.74 782.368 1047.39 783.724C1046.03 785.081 1044.19 785.843 1042.27 785.843H750.326V887.169C750.326 889.087 749.564 890.927 748.207 892.284C746.851 893.64 745.01 894.402 743.091 894.402ZM2462.96 1119.53H1593.38C1591.46 1119.53 1589.62 1118.76 1588.27 1117.41C1586.91 1116.05 1586.15 1114.21 1586.15 1112.29V936.767C1586.15 934.848 1586.91 933.009 1588.27 931.652C1589.62 930.296 1591.46 929.534 1593.38 929.534C1595.3 929.534 1597.14 930.296 1598.5 931.652C1599.86 933.009 1600.62 934.848 1600.62 936.767V1105.06H2462.96C2466.96 1105.06 2470.2 1108.3 2470.2 1112.29C2470.2 1116.29 2466.96 1119.53 2462.96 1119.53Z" fill="#18644B"/>
<path d="M2145.58 793.484C2139.42 788.037 2136.34 781.179 2136.34 772.912C2136.34 764.473 2139.42 757.484 2145.58 751.946C2151.73 746.407 2159.91 743.638 2170.11 743.638C2180.14 743.638 2188.22 746.408 2194.38 751.946C2200.54 757.484 2203.61 764.473 2203.61 772.912C2203.61 781.179 2200.54 788.036 2194.38 793.484C2188.22 798.935 2180.14 801.66 2170.11 801.66C2159.91 801.66 2151.73 798.935 2145.58 793.484ZM2202.03 600.433L2195.17 725.441H2145.05L2138.19 600.433H2202.03Z" fill="#15503D"/>
<path d="M2164.97 901.836C2163.05 901.836 2161.21 901.073 2159.85 899.717L1971.76 711.681C1970.41 710.324 1969.64 708.485 1969.64 706.567C1969.64 704.648 1970.41 702.809 1971.76 701.452L2159.85 513.416C2160.52 512.744 2161.32 512.211 2162.2 511.848C2163.08 511.484 2164.02 511.297 2164.97 511.297C2165.92 511.297 2166.86 511.484 2167.74 511.848C2168.61 512.211 2169.41 512.744 2170.08 513.416L2358.17 701.452C2359.53 702.809 2360.29 704.648 2360.29 706.567C2360.29 708.485 2359.53 710.324 2358.17 711.681L2170.08 899.717C2168.73 901.073 2166.89 901.836 2164.97 901.836ZM1987.11 706.567L2164.97 884.375L2342.83 706.567L2164.97 528.758L1987.11 706.567Z" fill="#15503D"/>
<path d="M2928.29 1159.17H2462.96C2461.05 1159.17 2459.21 1158.41 2457.85 1157.06C2456.49 1155.7 2455.73 1153.86 2455.73 1151.94V660.66C2455.73 658.741 2456.49 656.902 2457.85 655.545C2459.21 654.189 2461.05 653.427 2462.96 653.427H2928.29C2930.21 653.427 2932.05 654.189 2933.41 655.545C2934.76 656.902 2935.52 658.741 2935.52 660.66V1151.94C2935.52 1153.86 2934.76 1155.7 2933.41 1157.06C2932.05 1158.41 2930.21 1159.17 2928.29 1159.17ZM2470.2 1144.71H2921.05V667.893H2470.2V1144.71Z" fill="#18644B"/>
<path d="M2885.1 1055.97H2506.57C2505.42 1055.97 2504.32 1055.51 2503.5 1054.7C2502.69 1053.89 2502.23 1052.78 2502.23 1051.63C2502.23 1050.48 2502.69 1049.38 2503.5 1048.56C2504.32 1047.75 2505.42 1047.29 2506.57 1047.29H2885.1C2886.25 1047.29 2887.35 1047.75 2888.17 1048.56C2888.98 1049.38 2889.44 1050.48 2889.44 1051.63C2889.44 1052.78 2888.98 1053.89 2888.17 1054.7C2887.35 1055.51 2886.25 1055.97 2885.1 1055.97Z" fill="#18644B"/>
<path d="M2885.1 1055.97H2815.37C2814.22 1055.97 2813.11 1055.51 2812.3 1054.7C2811.49 1053.89 2811.03 1052.78 2811.03 1051.63V752.284C2811.03 751.133 2811.49 750.029 2812.3 749.215C2813.11 748.401 2814.22 747.944 2815.37 747.944H2885.1C2886.25 747.944 2887.35 748.401 2888.17 749.215C2888.98 750.029 2889.44 751.133 2889.44 752.284V1051.63C2889.44 1052.78 2888.98 1053.89 2888.17 1054.7C2887.35 1055.51 2886.25 1055.97 2885.1 1055.97ZM2819.71 1047.29H2880.76V756.623H2819.71V1047.29ZM2783.49 1055.97H2713.76C2712.61 1055.97 2711.51 1055.51 2710.7 1054.7C2709.88 1053.89 2709.42 1052.78 2709.42 1051.63V822.436C2709.42 821.285 2709.88 820.181 2710.7 819.367C2711.51 818.554 2712.61 818.096 2713.76 818.096H2783.49C2784.64 818.096 2785.75 818.554 2786.56 819.367C2787.38 820.181 2787.83 821.285 2787.83 822.436V1051.63C2787.83 1052.78 2787.38 1053.89 2786.56 1054.7C2785.75 1055.51 2784.64 1055.97 2783.49 1055.97ZM2718.11 1047.29H2779.15V826.776H2718.11V1047.29ZM2681.89 1055.97H2612.16C2611.01 1055.97 2609.9 1055.51 2609.09 1054.7C2608.28 1053.89 2607.82 1052.78 2607.82 1051.63V900.801C2607.82 899.65 2608.28 898.546 2609.09 897.733C2609.9 896.919 2611.01 896.462 2612.16 896.462H2681.89C2683.04 896.462 2684.14 896.919 2684.96 897.733C2685.77 898.546 2686.23 899.65 2686.23 900.801V1051.63C2686.23 1052.78 2685.77 1053.89 2684.96 1054.7C2684.14 1055.51 2683.04 1055.97 2681.89 1055.97ZM2616.5 1047.29H2677.55V905.141H2616.5V1047.29ZM3124.59 639.703C3019.05 639.703 2933.19 553.863 2933.19 448.352C2933.19 342.841 3019.05 257 3124.59 257C3230.14 257 3316 342.84 3316 448.351C3316 553.862 3230.14 639.703 3124.59 639.703ZM3124.59 271.466C3027.03 271.466 2947.66 350.817 2947.66 448.351C2947.66 545.885 3027.03 625.236 3124.59 625.236C3222.16 625.236 3301.53 545.885 3301.53 448.351C3301.53 350.817 3222.16 271.466 3124.59 271.466Z" fill="#18644B"/>
<path d="M3101.16 545.235C3098.86 545.235 3096.59 544.687 3094.54 543.636C3092.5 542.586 3090.73 541.062 3089.39 539.193L3018.17 439.781C3013.51 433.286 3015.01 424.25 3021.51 419.598C3028 414.944 3037.04 416.44 3041.69 422.933L3101.16 505.926L3207.5 357.507C3212.15 351.013 3221.19 349.519 3227.68 354.172C3234.18 358.824 3235.68 367.86 3231.02 374.355L3112.92 539.192C3111.58 541.062 3109.82 542.585 3107.77 543.636C3105.72 544.687 3103.46 545.235 3101.16 545.235Z" fill="#18644B"/>
<path d="M1784.64 941.428H1042.27C1040.35 941.428 1038.51 940.666 1037.16 939.31C1035.8 937.953 1035.04 936.114 1035.04 934.195V623.025C1035.04 621.107 1035.8 619.267 1037.16 617.91C1038.51 616.554 1040.35 615.792 1042.27 615.792H1784.64C1786.56 615.792 1788.4 616.554 1789.75 617.91C1791.11 619.267 1791.87 621.107 1791.87 623.025V934.196C1791.87 936.114 1791.11 937.954 1789.75 939.31C1788.4 940.666 1786.56 941.428 1784.64 941.428ZM1049.51 926.962H1777.4V630.258H1049.51V926.962Z" fill="#18644B"/>
<path d="M1263.94 913.331C1263.39 913.331 1262.85 913.265 1262.32 913.135C1258.22 912.119 1255.46 907.78 1253.36 899.063C1248.44 878.592 1250.29 854.89 1258.57 832.325C1264.77 815.412 1274.03 800.829 1284.08 791.797C1285.58 749.759 1281.53 713.662 1272.45 690.223C1266.58 675.094 1259.7 667.355 1251.98 667.222C1251.91 667.221 1251.83 667.221 1251.76 667.22C1230.19 667.22 1202.65 720.531 1193.82 741.149C1193.37 742.208 1192.52 743.043 1191.45 743.472C1190.38 743.9 1189.18 743.887 1188.13 743.434C1187.07 742.982 1186.23 742.127 1185.8 741.059C1185.37 739.991 1185.39 738.796 1185.84 737.737C1186.18 736.939 1194.34 717.95 1206.28 698.69C1222.93 671.816 1238.37 658.32 1252.13 658.545C1263.72 658.743 1273.28 668.347 1280.54 687.088C1291.7 715.863 1293.5 755.687 1292.88 785.468C1301.66 780.73 1310.11 780.895 1316.95 786.019C1326.99 793.543 1335.49 808.437 1342.22 830.286C1342.95 832.653 1343.63 835.032 1344.28 837.423C1347.19 830.191 1351.23 823.35 1355.7 819.47C1360.66 815.172 1364.94 815.41 1367.65 816.366C1369.93 817.168 1371.95 818.734 1373.73 821.118C1377.52 800.625 1387.33 769.513 1412.44 734.904C1427.07 714.732 1442.95 701.03 1459.64 694.175C1475.26 687.758 1490.72 687.847 1504.36 694.43C1520.44 702.197 1532.58 718.432 1538.53 740.145C1540.43 747.109 1541.68 754.491 1542.26 762.21C1553.22 758.333 1564.41 757.103 1575.17 758.65C1594.37 761.411 1610.01 772.654 1618.99 789.585C1619.52 788.802 1620.06 788.031 1620.63 787.272C1633.78 769.592 1657.5 753.168 1691.13 738.455C1692.19 738.001 1693.38 737.982 1694.45 738.403C1695.51 738.823 1696.37 739.649 1696.83 740.7C1697.29 741.751 1697.32 742.941 1696.9 744.01C1696.49 745.079 1695.66 745.941 1694.61 746.406C1668.51 757.824 1648.59 770.303 1635.4 783.498C1629.54 789.35 1625.69 794.663 1623.17 799.273C1623.59 800.501 1623.98 801.741 1624.33 802.99C1630.11 823.402 1624 827.846 1621.11 828.809C1617.85 829.895 1613.54 828.361 1611.28 822.484C1608.53 815.323 1610.23 806.728 1613.76 798.894C1606.65 781.513 1592.16 769.861 1573.93 767.239C1563.58 765.751 1552.95 767.253 1542.64 771.387C1542.77 786.749 1540.44 803.241 1535.68 820.276C1524.46 860.464 1508.96 884.927 1493.17 887.392C1486.87 888.373 1481.06 885.601 1477.23 879.784C1472.69 872.876 1471.1 862.317 1472.76 850.05C1474.58 836.584 1480.19 822.085 1488.98 808.118C1500.35 790.038 1514.67 775.992 1530.39 767.497C1531.53 766.879 1532.69 766.287 1533.86 765.721C1532.13 732.605 1517.77 710.543 1500.58 702.243C1489.23 696.762 1476.21 696.747 1462.94 702.201C1447.98 708.346 1432.95 721.416 1419.46 739.998C1390.49 779.929 1382.04 815.757 1380.33 837.849C1380.7 839.469 1381.05 841.183 1381.37 842.995C1385.29 864.641 1382.31 866.023 1380.13 867.032C1378.19 867.933 1375.92 867.377 1374.5 865.652C1372.01 862.622 1370.68 852.012 1371.56 838.465C1368.66 826.544 1365.46 824.794 1364.77 824.552C1363.73 824.186 1362.21 825.316 1361.4 826.023C1354.66 831.871 1348.99 847.378 1348.37 855.7C1349.48 861.995 1349.17 862.819 1348.87 863.62C1348.18 865.428 1346.36 866.59 1344.43 866.424C1341.04 866.143 1340.43 863.049 1339.97 860.789C1339.73 859.557 1339.64 858.111 1339.69 856.51C1337.12 842.315 1328.28 805.355 1311.74 792.961C1307.18 789.541 1301.47 790.038 1294.77 794.444C1294.01 794.943 1293.27 795.469 1292.56 796.022C1292.29 802.662 1291.89 809.296 1291.36 815.92C1287.73 861.418 1279.11 900.097 1270.4 909.981C1268.03 912.675 1265.67 913.331 1263.94 913.331ZM1283.43 805.098C1276.93 813.054 1271 823.66 1266.72 835.315C1259.02 856.291 1257.28 878.21 1261.81 897.035C1262.75 900.95 1263.63 902.973 1264.2 903.982C1268.9 898.354 1278 868.529 1282.31 819.969C1282.76 814.952 1283.13 809.989 1283.43 805.098ZM1534 775.512C1519.94 783.313 1506.84 796.043 1496.33 812.741C1483.81 832.634 1475.41 861.22 1484.49 875.014C1486.48 878.035 1488.88 879.28 1491.83 878.818C1500.75 877.426 1515.39 860.649 1527.32 817.943C1531.65 802.465 1533.72 788.28 1534 775.512Z" fill="#18644B"/>
</g>
<g clip-path="url(#clip2_609_467)">
<path d="M1732.49 2717.19H2148.51V3373H1732.49V2717.19Z" fill="#18644B"/>
<path d="M2148.51 2791.53V2862.58L1732.49 2835.25V2791.53H2148.51Z" fill="black"/>
<path d="M2988.17 2791.53H892.835C868.728 2791.53 849.185 2772 849.185 2747.91V1470.8C849.185 1446.71 868.728 1427.18 892.835 1427.18H2988.17C3012.27 1427.18 3031.82 1446.71 3031.82 1470.8V2747.91C3031.82 2772 3012.27 2791.53 2988.17 2791.53Z" fill="#15503D"/>
<path d="M855.384 1621.56H3031.82V1686.98H855.384V1621.56Z" fill="#60E4A2"/>
<path d="M3031.82 1473.29V1619.92H849.188V1473.29C849.188 1447.83 869.837 1427.18 895.331 1427.18H2985.67C3011.16 1427.18 3031.82 1447.83 3031.82 1473.29Z" fill="white"/>
<path d="M2988.17 2799.71H892.835C864.254 2799.71 841 2776.47 841 2747.91V1470.8C841 1442.24 864.254 1419 892.835 1419H2988.17C3016.75 1419 3040 1442.24 3040 1470.8V2747.91C3040 2776.47 3016.75 2799.71 2988.17 2799.71ZM892.835 1435.36C873.279 1435.36 857.369 1451.26 857.369 1470.8V2747.91C857.369 2767.46 873.279 2783.35 892.835 2783.35H2988.17C3007.72 2783.35 3023.63 2767.46 3023.63 2747.91V1470.8C3023.63 1451.26 3007.72 1435.36 2988.17 1435.36H892.835Z" fill="#18644B"/>
<path d="M2688.73 1571.15C2662.46 1571.15 2641.09 1549.8 2641.09 1523.55C2641.09 1497.3 2662.46 1475.95 2688.73 1475.95C2715 1475.95 2736.37 1497.3 2736.37 1523.55C2736.37 1549.8 2715 1571.15 2688.73 1571.15ZM2688.73 1486.85C2668.48 1486.85 2652.01 1503.32 2652.01 1523.55C2652.01 1543.78 2668.48 1560.25 2688.73 1560.25C2708.98 1560.25 2725.45 1543.78 2725.45 1523.55C2725.45 1503.32 2708.98 1486.85 2688.73 1486.85Z" fill="#EF4A6B"/>
<path d="M2804.09 1571.15C2777.82 1571.15 2756.45 1549.8 2756.45 1523.55C2756.45 1497.3 2777.82 1475.95 2804.09 1475.95C2830.35 1475.95 2851.72 1497.3 2851.72 1523.55C2851.72 1549.8 2830.35 1571.15 2804.09 1571.15ZM2804.09 1486.85C2783.84 1486.85 2767.36 1503.32 2767.36 1523.55C2767.36 1543.78 2783.84 1560.25 2804.09 1560.25C2824.34 1560.25 2840.81 1543.78 2840.81 1523.55C2840.81 1503.32 2824.34 1486.85 2804.09 1486.85Z" fill="#FCAE1D"/>
<path d="M2919.44 1571.15C2893.18 1571.15 2871.81 1549.8 2871.81 1523.55C2871.81 1497.3 2893.18 1475.95 2919.44 1475.95C2945.71 1475.95 2967.08 1497.3 2967.08 1523.55C2967.08 1549.8 2945.71 1571.15 2919.44 1571.15ZM2919.44 1486.85C2899.19 1486.85 2882.72 1503.32 2882.72 1523.55C2882.72 1543.78 2899.19 1560.25 2919.44 1560.25C2939.69 1560.25 2956.17 1543.78 2956.17 1523.55C2956.17 1503.32 2939.69 1486.85 2919.44 1486.85Z" fill="#60E4A2"/>
<path d="M1570.35 3325.98H2310.65V3373H1570.35V3325.98ZM925.335 1761.2H2082.02V2721.97H925.335V1761.2Z" fill="#83D2B0"/>
<path d="M993.951 1843.48H1299.63V1865.29H993.951V1843.48Z" fill="#F3EAD9"/>
<path d="M993.951 1940.28H1173.63V1962.09H993.951V1940.28Z" fill="#F796AF"/>
<path d="M1233.34 1940.28H1416.17V1962.09H1233.34V1940.28Z" fill="#B4E6CD"/>
<path d="M1481.05 1940.28H2014.04V1962.09H1481.05V1940.28Z" fill="#18644B"/>
<path d="M1054.35 2037.08H1237.22V2058.89H1054.35V2037.08Z" fill="#F796AF"/>
<path d="M1054.35 2133.88H1665.7V2155.69H1054.35V2133.88Z" fill="#18644B"/>
<path d="M1730.06 2133.88H2017.31V2155.69H1730.06V2133.88Z" fill="#F3EAD9"/>
<path d="M1054.35 2230.68H1381.67V2252.49H1054.35V2230.68Z" fill="#F796AF"/>
<path d="M1432.28 2230.68H1665.7V2252.49H1432.28V2230.68Z" fill="#B4E6CD"/>
<path d="M1054.35 2327.48H1665.7V2349.29H1054.35V2327.48Z" fill="#F3EAD9"/>
<path d="M1052.35 2424.29H1255.29V2446.1H1052.35V2424.29Z" fill="#B4E6CD"/>
<path d="M1310.37 2424.29H1513.31V2446.1H1310.37V2424.29Z" fill="#18644B"/>
<path d="M1103.11 2521.09H1520.17V2542.9H1103.11V2521.09ZM1570.1 2521.09H1892.3V2542.9H1570.1V2521.09Z" fill="#F3EAD9"/>
<path d="M1103.11 2617.89H1365.26V2639.7H1103.11V2617.89Z" fill="#18644B"/>
<path d="M1432.28 2617.89H1591.39V2639.7H1432.28V2617.89Z" fill="#B4E6CD"/>
<path d="M925.335 2305.67H2082.02V2371.1H925.335V2305.67Z" fill="#18644B"/>
<path d="M2217.46 1761.2H2953.65V2722.61H2217.46V1761.2Z" fill="#4FB88E"/>
<path d="M2285.37 1843.9H2502.35V1865.71H2285.37V1843.9Z" fill="#D8F3E4"/>
<path d="M2285.37 1940.76H2458.62V1962.57H2285.37V1940.76Z" fill="#F36A8D"/>
<path d="M2285.37 2037.63H2458.62V2059.44H2285.37V2037.63ZM2285.37 2134.5H2486.7V2156.31H2285.37V2134.5ZM2285.37 2231.36H2502.35V2253.17H2285.37V2231.36Z" fill="#D8F3E4"/>
<path d="M2285.37 2328.23H2502.35V2350.04H2285.37V2328.23ZM2285.37 2425.1H2450.54V2446.91H2285.37V2425.1Z" fill="#DFEB77"/>
<path d="M2285.37 2521.96H2414.37V2543.77H2285.37V2521.96Z" fill="#FED975"/>
<path d="M2285.37 2618.83H2414.37V2640.64H2285.37V2618.83Z" fill="#D8F3E4"/>
<path d="M2557.16 1843.9H2885.73V1865.71H2557.16V1843.9Z" fill="#FED975"/>
<path d="M2601.24 1940.76H2885.73V1962.57H2601.24V1940.76ZM2601.24 2037.63H2885.73V2059.44H2601.24V2037.63Z" fill="#D8F3E4"/>
<path d="M2557.16 2134.5H2885.73V2156.31H2557.16V2134.5Z" fill="#FED975"/>
<path d="M2684.09 2231.36H2885.73V2253.17H2684.09V2231.36Z" fill="#D8F3E4"/>
<path d="M2798.23 2328.23H2885.73V2350.04H2798.23V2328.23ZM2557.16 2425.1H2885.73V2446.91H2557.16V2425.1Z" fill="#F3EAD9"/>
<path d="M2557.16 2521.96H2885.73V2543.77H2557.16V2521.96Z" fill="#D8F3E4"/>
<path d="M2684.09 2618.83H2885.73V2640.64H2684.09V2618.83Z" fill="#F36A8D"/>
<path d="M2144.28 1761.2H2155.19V2721.97H2144.28V1761.2Z" fill="#83D2B0"/>
</g>
<g clip-path="url(#clip3_609_467)">
<path d="M2757.84 2730.15L2398.21 2626.35C2390.37 2624.09 2383.46 2632.04 2386.76 2639.53L2538.67 2984.04C2541.84 2991.23 2551.79 2991.8 2555.76 2985.01L2606.83 2897.47C2609.91 2892.18 2617.07 2891.08 2621.59 2895.2L2731.61 2995.55C2733.49 2997.27 2735.98 2998.17 2738.53 2998.04C2741.08 2997.92 2743.47 2996.79 2745.19 2994.9L2801.6 2932.62C2803.31 2930.72 2804.21 2928.22 2804.09 2925.67C2803.97 2923.11 2802.84 2920.71 2800.95 2918.99L2689.88 2817.68C2685.48 2813.66 2685.72 2806.65 2690.39 2802.96L2761.13 2747C2767.28 2742.13 2765.37 2732.32 2757.84 2730.15Z" fill="#124233"/>
<path d="M2738.07 3011C2732.47 3011.01 2727.07 3008.92 2722.93 3005.13L2615.92 2907.53L2566.9 2991.55C2562.61 2998.91 2554.67 3003.2 2546.19 3002.7C2542.05 3002.48 2538.05 3001.11 2534.63 2998.74C2531.22 2996.37 2528.53 2993.09 2526.86 2989.28L2374.96 2644.77C2371.38 2636.66 2372.77 2627.46 2378.58 2620.77C2384.39 2614.08 2393.28 2611.45 2401.78 2613.9L2761.41 2717.7C2769.56 2720.05 2775.65 2726.71 2777.28 2735.07C2778.92 2743.43 2775.79 2751.9 2769.12 2757.17L2701.44 2810.71L2809.64 2909.4C2818.83 2917.78 2819.51 2932.11 2811.16 2941.33L2754.74 3003.61C2752.63 3005.94 2750.06 3007.8 2747.19 3009.08C2744.31 3010.35 2741.21 3011.01 2738.07 3011ZM2615.16 2879.74C2620.76 2879.74 2626.15 2881.83 2630.28 2885.62L2737.85 2983.74L2789.83 2926.35L2681.19 2827.26C2678.77 2825.06 2676.86 2822.34 2675.59 2819.32C2674.31 2816.29 2673.72 2813.03 2673.83 2809.75C2673.95 2806.46 2674.77 2803.25 2676.25 2800.32C2677.73 2797.39 2679.83 2794.82 2682.4 2792.79L2748.09 2740.82L2401.42 2640.76L2547.87 2972.89L2595.69 2890.92C2597.38 2888.02 2599.69 2885.52 2602.47 2883.63C2605.24 2881.74 2608.41 2880.5 2611.72 2880C2612.86 2879.82 2614.01 2879.74 2615.16 2879.74Z" fill="white"/>
</g>
<g clip-path="url(#clip4_609_467)">
<path d="M1194.49 3185.94H323.512C313.32 3185.94 305.06 3177.67 305.06 3167.47V2536.53C305.06 2526.33 313.321 2518.06 323.512 2518.06H1194.49C1204.68 2518.06 1212.94 2526.33 1212.94 2536.53V3167.47C1212.94 3177.67 1204.68 3185.94 1194.49 3185.94Z" fill="white"/>
<path d="M1194.49 3194H323.511C308.892 3194 297 3182.1 297 3167.47V2536.53C297 2521.9 308.892 2510 323.511 2510H1194.49C1209.11 2510 1221 2521.9 1221 2536.53V3167.47C1221 3182.1 1209.11 3194 1194.49 3194ZM323.511 2526.13C317.78 2526.13 313.118 2530.79 313.118 2536.53V3167.47C313.118 3173.21 317.78 3177.87 323.511 3177.87H1194.49C1200.22 3177.87 1204.88 3173.21 1204.88 3167.47V2536.53C1204.88 2530.79 1200.22 2526.13 1194.49 2526.13H323.511Z" fill="#18644B"/>
<path d="M1132.63 2909.55C1132.63 3024.56 1039.45 3117.79 924.504 3117.79C809.559 3117.79 716.378 3024.56 716.378 2909.55C716.378 2794.54 809.559 2701.31 924.504 2701.31C1039.45 2701.31 1132.63 2794.54 1132.63 2909.55Z" fill="#18644B"/>
<path d="M774.411 2869.47H790.53V2960.73H774.411V2869.47ZM790.53 2853.34V2762.08H777.568C776.505 2763.14 775.452 2764.22 774.411 2765.3V2853.34H790.53ZM790.53 2976.86H774.411V3053.8C779.238 3058.83 784.313 3063.61 789.616 3068.12H790.53V2976.86ZM897.862 2745.95V2703C892.456 2703.7 887.079 2704.6 881.744 2705.72V2745.95H897.862ZM881.744 2869.47H897.862V2960.73H881.744V2869.47ZM881.744 3084.25V3113.38C887.079 3114.5 892.456 3115.41 897.862 3116.1V3084.25H881.744ZM881.744 2976.86H897.862V3068.13H881.744V2976.86ZM881.744 2762.08H897.862V2853.34H881.744V2762.08ZM989.076 2762.08H1005.19V2853.34H989.076V2762.08ZM989.076 3084.25V3107.56C994.53 3105.78 999.907 3103.78 1005.19 3101.56V3084.25L989.076 3084.25ZM1005.19 2745.95V2717.55C999.907 2715.32 994.529 2713.32 989.076 2711.54V2745.95L1005.19 2745.95ZM989.076 2976.86H1005.19V3068.13H989.076V2976.86ZM989.076 2869.47H1005.19V2960.73H989.076V2869.47ZM1096.41 2976.86V3026.96C1102.5 3018.05 1107.89 3008.68 1112.53 2998.93V2976.86H1096.41V2976.86ZM1096.41 2869.47H1112.53V2960.73H1096.41V2869.47ZM1112.53 2853.34V2820.17C1107.89 2810.42 1102.5 2801.05 1096.41 2792.14V2853.34H1112.53ZM881.744 2762.08H1071.44C1065.7 2756.36 1059.64 2750.97 1053.28 2745.95H795.731C789.37 2750.97 783.306 2756.36 777.568 2762.08H790.53H881.744ZM790.53 2869.47H1128.76C1127.71 2864.05 1126.44 2858.67 1124.95 2853.34H724.058C722.572 2858.67 721.3 2864.05 720.245 2869.47H774.411H790.53Z" fill="#EFFAF5"/>
<path d="M790.529 2976.86H1121.51C1123.32 2971.55 1124.91 2966.17 1126.29 2960.73H722.721C724.093 2966.17 725.686 2971.55 727.497 2976.86H774.412H790.529ZM897.862 3084.25H1037.8C1045.33 3079.35 1052.55 3073.96 1059.39 3068.12H789.616C796.46 3073.96 803.674 3079.35 811.211 3084.25H881.744H897.862Z" fill="#EFFAF5"/>
<path d="M644.267 2669.07H383.187C367.41 2669.07 354.621 2656.28 354.621 2640.49V2633.25C354.621 2617.47 367.41 2604.67 383.187 2604.67H644.267C660.044 2604.67 672.832 2617.47 672.832 2633.25V2640.49C672.833 2656.28 660.044 2669.07 644.267 2669.07Z" fill="white"/>
<path d="M644.266 2677.14H383.187C362.992 2677.14 346.562 2660.7 346.562 2640.49V2633.25C346.562 2613.04 362.992 2596.61 383.187 2596.61H644.266C664.461 2596.61 680.89 2613.04 680.89 2633.25V2640.49C680.892 2660.7 664.462 2677.14 644.266 2677.14ZM383.187 2612.73C371.88 2612.73 362.681 2621.94 362.681 2633.25V2640.49C362.681 2651.81 371.88 2661.01 383.187 2661.01H644.266C655.573 2661.01 664.772 2651.81 664.772 2640.49V2633.25C664.772 2621.94 655.573 2612.73 644.266 2612.73H383.187Z" fill="#18644B"/>
<path d="M471.358 2798.96H373.253C362.963 2798.96 354.621 2790.61 354.621 2780.32V2753.2C354.621 2742.9 362.963 2734.55 373.253 2734.55H471.358C481.648 2734.55 489.99 2742.9 489.99 2753.2V2780.32C489.989 2790.61 481.648 2798.96 471.358 2798.96Z" fill="white"/>
<path d="M471.357 2807.02H373.252C358.535 2807.02 346.562 2795.04 346.562 2780.32V2753.2C346.562 2738.47 358.536 2726.49 373.252 2726.49H471.357C486.074 2726.49 498.048 2738.47 498.048 2753.2V2780.32C498.048 2795.04 486.075 2807.02 471.357 2807.02ZM373.252 2742.62C367.423 2742.62 362.681 2747.36 362.681 2753.2V2780.32C362.681 2786.15 367.424 2790.9 373.252 2790.9H471.357C477.186 2790.9 481.929 2786.15 481.929 2780.32V2753.2C481.929 2747.36 477.186 2742.62 471.357 2742.62H373.252Z" fill="#18644B"/>
<path d="M654.201 2798.96H556.097C545.807 2798.96 537.465 2790.61 537.465 2780.32V2753.2C537.465 2742.9 545.807 2734.55 556.097 2734.55H654.201C664.491 2734.55 672.833 2742.9 672.833 2753.2V2780.32C672.833 2790.61 664.491 2798.96 654.201 2798.96Z" fill="white"/>
<path d="M654.201 2807.02H556.095C541.378 2807.02 529.405 2795.04 529.405 2780.32V2753.2C529.405 2738.47 541.379 2726.49 556.095 2726.49H654.201C668.918 2726.49 680.89 2738.47 680.89 2753.2V2780.32C680.892 2795.04 668.918 2807.02 654.201 2807.02ZM556.095 2742.62C550.266 2742.62 545.524 2747.36 545.524 2753.2V2780.32C545.524 2786.15 550.267 2790.9 556.095 2790.9H654.201C660.03 2790.9 664.772 2786.15 664.772 2780.32V2753.2C664.772 2747.36 660.029 2742.62 654.201 2742.62H556.095Z" fill="#18644B"/>
</g>
<g clip-path="url(#clip5_609_467)">
<path d="M3100.95 1823.09C3101.81 1823.98 3102.95 1824.55 3104.19 1824.7C3105.42 1824.84 3106.66 1824.56 3107.71 1823.89C3113.02 1820.49 3118.29 1817.05 3123.53 1813.56C3124.13 1813.18 3124.64 1812.67 3125.03 1812.09C3125.43 1811.5 3125.71 1810.84 3125.85 1810.15C3126 1809.45 3126 1808.74 3125.86 1808.04C3125.73 1807.35 3125.46 1806.68 3125.06 1806.09C3124.67 1805.5 3124.16 1805 3123.57 1804.6C3122.98 1804.21 3122.32 1803.94 3121.63 1803.8C3120.93 1803.66 3120.21 1803.67 3119.52 1803.81C3118.83 1803.95 3118.17 1804.23 3117.58 1804.63C3112.39 1808.08 3107.17 1811.48 3101.92 1814.84C3101.26 1815.27 3100.69 1815.84 3100.27 1816.51C3099.85 1817.19 3099.58 1817.95 3099.48 1818.73C3099.39 1819.52 3099.47 1820.32 3099.73 1821.08C3099.98 1821.83 3100.4 1822.52 3100.95 1823.09L3100.95 1823.09ZM3160.39 1781.89C3161.3 1782.84 3162.53 1783.42 3163.84 1783.52C3165.15 1783.62 3166.45 1783.25 3167.49 1782.46C3177.55 1774.89 3187.42 1767.09 3197.11 1759.07C3198.21 1758.17 3198.9 1756.86 3199.03 1755.44C3199.16 1754.02 3198.73 1752.61 3197.82 1751.51C3195.94 1749.25 3192.54 1748.91 3190.26 1750.8C3180.7 1758.72 3170.95 1766.41 3161.03 1773.88C3160.43 1774.34 3159.92 1774.92 3159.56 1775.58C3159.19 1776.25 3158.97 1776.98 3158.91 1777.74C3158.85 1778.5 3158.95 1779.26 3159.21 1779.97C3159.46 1780.69 3159.87 1781.34 3160.39 1781.89ZM3229.76 1723.02L3229.77 1723.03C3230.26 1723.53 3230.84 1723.94 3231.49 1724.22C3232.13 1724.5 3232.83 1724.66 3233.53 1724.67C3234.24 1724.68 3234.94 1724.56 3235.6 1724.3C3236.25 1724.04 3236.85 1723.66 3237.36 1723.17C3246.42 1714.44 3255.22 1705.46 3263.74 1696.22C3264.68 1695.16 3265.17 1693.79 3265.1 1692.38C3265.03 1690.97 3264.41 1689.65 3263.38 1688.69C3262.34 1687.73 3260.97 1687.23 3259.56 1687.27C3258.15 1687.32 3256.82 1687.92 3255.85 1688.94C3247.46 1698.02 3238.81 1706.86 3229.91 1715.43C3228.88 1716.42 3228.29 1717.77 3228.26 1719.19C3228.24 1720.62 3228.77 1721.99 3229.76 1723.02ZM3290.24 1655.4C3290.78 1655.96 3291.43 1656.4 3292.15 1656.68C3292.87 1656.97 3293.65 1657.09 3294.42 1657.05C3295.2 1657 3295.96 1656.79 3296.64 1656.43C3297.33 1656.06 3297.92 1655.55 3298.39 1654.94C3306.02 1644.91 3313.28 1634.61 3320.15 1624.06C3320.54 1623.47 3320.8 1622.8 3320.93 1622.11C3321.06 1621.42 3321.05 1620.71 3320.91 1620.02C3320.76 1619.33 3320.48 1618.67 3320.08 1618.09C3319.68 1617.51 3319.17 1617.01 3318.58 1616.63C3317.99 1616.24 3317.33 1615.98 3316.64 1615.85C3315.94 1615.72 3315.23 1615.73 3314.54 1615.88C3313.85 1616.02 3313.2 1616.3 3312.62 1616.7C3312.04 1617.1 3311.54 1617.61 3311.15 1618.2C3304.42 1628.53 3297.31 1638.62 3289.84 1648.44C3289.07 1649.45 3288.69 1650.72 3288.76 1651.99C3288.83 1653.27 3289.36 1654.48 3290.24 1655.4L3290.24 1655.4ZM3338.37 1578.57C3338.96 1579.19 3339.7 1579.66 3340.51 1579.93C3341.33 1580.21 3342.2 1580.29 3343.05 1580.16C3343.9 1580.03 3344.7 1579.7 3345.4 1579.19C3346.09 1578.69 3346.66 1578.02 3347.04 1577.25C3352.7 1565.98 3357.89 1554.48 3362.6 1542.78C3363.13 1541.45 3363.12 1539.98 3362.56 1538.67C3362 1537.36 3360.94 1536.32 3359.62 1535.79C3358.3 1535.26 3356.82 1535.27 3355.51 1535.83C3354.2 1536.39 3353.17 1537.44 3352.64 1538.77C3348.03 1550.19 3342.96 1561.43 3337.44 1572.44C3336.95 1573.43 3336.77 1574.55 3336.93 1575.65C3337.1 1576.75 3337.6 1577.77 3338.37 1578.57ZM3370.73 1493.87C3371.39 1494.56 3372.22 1495.06 3373.13 1495.32C3374.05 1495.58 3375.01 1495.59 3375.93 1495.35C3376.85 1495.12 3377.69 1494.64 3378.37 1493.98C3379.05 1493.31 3379.53 1492.47 3379.78 1491.56C3383.08 1479.38 3385.9 1467.07 3388.22 1454.67C3388.48 1453.27 3388.18 1451.83 3387.38 1450.65C3386.57 1449.48 3385.33 1448.67 3383.93 1448.41C3382.53 1448.14 3381.09 1448.45 3379.91 1449.25C3378.74 1450.06 3377.93 1451.29 3377.67 1452.69C3375.4 1464.82 3372.65 1476.84 3369.42 1488.74C3369.18 1489.64 3369.17 1490.58 3369.4 1491.48C3369.63 1492.38 3370.09 1493.2 3370.73 1493.87ZM3386.08 1404.38C3386.8 1405.12 3387.72 1405.64 3388.72 1405.88C3389.73 1406.12 3390.78 1406.06 3391.76 1405.71C3392.73 1405.36 3393.59 1404.74 3394.22 1403.92C3394.85 1403.1 3395.22 1402.11 3395.31 1401.08C3396.3 1388.52 3396.87 1375.93 3397.03 1363.33C3397.05 1361.91 3396.5 1360.54 3395.51 1359.52C3394.51 1358.5 3393.16 1357.91 3391.73 1357.9C3390.31 1357.88 3388.93 1358.43 3387.91 1359.42C3386.89 1360.41 3386.31 1361.77 3386.29 1363.2C3386.14 1375.56 3385.58 1387.91 3384.6 1400.23C3384.54 1400.99 3384.64 1401.75 3384.9 1402.46C3385.15 1403.18 3385.56 1403.83 3386.08 1404.38L3386.08 1404.38ZM3386.2 1313.53C3386.96 1314.32 3387.95 1314.87 3389.04 1315.08C3390.12 1315.29 3391.24 1315.17 3392.25 1314.72C3393.26 1314.27 3394.1 1313.53 3394.67 1312.58C3395.24 1311.64 3395.51 1310.54 3395.43 1309.44C3394.54 1296.91 3393.35 1284.41 3391.86 1271.94C3391.78 1271.24 3391.55 1270.56 3391.21 1269.95C3390.86 1269.33 3390.4 1268.79 3389.85 1268.35C3389.29 1267.92 3388.66 1267.6 3387.98 1267.41C3387.3 1267.21 3386.59 1267.16 3385.89 1267.24C3385.19 1267.33 3384.51 1267.55 3383.9 1267.89C3383.28 1268.24 3382.74 1268.7 3382.31 1269.25C3381.87 1269.81 3381.55 1270.44 3381.36 1271.12C3381.17 1271.8 3381.11 1272.51 3381.2 1273.21C3382.67 1285.51 3383.85 1297.83 3384.72 1310.19C3384.8 1311.44 3385.33 1312.62 3386.2 1313.53L3386.2 1313.53ZM3374.71 1223.37C3375.51 1224.21 3376.55 1224.76 3377.69 1224.96C3378.82 1225.15 3379.99 1224.97 3381.02 1224.45C3382.05 1223.93 3382.88 1223.09 3383.39 1222.05C3383.91 1221.02 3384.08 1219.85 3383.87 1218.72C3381.66 1206.37 3379.25 1194.06 3376.64 1181.79C3376.5 1181.1 3376.22 1180.44 3375.82 1179.85C3375.42 1179.26 3374.91 1178.76 3374.32 1178.37C3373.73 1177.98 3373.06 1177.71 3372.37 1177.58C3371.67 1177.45 3370.95 1177.46 3370.26 1177.61C3369.56 1177.75 3368.91 1178.04 3368.32 1178.44C3367.74 1178.84 3367.24 1179.36 3366.86 1179.95C3366.47 1180.55 3366.21 1181.22 3366.09 1181.92C3365.96 1182.61 3365.98 1183.33 3366.13 1184.02C3368.72 1196.18 3371.11 1208.37 3373.3 1220.6C3373.49 1221.65 3373.98 1222.61 3374.71 1223.37L3374.71 1223.37ZM3355.4 1134.45C3356.22 1135.3 3357.3 1135.86 3358.47 1136.04C3359.64 1136.22 3360.84 1136.01 3361.88 1135.43C3362.91 1134.86 3363.73 1133.96 3364.21 1132.88C3364.68 1131.79 3364.78 1130.58 3364.49 1129.43C3361.45 1117.26 3358.3 1105.12 3355.04 1093.01C3354.65 1091.65 3353.75 1090.51 3352.52 1089.81C3351.3 1089.12 3349.85 1088.93 3348.49 1089.3C3347.13 1089.66 3345.96 1090.55 3345.25 1091.76C3344.54 1092.98 3344.33 1094.42 3344.67 1095.79C3347.91 1107.84 3351.04 1119.92 3354.07 1132.03C3354.3 1132.94 3354.76 1133.77 3355.4 1134.44L3355.4 1134.45ZM3331.64 1046.44C3332.47 1047.3 3333.56 1047.87 3334.75 1048.04C3335.94 1048.21 3337.15 1047.98 3338.19 1047.38C3339.23 1046.79 3340.04 1045.86 3340.49 1044.75C3340.94 1043.64 3341.01 1042.41 3340.68 1041.25C3337.25 1029.22 3333.8 1017.2 3330.33 1005.18C3330.14 1004.49 3329.82 1003.85 3329.38 1003.3C3328.94 1002.74 3328.4 1002.27 3327.78 1001.93C3327.16 1001.58 3326.48 1001.36 3325.77 1001.28C3325.07 1001.2 3324.35 1001.26 3323.67 1001.46C3322.99 1001.65 3322.35 1001.98 3321.8 1002.42C3321.25 1002.87 3320.79 1003.42 3320.45 1004.04C3320.11 1004.66 3319.89 1005.35 3319.82 1006.05C3319.74 1006.76 3319.81 1007.47 3320.01 1008.15C3323.48 1020.16 3326.93 1032.17 3330.35 1044.19C3330.59 1045.03 3331.03 1045.81 3331.64 1046.44ZM3306.54 958.853C3307.37 959.719 3308.47 960.282 3309.65 960.454C3310.84 960.626 3312.05 960.396 3313.09 959.801C3314.13 959.207 3314.94 958.281 3315.39 957.172C3315.85 956.063 3315.91 954.834 3315.59 953.681C3312.19 941.669 3308.87 929.636 3305.62 917.584C3305.25 916.209 3304.35 915.037 3303.12 914.326C3301.88 913.615 3300.42 913.424 3299.04 913.794C3297.66 914.164 3296.49 915.065 3295.78 916.299C3295.07 917.533 3294.88 918.999 3295.25 920.374C3298.51 932.468 3301.85 944.542 3305.25 956.595C3305.5 957.474 3305.95 958.238 3306.54 958.853ZM3283.35 870.763C3284.17 871.614 3285.24 872.173 3286.4 872.354C3287.57 872.535 3288.76 872.328 3289.79 871.765C3290.83 871.202 3291.65 870.314 3292.13 869.238C3292.61 868.162 3292.73 866.958 3292.45 865.812C3289.45 853.138 3286.75 840.875 3284.41 829.361C3283.82 826.454 3280.99 824.578 3278.08 825.168C3275.18 825.757 3273.3 828.592 3273.89 831.498C3276.25 843.123 3278.98 855.501 3282.01 868.285C3282.22 869.217 3282.69 870.073 3283.35 870.763L3283.35 870.763ZM3266.22 781.366C3267 782.184 3268.02 782.734 3269.14 782.935C3270.25 783.136 3271.41 782.979 3272.43 782.486C3273.45 781.993 3274.29 781.19 3274.82 780.191C3275.36 779.192 3275.56 778.049 3275.41 776.926C3273.68 764.221 3272.36 751.797 3271.48 740C3271.36 738.596 3270.68 737.299 3269.61 736.388C3268.53 735.477 3267.14 735.024 3265.74 735.129C3264.33 735.233 3263.03 735.885 3262.1 736.944C3261.17 738.004 3260.69 739.386 3260.77 740.792C3261.66 752.809 3263.01 765.454 3264.77 778.376C3264.92 779.5 3265.43 780.548 3266.22 781.366ZM3261.26 689.832C3261.99 690.591 3262.93 691.118 3263.95 691.35C3264.98 691.582 3266.05 691.508 3267.03 691.137C3268.02 690.766 3268.87 690.115 3269.49 689.263C3270.1 688.412 3270.46 687.398 3270.5 686.348C3270.77 680.178 3271.19 674.015 3271.76 667.865C3271.83 667.158 3271.76 666.442 3271.56 665.761C3271.36 665.079 3271.02 664.445 3270.57 663.894C3270.12 663.344 3269.57 662.889 3268.94 662.555C3268.31 662.221 3267.62 662.015 3266.91 661.949C3266.21 661.883 3265.49 661.958 3264.81 662.171C3264.13 662.383 3263.5 662.729 3262.96 663.186C3262.42 663.644 3261.97 664.206 3261.64 664.838C3261.32 665.47 3261.12 666.161 3261.06 666.87C3260.48 673.196 3260.05 679.535 3259.77 685.881C3259.74 686.606 3259.86 687.331 3260.11 688.01C3260.37 688.689 3260.76 689.309 3261.26 689.832Z" fill="#18644B"/>
</g>
<g clip-path="url(#clip6_609_467)">
<path d="M604.447 1323.96C603.596 1323.05 602.458 1322.47 601.226 1322.31C599.995 1322.15 598.746 1322.42 597.693 1323.08C592.35 1326.42 587.037 1329.8 581.756 1333.23C581.159 1333.61 580.643 1334.11 580.238 1334.69C579.833 1335.27 579.547 1335.93 579.397 1336.62C579.247 1337.31 579.236 1338.03 579.364 1338.72C579.492 1339.42 579.757 1340.09 580.143 1340.68C580.53 1341.28 581.03 1341.79 581.615 1342.19C582.2 1342.59 582.859 1342.87 583.553 1343.01C584.247 1343.16 584.963 1343.16 585.659 1343.03C586.355 1342.89 587.018 1342.62 587.609 1342.23C592.834 1338.84 598.091 1335.49 603.377 1332.19C604.051 1331.77 604.624 1331.21 605.053 1330.54C605.482 1329.87 605.758 1329.11 605.86 1328.33C605.963 1327.54 605.889 1326.74 605.644 1325.98C605.4 1325.23 604.991 1324.53 604.447 1323.96L604.447 1323.96ZM544.543 1364.49C543.643 1363.53 542.425 1362.94 541.118 1362.82C539.811 1362.7 538.506 1363.07 537.449 1363.84C527.316 1371.3 517.355 1378.98 507.575 1386.89C506.468 1387.79 505.763 1389.09 505.614 1390.51C505.465 1391.92 505.885 1393.34 506.782 1394.45C508.64 1396.73 512.029 1397.11 514.334 1395.24C523.985 1387.43 533.815 1379.85 543.815 1372.49C544.427 1372.04 544.936 1371.47 545.309 1370.81C545.682 1370.14 545.911 1369.41 545.98 1368.65C546.048 1367.9 545.956 1367.14 545.708 1366.42C545.461 1365.7 545.063 1365.04 544.543 1364.49ZM474.526 1422.58L474.518 1422.58C474.034 1422.06 473.454 1421.65 472.811 1421.36C472.168 1421.07 471.474 1420.91 470.77 1420.89C470.065 1420.87 469.363 1420.99 468.704 1421.24C468.045 1421.49 467.441 1421.87 466.928 1422.35C457.774 1430.97 448.875 1439.86 440.245 1449.01C439.294 1450.05 438.791 1451.42 438.844 1452.83C438.897 1454.24 439.501 1455.57 440.527 1456.53C441.553 1457.5 442.917 1458.03 444.327 1458C445.736 1457.96 447.076 1457.38 448.059 1456.37C456.545 1447.38 465.293 1438.64 474.293 1430.17C475.328 1429.19 475.934 1427.84 475.978 1426.42C476.021 1425 475.499 1423.62 474.526 1422.58ZM413.294 1489.52C412.764 1488.96 412.117 1488.51 411.398 1488.22C410.679 1487.93 409.905 1487.79 409.129 1487.83C408.354 1487.86 407.595 1488.07 406.906 1488.42C406.217 1488.78 405.613 1489.28 405.136 1489.9C397.399 1499.84 390.027 1510.05 383.032 1520.53C382.641 1521.12 382.369 1521.77 382.233 1522.47C382.096 1523.16 382.097 1523.87 382.235 1524.56C382.373 1525.25 382.646 1525.91 383.039 1526.5C383.431 1527.08 383.935 1527.59 384.522 1527.98C385.108 1528.37 385.766 1528.64 386.458 1528.78C387.15 1528.91 387.861 1528.91 388.553 1528.77C389.244 1528.64 389.902 1528.36 390.488 1527.97C391.073 1527.58 391.576 1527.07 391.967 1526.49C398.816 1516.23 406.036 1506.22 413.613 1496.49C414.397 1495.48 414.796 1494.22 414.738 1492.95C414.68 1491.67 414.168 1490.46 413.294 1489.52L413.294 1489.52ZM364.313 1565.81C363.724 1565.19 362.994 1564.71 362.183 1564.42C361.372 1564.14 360.504 1564.05 359.653 1564.17C358.801 1564.29 357.991 1564.61 357.29 1565.11C356.588 1565.61 356.017 1566.27 355.623 1567.03C349.845 1578.24 344.527 1589.69 339.683 1601.33C339.136 1602.65 339.135 1604.13 339.678 1605.44C340.222 1606.76 341.266 1607.81 342.581 1608.35C343.896 1608.9 345.374 1608.9 346.691 1608.36C348.007 1607.81 349.053 1606.77 349.6 1605.45C354.331 1594.08 359.525 1582.9 365.169 1571.95C365.677 1570.96 365.867 1569.84 365.714 1568.75C365.561 1567.65 365.071 1566.62 364.313 1565.81ZM331.006 1650.14C330.355 1649.45 329.532 1648.94 328.622 1648.67C327.711 1648.4 326.745 1648.38 325.822 1648.6C324.899 1648.83 324.052 1649.29 323.369 1649.95C322.685 1650.61 322.188 1651.44 321.929 1652.36C318.493 1664.5 315.541 1676.77 313.079 1689.14C312.801 1690.54 313.09 1691.99 313.881 1693.17C314.672 1694.36 315.901 1695.18 317.298 1695.46C318.694 1695.74 320.144 1695.45 321.328 1694.66C322.513 1693.87 323.334 1692.64 323.612 1691.24C326.017 1679.15 328.902 1667.15 332.26 1655.28C332.513 1654.39 332.531 1653.45 332.311 1652.55C332.091 1651.65 331.642 1650.82 331.006 1650.14ZM314.658 1739.46C313.949 1738.71 313.038 1738.18 312.033 1737.93C311.029 1737.68 309.975 1737.73 308.997 1738.06C308.019 1738.4 307.159 1739.01 306.52 1739.83C305.882 1740.64 305.492 1741.62 305.397 1742.65C304.266 1755.2 303.551 1767.78 303.252 1780.38C303.218 1781.8 303.751 1783.18 304.733 1784.21C305.716 1785.24 307.067 1785.84 308.491 1785.88C309.915 1785.91 311.293 1785.38 312.324 1784.39C313.355 1783.41 313.953 1782.06 313.988 1780.64C314.28 1768.28 314.981 1755.93 316.092 1743.62C316.161 1742.87 316.069 1742.1 315.822 1741.39C315.575 1740.67 315.178 1740.01 314.658 1739.46L314.658 1739.46ZM313.529 1830.3C312.774 1829.5 311.79 1828.95 310.709 1828.72C309.629 1828.49 308.506 1828.61 307.492 1829.04C306.478 1829.48 305.623 1830.22 305.043 1831.15C304.464 1832.09 304.187 1833.19 304.252 1834.29C304.998 1846.83 306.049 1859.34 307.405 1871.83C307.48 1872.53 307.693 1873.21 308.032 1873.83C308.37 1874.44 308.827 1874.99 309.376 1875.43C309.925 1875.87 310.556 1876.2 311.233 1876.4C311.91 1876.6 312.619 1876.66 313.32 1876.59C314.021 1876.51 314.7 1876.3 315.319 1875.96C315.937 1875.62 316.483 1875.17 316.925 1874.62C317.367 1874.07 317.697 1873.44 317.895 1872.76C318.093 1872.08 318.156 1871.37 318.081 1870.67C316.743 1858.36 315.707 1846.02 314.972 1833.66C314.9 1832.41 314.39 1831.22 313.53 1830.3L313.529 1830.3ZM324.012 1920.58C323.224 1919.74 322.186 1919.17 321.051 1918.97C319.917 1918.76 318.746 1918.92 317.713 1919.43C316.679 1919.95 315.837 1920.78 315.312 1921.8C314.787 1922.83 314.606 1924 314.797 1925.13C316.872 1937.5 319.147 1949.84 321.621 1962.14C321.754 1962.83 322.023 1963.5 322.414 1964.09C322.805 1964.68 323.309 1965.19 323.898 1965.58C324.487 1965.98 325.148 1966.26 325.844 1966.4C326.539 1966.53 327.256 1966.53 327.951 1966.39C328.647 1966.25 329.308 1965.98 329.896 1965.58C330.484 1965.19 330.988 1964.68 331.378 1964.08C331.769 1963.49 332.038 1962.83 332.17 1962.13C332.302 1961.43 332.295 1960.72 332.149 1960.02C329.698 1947.84 327.444 1935.62 325.388 1923.36C325.215 1922.32 324.736 1921.35 324.011 1920.58L324.012 1920.58ZM342.324 2009.72C341.514 2008.85 340.442 2008.28 339.273 2008.09C338.104 2007.9 336.905 2008.1 335.862 2008.66C334.818 2009.22 333.99 2010.11 333.505 2011.19C333.02 2012.27 332.906 2013.48 333.181 2014.63C336.088 2026.83 339.102 2039.01 342.223 2051.15C342.596 2052.51 343.487 2053.67 344.705 2054.38C345.924 2055.09 347.371 2055.29 348.736 2054.94C350.101 2054.59 351.274 2053.72 352.001 2052.51C352.729 2051.3 352.953 2049.86 352.626 2048.49C349.52 2036.4 346.52 2024.29 343.628 2012.15C343.413 2011.24 342.964 2010.4 342.324 2009.72L342.324 2009.72ZM365.105 2097.99C364.286 2097.11 363.197 2096.53 362.012 2096.35C360.827 2096.17 359.614 2096.38 358.568 2096.97C357.521 2097.55 356.7 2098.47 356.236 2099.58C355.772 2100.68 355.691 2101.91 356.007 2103.07C359.302 2115.14 362.617 2127.2 365.953 2139.26C366.135 2139.94 366.452 2140.59 366.884 2141.15C367.316 2141.71 367.855 2142.18 368.471 2142.54C369.086 2142.89 369.765 2143.12 370.469 2143.2C371.172 2143.29 371.887 2143.24 372.57 2143.05C373.254 2142.86 373.893 2142.54 374.452 2142.1C375.01 2141.67 375.476 2141.12 375.823 2140.51C376.17 2139.89 376.391 2139.21 376.474 2138.5C376.556 2137.8 376.498 2137.08 376.303 2136.4C372.97 2124.35 369.658 2112.3 366.366 2100.25C366.137 2099.4 365.704 2098.62 365.105 2097.99ZM389.222 2185.84C388.403 2184.97 387.315 2184.39 386.131 2184.21C384.948 2184.02 383.736 2184.24 382.689 2184.82C381.642 2185.41 380.821 2186.32 380.355 2187.43C379.89 2188.53 379.807 2189.76 380.12 2190.92C383.381 2202.96 386.57 2215.03 389.685 2227.12C390.039 2228.5 390.927 2229.68 392.154 2230.41C393.38 2231.13 394.843 2231.34 396.222 2230.98C397.602 2230.63 398.783 2229.74 399.508 2228.52C400.232 2227.29 400.44 2225.83 400.085 2224.45C396.96 2212.32 393.76 2200.21 390.487 2188.12C390.249 2187.23 389.806 2186.47 389.222 2185.84ZM411.43 2274.19C410.624 2273.33 409.558 2272.76 408.396 2272.56C407.234 2272.37 406.04 2272.56 404.999 2273.11C403.958 2273.67 403.127 2274.54 402.634 2275.61C402.141 2276.68 402.014 2277.89 402.273 2279.04C405.131 2291.74 407.699 2304.04 409.908 2315.57C410.464 2318.49 413.278 2320.4 416.191 2319.84C419.104 2319.28 421.012 2316.47 420.454 2313.56C418.224 2301.9 415.631 2289.5 412.748 2276.68C412.539 2275.75 412.084 2274.88 411.429 2274.19L411.43 2274.19ZM427.568 2363.77C426.793 2362.94 425.775 2362.38 424.662 2362.17C423.549 2361.95 422.396 2362.1 421.37 2362.58C420.343 2363.06 419.496 2363.86 418.948 2364.85C418.401 2365.84 418.182 2366.98 418.323 2368.11C419.913 2380.83 421.096 2393.27 421.839 2405.08C421.95 2406.48 422.609 2407.78 423.674 2408.71C424.738 2409.63 426.123 2410.1 427.529 2410.01C428.935 2409.92 430.25 2409.28 431.191 2408.24C432.131 2407.19 432.622 2405.81 432.557 2404.4C431.8 2392.38 430.596 2379.72 428.978 2366.78C428.84 2365.65 428.345 2364.6 427.568 2363.77ZM431.497 2455.35C430.777 2454.59 429.849 2454.05 428.826 2453.81C427.803 2453.56 426.732 2453.62 425.744 2453.98C424.756 2454.34 423.896 2454.99 423.27 2455.83C422.644 2456.67 422.279 2457.68 422.222 2458.73C421.887 2464.9 421.4 2471.06 420.762 2477.2C420.679 2477.91 420.737 2478.62 420.932 2479.31C421.128 2479.99 421.457 2480.63 421.902 2481.19C422.346 2481.74 422.896 2482.2 423.52 2482.54C424.144 2482.88 424.83 2483.1 425.538 2483.17C426.245 2483.25 426.96 2483.18 427.641 2482.97C428.322 2482.77 428.956 2482.43 429.505 2481.98C430.054 2481.53 430.508 2480.97 430.841 2480.34C431.173 2479.71 431.377 2479.02 431.442 2478.32C432.097 2472 432.598 2465.66 432.944 2459.32C432.984 2458.6 432.877 2457.87 432.628 2457.19C432.379 2456.51 431.995 2455.88 431.497 2455.35Z" fill="#18644B"/>
</g>
</g>
<defs>
<clipPath id="clip0_609_467">
<rect width="3700" height="3700" fill="white"/>
</clipPath>
<clipPath id="clip1_609_467">
<rect width="2783" height="1043" fill="white" transform="translate(533 257)"/>
</clipPath>
<clipPath id="clip2_609_467">
<rect width="2199" height="1954" fill="white" transform="translate(841 1419)"/>
</clipPath>
<clipPath id="clip3_609_467">
<rect width="444" height="398" fill="white" transform="translate(2373 2613)"/>
</clipPath>
<clipPath id="clip4_609_467">
<rect width="924" height="684" fill="white" transform="translate(297 2510)"/>
</clipPath>
<clipPath id="clip5_609_467">
<rect width="747" height="925" fill="white" transform="matrix(-0.692428 -0.721487 -0.721487 0.692428 3783.81 1198.73)"/>
</clipPath>
<clipPath id="clip6_609_467">
<rect width="747" height="925" fill="white" transform="matrix(0.684337 0.729166 0.729166 -0.684337 -85.3389 1940.66)"/>
</clipPath>
</defs>
</svg>
