<svg width="236" height="249" viewBox="0 0 236 249" fill="none" xmlns="http://www.w3.org/2000/svg">
<path d="M29.1722 186.89L35.2825 64.6846L181.929 24.9678L215.536 226.607L29.1722 186.89Z" stroke="#0C3026" stroke-width="12" stroke-linejoin="round"/>
<path d="M55.9221 164.9L5.44415 164.9V214.281H55.9221V164.9Z" fill="#DCFCE7" stroke="#0C3026" stroke-width="6" stroke-linejoin="bevel"/>
<path d="M44.9469 176.494L16.4194 176.495L16.4194 202.687H44.9469V176.494Z" fill="#DCFCE7" stroke="#0C3026" stroke-width="6" stroke-linejoin="bevel"/>
<path d="M54.2517 42.796L3.77374 42.7959V92.1767H54.2517V42.796Z" fill="#DCFCE7" stroke="#0C3026" stroke-width="6" stroke-linejoin="bevel"/>
<path d="M43.2777 54.3911L14.7478 54.3914L14.7477 80.5814H43.2777V54.3911Z" fill="#DCFCE7" stroke="#0C3026" stroke-width="6" stroke-linejoin="bevel"/>
<path d="M203.921 3.89879L153.443 3.89868V53.2795H203.921V3.89879Z" fill="#DCFCE7" stroke="#0C3026" stroke-width="6" stroke-linejoin="bevel"/>
<path d="M192.947 15.4939L164.417 15.4941L164.417 41.6841H192.947V15.4939Z" fill="#DCFCE7" stroke="#0C3026" stroke-width="6" stroke-linejoin="bevel"/>
<path d="M232.729 195.878L182.252 195.878V245.259H232.729V195.878Z" fill="#DCFCE7" stroke="#0C3026" stroke-width="6" stroke-linejoin="bevel"/>
<path d="M221.756 207.473L193.226 207.474L193.226 233.664H221.756V207.473Z" fill="#DCFCE7" stroke="#0C3026" stroke-width="6" stroke-linejoin="bevel"/>
</svg>
