<svg xmlns="http://www.w3.org/2000/svg" width="180.622" height="180.622" viewBox="0 0 180.622 180.622">
  <g id="layer1" transform="translate(-13.845 -34.47)">
    <path id="path354" d="M86.512,214.3a6.047,6.047,0,0,1-2.174-1.855,56.67,56.67,0,0,1-2.057-7.761c-.8-3.685-1.521-6.949-1.608-7.253a5.7,5.7,0,0,0-2.537-1.386c-1.308-.458-3.706-1.441-5.33-2.184l-2.952-1.351-1.281.786c-.7.432-3.56,2.255-6.345,4.051-5.342,3.444-6.726,3.968-8.816,3.339-1.9-.572-24.922-23.7-25.277-25.4-.428-2.047.113-3.389,3.458-8.578,1.8-2.785,3.618-5.641,4.051-6.345l.786-1.281-1.351-2.952c-.743-1.624-1.725-4.022-2.184-5.33a5.7,5.7,0,0,0-1.386-2.537c-.3-.087-3.568-.811-7.253-1.608a56.668,56.668,0,0,1-7.761-2.057,6.047,6.047,0,0,1-1.855-2.174c-.789-1.556-.794-1.67-.794-17.644s.005-16.088.794-17.644a6.047,6.047,0,0,1,1.855-2.174,56.671,56.671,0,0,1,7.761-2.057c3.685-.8,6.949-1.521,7.253-1.608a5.7,5.7,0,0,0,1.386-2.537c.458-1.308,1.441-3.706,2.184-5.33l1.351-2.952L35.643,89.2c-.433-.705-2.255-3.56-4.051-6.346a36.762,36.762,0,0,1-3.5-6.3c-.492-2.62-.076-3.151,12.123-15.514C52.628,48.466,53,48.172,55.931,48.721a36.758,36.758,0,0,1,6.3,3.5c2.785,1.8,5.641,3.618,6.345,4.051l1.281.786L72.806,55.7c1.624-.743,4.022-1.725,5.33-2.184a5.7,5.7,0,0,0,2.537-1.386c.088-.3.811-3.568,1.608-7.253a56.671,56.671,0,0,1,2.057-7.761,6.047,6.047,0,0,1,2.174-1.855c1.556-.789,1.67-.794,17.644-.794s16.088.005,17.644.794a6.047,6.047,0,0,1,2.174,1.855,56.667,56.667,0,0,1,2.057,7.761c.8,3.685,1.521,6.949,1.608,7.253a5.7,5.7,0,0,0,2.537,1.386c1.308.458,3.706,1.441,5.33,2.184l2.952,1.351,1.281-.786c.7-.432,3.56-2.255,6.345-4.051a36.758,36.758,0,0,1,6.3-3.5c2.891-.542,3.328-.2,15.684,12.151s12.694,12.792,12.151,15.684a36.758,36.758,0,0,1-3.5,6.3c-1.8,2.785-3.618,5.641-4.051,6.345l-.786,1.281,1.351,2.952c.743,1.624,1.725,4.022,2.184,5.33A5.7,5.7,0,0,0,176.8,101.3c.3.088,3.568.811,7.253,1.608a56.671,56.671,0,0,1,7.761,2.057,6.046,6.046,0,0,1,1.855,2.174c.789,1.556.794,1.67.794,17.644s-.005,16.088-.794,17.644a6.047,6.047,0,0,1-1.855,2.174,56.668,56.668,0,0,1-7.761,2.057c-3.685.8-6.949,1.521-7.253,1.608a5.7,5.7,0,0,0-1.386,2.537c-.458,1.308-1.441,3.706-2.184,5.33l-1.351,2.952.786,1.281c.432.7,2.255,3.56,4.051,6.345a36.759,36.759,0,0,1,3.5,6.3c.549,2.928.255,3.3-12.321,15.712-12.363,12.2-12.894,12.614-15.514,12.123a36.759,36.759,0,0,1-6.3-3.5c-2.785-1.8-5.641-3.618-6.345-4.051l-1.281-.786-2.952,1.351c-1.624.743-4.022,1.725-5.33,2.184a5.7,5.7,0,0,0-2.537,1.386c-.088.3-.811,3.568-1.608,7.253a56.667,56.667,0,0,1-2.057,7.761A6.046,6.046,0,0,1,121.8,214.3c-1.556.789-1.67.794-17.644.794s-16.088-.005-17.644-.794Zm28.723-10.76c.1-.34.753-3.218,1.441-6.4,1.373-6.346,1.924-7.829,3.227-8.683a39.445,39.445,0,0,1,5-1.988c2.27-.78,6.078-2.359,8.463-3.508a24.61,24.61,0,0,1,5.4-2.09c1.424,0,2.77.7,8.745,4.568l5.071,3.28,7.76-7.76,7.76-7.76-3.28-5.071c-3.865-5.975-4.568-7.321-4.568-8.745a24.611,24.611,0,0,1,2.09-5.4c1.149-2.384,2.728-6.192,3.508-8.463a39.445,39.445,0,0,1,1.988-5c.854-1.3,2.337-1.854,8.683-3.227,3.179-.688,6.058-1.336,6.4-1.441.571-.176.617-1.017.617-11.079s-.047-10.9-.617-11.079c-.34-.1-3.218-.753-6.4-1.441-6.346-1.373-7.829-1.924-8.683-3.227a39.445,39.445,0,0,1-1.988-5c-.78-2.27-2.359-6.078-3.508-8.463a24.611,24.611,0,0,1-2.09-5.4c0-1.424.7-2.77,4.568-8.745l3.28-5.071-7.76-7.76-7.76-7.76-5.071,3.28c-5.975,3.865-7.321,4.568-8.745,4.568a24.611,24.611,0,0,1-5.4-2.09c-2.384-1.149-6.192-2.728-8.463-3.508a39.447,39.447,0,0,1-5-1.988c-1.3-.854-1.854-2.337-3.227-8.683-.688-3.179-1.336-6.058-1.441-6.4-.176-.571-1.017-.617-11.079-.617s-10.9.047-11.079.617c-.1.34-.753,3.218-1.441,6.4-1.373,6.346-1.924,7.829-3.227,8.683a39.447,39.447,0,0,1-5,1.988c-2.27.78-6.078,2.359-8.463,3.508a24.611,24.611,0,0,1-5.4,2.09c-1.424,0-2.77-.7-8.745-4.568l-5.071-3.28-7.76,7.76-7.76,7.76,3.28,5.071c3.865,5.975,4.568,7.321,4.568,8.745a24.61,24.61,0,0,1-2.09,5.4c-1.149,2.384-2.728,6.192-3.508,8.463a39.447,39.447,0,0,1-1.988,5c-.854,1.3-2.337,1.854-8.683,3.227-3.179.688-6.058,1.336-6.4,1.441-.571.176-.617,1.017-.617,11.079s.047,10.9.617,11.079c.34.1,3.218.753,6.4,1.441,6.346,1.373,7.829,1.924,8.683,3.227a39.448,39.448,0,0,1,1.988,5c.78,2.27,2.359,6.078,3.508,8.463a24.61,24.61,0,0,1,2.09,5.4c0,1.424-.7,2.77-4.568,8.745l-3.28,5.071,7.76,7.76,7.76,7.76,5.071-3.28c5.975-3.865,7.321-4.568,8.745-4.568a24.611,24.611,0,0,1,5.4,2.09c2.384,1.149,6.192,2.728,8.463,3.508a39.445,39.445,0,0,1,5,1.988c1.3.854,1.854,2.337,3.227,8.683.688,3.179,1.336,6.058,1.441,6.4.176.571,1.017.617,11.079.617S115.059,204.11,115.235,203.539ZM96.572,167.234a43.64,43.64,0,0,1-23.642-12.852,42.992,42.992,0,1,1,38.459,12.885,53.582,53.582,0,0,1-14.817-.033Zm15.346-11.066a32.8,32.8,0,0,0,23.7-23.872,35.613,35.613,0,0,0,0-15.029,32.824,32.824,0,0,0-23.878-23.935,35.618,35.618,0,0,0-15.169,0,32.824,32.824,0,0,0-23.878,23.935,35.612,35.612,0,0,0,0,15.029,32.718,32.718,0,0,0,27.164,24.585,38.9,38.9,0,0,0,12.06-.712Z" fill="#0c3026"/>
  </g>
</svg>
