<svg width="39" height="41" viewBox="0 0 39 41" fill="none" xmlns="http://www.w3.org/2000/svg">
<path d="M4.54065 30.7938L5.54065 10.7938L29.5406 4.29382L35.0406 37.2938L4.54065 30.7938Z" stroke="white" stroke-width="2.4" stroke-linejoin="round"/>
<path d="M8.9185 27.1951L0.657349 27.1951V35.2767H8.9185V27.1951Z" fill="white" stroke="black" stroke-width="0.7" stroke-linejoin="bevel"/>
<path d="M7.49538 28.8415L2.27985 28.8416L2.27985 33.6301H7.49538V28.8415Z" fill="white" stroke="black" stroke-width="0.7" stroke-linejoin="bevel"/>
<path d="M8.64512 7.21169L0.383972 7.21167V15.2933H8.64512V7.21169Z" fill="white" stroke="black" stroke-width="0.7" stroke-linejoin="bevel"/>
<path d="M7.222 8.8581L2.00647 8.85815L2.00647 13.6467H7.222V8.8581Z" fill="white" stroke="black" stroke-width="0.7" stroke-linejoin="bevel"/>
<path d="M33.1398 0.845722L24.8786 0.845703V8.9273H33.1398V0.845722Z" fill="white" stroke="black" stroke-width="0.7" stroke-linejoin="bevel"/>
<path d="M31.7166 2.49213L26.5011 2.49219L26.5011 7.28075H31.7166V2.49213Z" fill="white" stroke="black" stroke-width="0.7" stroke-linejoin="bevel"/>
<path d="M37.8545 32.2647L29.5934 32.2646V40.3462H37.8545V32.2647Z" fill="white" stroke="black" stroke-width="0.7" stroke-linejoin="bevel"/>
<path d="M36.4314 33.9111L31.2159 33.9111L31.2159 38.6997H36.4314V33.9111Z" fill="white" stroke="black" stroke-width="0.7" stroke-linejoin="bevel"/>
</svg>
